<?xml version="1.0" encoding="UTF-8" standalone="no"?>
<svg xmlns="http://www.w3.org/2000/svg" xmlns:xlink="http://www.w3.org/1999/xlink" viewBox="0 0 400 608">
  <defs>
    <style type="text/css">
      text               { font-family: Inter, sans-serif; font-size:10px; }
      .color-value       { font-family: DejaVu Sans Mono, mono; text-anchor: middle }
      .color-value.dark  { fill: #212121 }
      .color-value.light { fill: #E0E0E0 }
      .label             { font-weight: bold; text-anchor: start; fill: #212121 }
      .label-subline     { text-anchor: start; fill: #626262 }
    </style>
  </defs>

  <!-- Text colors -->

  <g>
    <rect style="fill:#212121" width="400" height="16"/>
    <rect style="fill:#424242" width="400" y="16" height="16"/>
    <rect style="fill:#616161" y="32" width="200" height="240"/>
    <rect style="fill:#BDBDBD" x="200" y="32" width="200" height="240"/>
    <rect style="fill:#424242" y="200" width="400" height="1"/>

    <g style="font-weight:bold;text-anchor:middle">
      <text style="fill:#E0E0E0" x="200" y="11">Text colors</text>
      <g style="fill:#BDBDBD" transform="translate(4,16)">
        <text x="32" y="11">Normal</text>
        <text x="96" y="11">Hover</text>   <!-- 12.5% lighten -->
        <text x="160" y="11">Active</text> <!-- 25.0% lighten -->
      </g>
    </g>
    <g transform="translate(4,4)">
      <g transform="translate(0,32)">
        <rect style="fill:#FFF" x="4" y="4" width="56" height="24"/>
        <text class="color-value dark" x="32" y="20">#FFF</text>
        <text class="label" x="204" y="20">Menu text</text>
      </g>
      <g transform="translate(0,64)">
        <rect style="fill:#F0F0F0" x="4" y="4" width="56" height="24"/>
        <rect style="fill:#FFF" x="68" y="4" width="56" height="24"/>
        <rect style="fill:#FFF" x="132" y="4" width="56" height="24"/>
        <text class="color-value dark" x="32" y="20">#F0F0F0</text>
        <text class="color-value dark" x="96" y="20">#FFF</text>
        <text class="color-value dark" x="160" y="20">#FFF</text>
        <text class="label" x="204" y="13">Button text</text>
        <text class="label-subline" x="204" y="25">also menu bar text</text>
      </g>
      <g transform="translate(0,96)">
        <rect style="fill:#E0E0E0" x="4" y="4" width="56" height="24"/>
        <rect style="fill:#FCFCFC" x="68" y="4" width="56" height="24"/>
        <rect style="fill:#FFF" x="132" y="4" width="56" height="24"/>
        <text class="color-value" x="32" y="20">#E0E0E0</text>
        <text class="color-value dark" x="96" y="20">#FCFCFC</text>
        <text class="color-value dark" x="160" y="20">#FFF</text>
        <text class="label" x="204" y="13">View and text field text</text>
        <text class="label-subline" x="204" y="25">also tooltip text</text>
      </g>
      <g transform="translate(0,128)">
        <rect style="fill:#C0C0C0" x="4" y="4" width="56" height="24"/>
        <rect style="fill:#D8D8D8" x="68" y="4" width="56" height="24"/>
        <rect style="fill:#F0F0F0" x="132" y="4" width="56" height="24"/>
        <text class="color-value dark" x="32" y="20">#C0C0C0</text>
        <text class="color-value dark" x="96" y="20">#D8D8D8</text>
        <text class="color-value dark" x="160" y="20">#F0F0F0</text>
        <text class="label" x="204" y="13">Window text</text>
        <text class="label-subline" x="204" y="25">also active titlebar text</text>
      </g>
      <g transform="translate(0,160)">
        <rect style="fill:#6C6C6c" x="4" y="4" width="56" height="24"/>
        <text class="color-value light" x="32" y="20">#6C6C6C</text>
        <text class="label" x="204" y="13">Disabled text</text>
        <text class="label-subline" x="204" y="25">also inactive titlebar text</text>
      </g>
      <g transform="translate(0,200)">
        <rect style="fill:#90CAF9" x="4" y="4" width="56" height="24"/> <!-- Blue 200 -->
        <text class="color-value dark" x="32" y="20">#90CAF9</text>
        <rect style="fill:#CE93D8" x="68" y="4" width="56" height="24"/> <!-- Purple 200 -->
        <text class="color-value dark" x="96" y="20">#CE93D8</text>
        <text class="label" x="204" y="20">Link colors</text>
      </g>
      <g transform="translate(0,232)">
        <rect style="fill:#A5D6A7" x="4" y="4" width="56" height="24"/> <!-- Green 200 -->
        <text class="color-value dark" x="32" y="20">#A5D6A7</text>
        <rect style="fill:#FFF59D" x="68" y="4" width="56" height="24"/> <!-- Yellow 200 -->
        <text class="color-value dark" x="96" y="20">#FFF59D</text>
        <rect style="fill:#EF9A9A" x="132" y="4" width="56" height="24"/> <!-- Red 200 -->
        <text class="color-value dark" x="160" y="20">#EF9A9A</text>
        <text class="label" x="204" y="20">Positive, neutral and negative text</text>
      </g>
    </g>
  </g>

  <!--Background colors -->

  <g transform="translate(0,272)">
    <rect style="fill:#212121" width="400" height="16"/>
    <rect style="fill:#424242" width="400" y="16" height="16"/>
    <rect style="fill:#9E9E9E" y="32" width="200" height="232"/>
    <rect style="fill:#BDBDBD" x="200" y="32" width="200" height="232"/>

    <g style="font-weight:bold;text-anchor:middle">
      <text style="fill:#E0E0E0" x="200" y="11">Background colors</text>
      <g style="fill:#BDBDBD" transform="translate(4,16)">
        <text x="32" y="11">Normal</text>
        <text x="96" y="11">Hover</text>   <!-- 12.5% lighten -->
        <text x="160" y="11">Active</text> <!-- 25.0% lighten -->
      </g>
    </g>
    <g transform="translate(4,4)">
      <g transform="translate(0,32)">
        <rect style="fill:#606060" x="4" y="4" width="56" height="24"/>
        <rect style="fill:#6C6C6C" x="68" y="4" width="56" height="24"/>
        <rect style="fill:#787878" x="132" y="4" width="56" height="24"/>
        <text class="color-value light" x="32" y="20">#606060</text>
        <text class="color-value light" x="96" y="20">#6C6C6C</text>
        <text class="color-value light" x="160" y="20">#787887</text>
        <text class="label" x="204" y="13">Button background</text>
        <text class="label-subline" x="204" y="25">also scrollbar sliders</text>
      </g>
      <g transform="translate(0,64)">
        <!-- 11% white overlay transparancy on #303030 (elevation 6dp) -->
        <rect style="fill:#484848" x="4" y="4" width="56" height="24"/>
        <text class="color-value light" x="32" y="20">#484848</text>
        <text class="label" x="204" y="20">Text field background</text>
      </g>
      <g transform="translate(0,96)">
        <rect style="fill:#3C3C3C" x="4" y="4" width="56" height="24"/>
        <text class="color-value light" x="32" y="20">#3C3C3C</text>
        <text class="label" x="204" y="20">Borders</text>
      </g>
      <g transform="translate(0,128)">
        <rect style="fill:#303030" x="4" y="4" width="56" height="24"/>
        <text class="color-value light" x="32" y="20">#303030</text>
        <text class="label" x="204" y="20">Titlebar and dialog background</text>
      </g>
      <g transform="translate(0,160)">
        <rect style="fill:#242424" x="4" y="4" width="56" height="24"/>
        <text class="color-value light" x="32" y="20">#242424</text>
        <text class="label" x="204" y="20">Window background</text>
      </g>
      <g transform="translate(0,192)">
        <rect style="fill:#181818" x="4" y="4" width="56" height="24"/>
        <text class="color-value light" x="32" y="20">#181818</text>
        <text class="label" x="204" y="20">View background</text>
      </g>
      <g transform="translate(0,224)">
        <rect style="fill:#32619D" x="4" y="4" width="56" height="24"/>
        <text class="color-value light" x="32" y="20">#32619D</text>
        <text class="label" x="204" y="20">Selection background</text>
      </g>
    </g>
  </g>

  <!-- Accent colors -->

  <g transform="translate(0,536)">
    <rect style="fill:#212121" width="400" height="16"/>
    <rect style="fill:#424242" width="400" y="16" height="16"/>
    <rect style="fill:#9E9E9E" y="32" width="200" height="40"/>
    <rect style="fill:#BDBDBD" x="200" y="32" width="200" height="40"/>

    <g style="font-weight:bold;text-anchor:middle">
      <text style="fill:#E0E0E0" x="200" y="11">Accent colors</text>
    </g>

    <g transform="translate(4,4)">
      <g transform="translate(0,32)">
        <rect style="fill:#2670D0" x="4" y="4" width="56" height="24"/>
        <text class="color-value light" x="32" y="20">#2670D0</text>
        <rect style="fill:#7BA1D0" x="68" y="4" width="56" height="24"/> <!-- 25% desatured -->
        <text class="color-value dark" x="96" y="20">#7BA1D0</text>
        <text class="label" x="204" y="20">Accent colors</text>
      </g>
    </g>
  </g>
</svg>
