<?xml version="1.0" encoding="UTF-8" standalone="no"?>
<svg xmlns="http://www.w3.org/2000/svg" xmlns:xlink="http://www.w3.org/1999/xlink" viewBox="0 0 400 600">
  <defs>
    <style type="text/css">
      text               { font-family: Inter, sans-serif; font-size:10px; }
      .color-value       { font-family: DejaVu Sans Mono, mono; text-anchor: middle }
      .color-value.dark  { fill: #212121 }
      .color-value.light { fill: #E0E0E0 }
      .label             { font-weight: bold; text-anchor: start; fill: #212121 }
      .label-subline     { text-anchor: start; fill: #626262 }
    </style>
  </defs>

  <!-- Text colors -->

  <g>
    <rect style="fill:#212121" width="400" height="16"/>
    <rect style="fill:#424242" width="400" y="16" height="16"/>
    <rect style="fill:#E0E0E0" y="32" width="200" height="200"/>
    <rect style="fill:#BDBDBD" x="200" y="32" width="200" height="200"/>

    <g style="font-weight:bold;text-anchor:middle">
      <text style="fill:#E0E0E0" x="200" y="11">Text colors</text>
    </g>
    <g transform="translate(4,4)">
      <g transform="translate(0,32)">
        <rect style="fill:#303030" x="4" y="4" width="56" height="24"/>
        <text class="color-value light" x="32" y="20">#303030</text>
        <text class="label" x="204" y="20">View, menu and field text</text>
      </g>
      <g transform="translate(0,64)">
        <rect style="fill:#484848" x="4" y="4" width="56" height="24"/>
        <text class="color-value light" x="32" y="20">#484848</text>
        <text class="label" x="204" y="13">Button text</text>
        <text class="label-subline" x="204" y="25">also table headers</text>
      </g>
      <g transform="translate(0,96)">
        <rect style="fill:#606060" x="4" y="4" width="56" height="24"/>
        <text class="color-value light" x="32" y="20">#606060</text>
        <text class="label" x="204" y="13">Window text</text>
        <text class="label-subline" x="204" y="25">also active titlebar text</text>
      </g>
      <g transform="translate(0,128)">
        <!-- = #606060 with an opacity of 66.67% on #F0F0F0 -->
        <rect style="fill:#909090" x="4" y="4" width="56" height="24"/>
        <text class="color-value dark" x="32" y="20">#909090</text>
        <text class="label" x="204" y="13">Disabled text</text>
        <text class="label-subline" x="204" y="25">also inactive titlebar text</text>
      </g>

      <g transform="translate(0,160)">
        <rect style="fill:#1565C0" x="4" y="4" width="56" height="24"/> <!-- Blue 200 -->
        <text class="color-value light" x="32" y="20">#1565C0</text>
        <rect style="fill:#6A1B9A" x="68" y="4" width="56" height="24"/> <!-- Purple 800 -->
        <text class="color-value light" x="96" y="20">#6A1B9A</text>
        <text class="label" x="204" y="20">Link colors</text>
      </g>
      <g transform="translate(0,192)">
        <rect style="fill:#2E7D32" x="4" y="4" width="56" height="24"/> <!-- Green 800 -->
        <text class="color-value light" x="32" y="20">#2E7D32</text>
        <rect style="fill:#F9A825" x="68" y="4" width="56" height="24"/> <!-- Yellow 800 -->
        <text class="color-value light" x="96" y="20">#F9A825</text>
        <rect style="fill:#C62828" x="132" y="4" width="56" height="24"/> <!-- Red 800 -->
        <text class="color-value light" x="160" y="20">#C62828</text>
        <text class="label" x="204" y="20">Positive, neutral and negative text</text>
      </g>
    </g>
  </g>

  <!--Background colors -->

  <g transform="translate(0,232)">
    <rect style="fill:#212121" width="400" height="16"/>
    <rect style="fill:#424242" width="400" y="16" height="16"/>
    <rect style="fill:#757575" y="32" width="200" height="264"/>
    <rect style="fill:#BDBDBD" x="200" y="32" width="200" height="264"/>

    <g style="font-weight:bold;text-anchor:middle">
      <text style="fill:#E0E0E0" x="200" y="11">Background colors</text>
      <g style="fill:#BDBDBD" transform="translate(4,16)">
        <text x="32" y="11">Normal</text>
        <text x="96" y="11">Hover</text>   <!-- 12.5% darken -->
        <text x="160" y="11">Active</text> <!-- 25.0% darken -->
      </g>
    </g>
    <g transform="translate(4,4)">
      <g transform="translate(0,32)">
        <rect style="fill:#FFF" x="4" y="4" width="56" height="24"/>
        <text class="color-value" x="32" y="20">#FFF</text>
        <text class="label" x="204" y="20">View and menu background</text>
      </g>
      <g transform="translate(0,64)">
        <rect style="fill:#F4F4F4" x="4" y="4" width="56" height="24"/>
        <text class="color-value" x="32" y="20">#F4F4F4</text>
        <text class="label" x="204" y="20">Window background</text>
      </g>
      <g transform="translate(0,96)">
        <rect style="fill:#E8E8E8" x="4" y="4" width="56" height="24"/>
        <text class="color-value" x="32" y="20">#E8E8E8</text>
        <text class="label" x="204" y="20">Titlebar and dialog background</text>
      </g>
      <g transform="translate(0,128)">
        <rect style="fill:#D6D6D6" x="4" y="4" width="56" height="24"/>
        <text class="color-value" x="32" y="20">#D6D6D6</text>
        <text class="label" x="204" y="19">Borders</text>
      </g>
      <g transform="translate(0,160)">
        <rect style="fill:#D0D0D0" x="4" y="4" width="56" height="24"/>
        <text class="color-value" x="32" y="20">#DCDCDC</text>
        <text class="label" x="204" y="19">Text field background</text>
      </g>
      <g transform="translate(0,192)">
        <rect style="fill:#B8B8B8" x="4" y="4" width="56" height="24"/>
        <rect style="fill:#ACACAC" x="68" y="4" width="56" height="24"/>
        <rect style="fill:#ACACAC" x="132" y="4" width="56" height="24"/>
        <text class="color-value" x="32" y="20">#B8B8B8</text>
        <text class="color-value" x="96" y="20">#ACACAC</text>
        <text class="color-value" x="160" y="20">#A0A0A0</text>
        <text class="label" x="204" y="20">Button background</text>
      </g>
      <g transform="translate(0,224)">
        <rect style="fill:#303030" x="4" y="4" width="56" height="24"/>
        <text class="color-value light" x="32" y="20">#303030</text>
        <text class="label" x="204" y="20">Tooltip background</text>
      </g>
      <g transform="translate(0,256)">
        <rect style="fill:#9AB7DB" x="4" y="4" width="56" height="24"/>
        <text class="color-value dark" x="32" y="20">#9AB7DB</text>
        <text class="label" x="204" y="20">Selection background</text>
      </g>
    </g>
  </g>

  <!-- Accent colors -->

  <g transform="translate(0,528)">
    <rect style="fill:#212121" width="400" height="16"/>
    <rect style="fill:#424242" width="400" y="16" height="16"/>
    <rect style="fill:#E0E0E0" y="32" width="200" height="40"/>
    <rect style="fill:#BDBDBD" x="200" y="32" width="200" height="40"/>

    <g style="font-weight:bold;text-anchor:middle">
      <text style="fill:#E0E0E0" x="200" y="11">Accent colors</text>
    </g>

    <g transform="translate(4,4)">
      <g transform="translate(0,32)">
        <rect style="fill:#2670D0" x="4" y="4" width="56" height="24"/>
        <text class="color-value light" x="32" y="20">#2670D0</text>
        <text class="label" x="204" y="20">Accent color</text>
      </g>
    </g>
  </g>
</svg>
