<?xml version="1.0" encoding="UTF-8"?>
<svg xmlns="http://www.w3.org/2000/svg" viewBox="0 0 80 40">
  <defs>
    <style type="text/css" id="current-color-scheme">
      .ColorScheme-ViewBackground { color: #FFF }
    </style>
    <style type="text/css">
      .Hint { fill: #CA7921; fill-opacity: 0.5 }
    </style>
  </defs>
  <g transform="translate(4,4)">
    <g class="ColorScheme-ViewBackground" style="fill:currentColor;fill-opacity:0.5">
      <path id="base-topleft" d="m 0,4 a 4,4 0 0 1 4,-4 v 4"/>
      <rect id="base-top" x="4" width="64" height="4"/>
      <path id="base-topright" d="m 68,0 a 4,4 0 0 1 4,4 h -4"/>
      <rect id="base-left" y="4" width="4" height="24"/>
      <rect id="base-center" x="4" y="4" width="64" height="24"/>
      <rect id="base-right" x="68" y="4" width="4" height="24"/>
      <path id="base-bottomleft" d="m 0,28 a 4,4 0 0 0 4,4 v -4"/>
      <rect id="base-bottom" x="4" y="28" width="64" height="4"/>
      <path id="base-bottomright" d="m 68,28 v 4 a 4,4 0 0 0 4,-4"/>
    </g>
    <g class="Hint">
      <rect id="base-hint-top-margin" x="35" width="2" height="6"/>
      <rect id="base-hint-left-margin" y="15" width="12" height="2"/>
      <rect id="base-hint-right-margin" x="60" y="15" height="2" width="12"/>
      <rect id="base-hint-bottom-margin" x="35" y="26" width="2" height="6"/>
    </g>
  </g>
</svg>
