<?xml version="1.0" encoding="UTF-8"?>
<svg xmlns="http://www.w3.org/2000/svg" viewBox="0 0 32 64">
  <defs>
    <style type="text/css" id="current-color-scheme">
      .ColorScheme-ViewText { color: #303030 }
    </style>
  </defs>

  <!-- Surface -->

  <g class="ColorScheme-ViewText" style="fill:currentColor">
    <g>
      <g style="fill-opacity:0.0625">
        <rect id="header-topleft" x="4" y="4" width="4" height="4"/>
        <rect id="header-top" x="8" y="4" width="16" height="4"/>
        <rect id="header-topright" x="24" y="4" width="4" height="4"/>
        <rect id="header-left" x="4" y="8" width="4" height="16"/>
        <rect id="header-center" x="8" y="8" width="16" height="16"/>
        <rect id="header-right" x="24" y="8" width="4" height="16"/>
      </g>
      <g id="header-bottomleft" transform="translate(4,24)">
        <rect style="fill-opacity:0.0625" width="4" height="3"/>
        <rect style="fill-opacity:0.25" y="3" width="4" height="1"/>
      </g>
      <g id="header-bottom" transform="translate(8,24)">
        <rect style="fill-opacity:0.0625" width="16" height="3"/>
        <rect style="fill-opacity:0.25" y="3" width="16" height="1"/>
      </g>
      <g id="header-bottomright" transform="translate(24,24)">
        <rect style="fill-opacity:0.0625" width="4" height="3"/>
        <rect style="fill-opacity:0.25" y="3" width="4" height="1"/>
      </g>
    </g>
    <g transform="translate(0,32)">
      <g id="footer-topleft" transform="translate(4,4)">
        <rect style="fill-opacity:0.25" width="4" height="1"/>
        <rect style="fill-opacity:0.0625" y="1" width="4" height="3"/>
      </g>
      <g id="footer-top" transform="translate(8,4)">
        <rect style="fill-opacity:0.25" width="16" height="1"/>
        <rect style="fill-opacity:0.0625" y="1" width="16" height="3"/>
      </g>
      <g id="footer-topright" transform="translate(24,4)">
        <rect style="fill-opacity:0.25" width="4" height="1"/>
        <rect style="fill-opacity:0.0625" y="1" width="4" height="3"/>
      </g>
      <g style="fill-opacity:0.0625">
        <rect id="footer-left" x="4" y="8" width="4" height="16"/>
        <rect id="footer-center" x="8" y="8" width="16" height="16"/>
        <rect id="footer-right" x="24" y="8" width="4" height="16"/>
        <rect id="footer-bottomleft" x="4" y="24" width="4" height="4"/>
        <rect id="footer-bottom" x="8" y="24" width="16" height="4"/>
        <rect id="footer-bottomright" x="24" y="24" width="4" height="4"/>
      </g>
    </g>
  </g>
</svg>
