<?xml version="1.0" encoding="UTF-8"?>
<svg xmlns="http://www.w3.org/2000/svg" viewBox="0 0 24 56">
  <defs>
    <style type="text/css" id="current-color-scheme">
      .ColorScheme-ViewText { color: #303030 }
    </style>
  </defs>

  <!-- Surface -->

  <g class="ColorScheme-ViewText" style="fill:currentColor">
    <g>
      <g style="fill-opacity:0.0625">
        <path id="header-topleft" d="m 6,0 a 6,6 0 0 0 -6,6 h 6"/>
        <rect id="header-top" x="6" width="12" height="6"/>
        <path id="header-topright" transform="translate(18)" d="m 0,0 v 6 h 6 a 6,6 0 0 0 -6,-6"/>
        <rect id="header-left" y="6" width="6" height="12"/>
        <rect id="header-center" x="6" y="6" width="12" height="12"/>
        <rect id="header-right" x="18" y="6" width="6" height="12"/>
      </g>
      <g id="header-bottomleft" transform="translate(0,18)">
        <rect style="fill-opacity:0.0625" width="6" height="5"/>
        <rect style="fill-opacity:0.25" y="5" width="6" height="1"/>
      </g>
      <g id="header-bottom" transform="translate(6,18)">
        <rect style="fill-opacity:0.0625" width="12" height="5"/>
        <rect style="fill-opacity:0.25" y="5" width="12" height="1"/>
      </g>
      <g id="header-bottomright" transform="translate(18,18)">
        <rect style="fill-opacity:0.0625" width="6" height="5"/>
        <rect style="fill-opacity:0.25" y="5" width="6" height="1"/>
      </g>
    </g>
    <g transform="translate(0,32)">
      <g id="footer-topleft">
        <rect style="fill-opacity:0.25" width="6" height="1"/>
        <rect style="fill-opacity:0.0625" y="1" width="6" height="5"/>
      </g>
      <g id="footer-top" transform="translate(6)">
        <rect style="fill-opacity:0.25" width="12" height="1"/>
        <rect style="fill-opacity:0.0625" y="1" width="12" height="5"/>
      </g>
      <g id="footer-topright" transform="translate(18)">
        <rect style="fill-opacity:0.25" width="6" height="1"/>
        <rect style="fill-opacity:0.0625" y="1" width="6" height="5"/>
      </g>
      <g style="fill-opacity:0.0625">
        <rect id="footer-left" y="6" width="6" height="12"/>
        <rect id="footer-center" x="6" y="6" width="12" height="12"/>
        <rect id="footer-right" x="18" y="6" width="6" height="12"/>
        <path id="footer-bottomleft" transform="translate(0,18)" d="m 0,0 a 6,6 0 0 0 6,6 v -6"/>
        <rect id="footer-bottom" x="6" y="18" width="12" height="6"/>
        <path id="footer-bottomright" transform="translate(18,18)" d="m 0,0 v 6 a 6,6 0 0 0 6,-6"/>
      </g>
    </g>
  </g>
</svg>
