<?xml version="1.0" encoding="UTF-8"?>
<svg xmlns="http://www.w3.org/2000/svg" viewBox="0 0 80 80">
  <defs>
    <style type="text/css" id="current-color-scheme">
      .ColorScheme-Text { color: #606060 }
    </style>
    <style type="text/css">
      .Hint { fill: #DFAF59; fill-opacity: 0.5 }
    </style>
  </defs>

  <g class="ColorScheme-Text" style="fill:currentColor">
    <g transform="translate(4,4)">
      <g style="fill-opacity:0.0625">
        <path id="header-topleft" d="m 6,0 a 6,6 0 0 0 -6,6 h 6"/>
        <rect id="header-top" x="6" width="60" height="6"/>
        <path id="header-topright" d="m 66,0 v 6 h 6 a 6,6 0 0 0 -6,-6"/>
        <rect id="header-left" y="6" width="6" height="20"/>
        <rect id="header-center" x="6" y="6" width="60" height="20"/>
        <rect id="header-right" x="66" y="6" width="6" height="20"/>
      </g>
      <g id="header-bottomleft" transform="translate(0,26)">
        <rect style="fill-opacity:0.0625" width="6" height="5"/>
        <rect style="fill-opacity:0.125" y="5" width="6" height="1"/>
      </g>
      <g id="header-bottom" transform="translate(6,26)">
        <rect style="fill-opacity:0.0625" width="60" height="5"/>
        <rect style="fill-opacity:0.125" y="5" width="60" height="1"/>
      </g>
      <g id="header-bottomright" transform="translate(66,26)">
        <rect style="fill-opacity:0.0625" width="6" height="5"/>
        <rect style="fill-opacity:0.125" y="5" width="6" height="1"/>
      </g>
    </g>
    <g transform="translate(4,44)">
      <g id="footer-topleft">
        <rect style="fill-opacity:0.125" width="6" height="1"/>
        <rect style="fill-opacity:0.0625" y="1" width="6" height="5"/>
      </g>
      <g id="footer-top" transform="translate(6)">
        <rect style="fill-opacity:0.125" width="60" height="1"/>
        <rect style="fill-opacity:0.0625" y="1" width="60" height="5"/>
      </g>
      <g id="footer-topright" transform="translate(66)">
        <rect style="fill-opacity:0.125" width="6" height="1"/>
        <rect style="fill-opacity:0.0625" y="1" width="6" height="5"/>
      </g>
      <g style="fill-opacity:0.0625">
        <rect id="footer-left" y="6" width="6" height="20"/>
        <rect id="footer-center" x="6" y="6" width="60" height="20"/>
        <rect id="footer-right" x="66" y="6" width="6" height="20"/>
        <path id="footer-bottomleft" d="m 0,26 a 6,6 0 0 0 6,6 v -6"/>
        <rect id="footer-bottom" x="6" y="26" width="60" height="6"/>
        <path id="footer-bottomright" d="m 66,26 v 6 a 6,6 0 0 0 6,-6"/>
      </g>
    </g>
  </g>

  <!-- Hints -->

  <g class="Hint">
    <circle id="hint-stretch-borders" cx="2" cy="2" r="1"/>
    <rect id="hint-top-margin" x="39" y="4" width="2" height="6"/>
    <rect id="hint-bottom-margin" x="39" y="30" width="2" height="6"/>
    <rect id="hint-left-margin" x="4" y="19" width="6" height="2"/>
    <rect id="hint-right-margin" x="70" y="19" width="6" height="2"/>
  </g>
</svg>
