<?xml version="1.0" encoding="UTF-8" standalone="no"?>
<svg xmlns="http://www.w3.org/2000/svg" viewBox="0 0 48 32">
  <defs>
    <style type="text/css" id="current-color-scheme">
      .ColorScheme-Background { color: #F0F0F0 }
      .ColorScheme-ButtonFocus { color: #2670D0 }
      .ColorScheme-Text { color: #606060 }
      .ColorScheme-ViewText { color: #303030 }
    </style>
    <radialGradient id="slider-shadow" r="50%">
      <stop offset="0.85" style="stop-color:black;stop-opacity:0.125"/>
      <stop offset="1" style="stop-color:black;stop-opacity:0"/>
    </radialGradient>
  </defs>

  <!-- Groove -->

  <g class="ColorScheme-ViewText" style="fill:currentColor;fill-opacity:0.125" transform="translate(2,2)">
    <path id="groove-topleft" d="m 0,4 a 4,4 0 0 1 4,-4 v 4 z"/>
    <rect id="groove-top" x="4" width="12" height="4"/>
    <path id="groove-topright" d="m 16,0 a 4,4 0 0 1 4,4 h -4 z"/>
    <rect id="groove-left" y="4" width="4" height="4"/>
    <rect id="groove-center" x="4" y="4" width="12" height="4"/>
    <rect id="groove-right" x="16" y="4" width="4" height="4"/>
    <path id="groove-bottomleft" d="m 0,8 h 4 v 4 a 4,4 0 0 1 -4,-4 z"/>
    <rect id="groove-bottom" x="4" y="8" width="12" height="4"/>
    <path id="groove-bottomright" d="m 16,8 h 4 a 4,4 0 0 1 -4,4 v -4 z"/>
  </g>

  <g class="ColorScheme-ButtonFocus" style="fill:currentColor" transform="translate(2,18)">
    <path id="groove-highlight-topleft" d="m 0,4 a 4,4 0 0 1 4,-4 v 4 z"/>
    <rect id="groove-highlight-top" x="4" width="12" height="4"/>
    <path id="groove-highlight-topright" d="m 16,0 a 4,4 0 0 1 4,4 h -4 z"/>
    <rect id="groove-highlight-left" y="4" width="4" height="4"/>
    <rect id="groove-highlight-center" x="4" y="4" width="12" height="4"/>
    <rect id="groove-highlight-right" x="16" y="4" width="4" height="4"/>
    <path id="groove-highlight-bottomleft" d="m 0,8 h 4 v 4 a 4,4 0 0 1 -4,-4 z"/>
    <rect id="groove-highlight-bottom" x="4" y="8" width="12" height="4"/>
    <path id="groove-highlight-bottomright" d="m 16,8 h 4 a 4,4 0 0 1 -4,4 v -4 z"/>
  </g>

  <!-- Slider -->

  <g transform="translate(36,16)">
    <g id="vertical-slider-handle">
      <g id="horizontal-slider-handle">
        <circle style="fill:url(#slider-shadow)" r="10"/>
        <circle class="ColorScheme-Background" style="fill:currentColor" r="7"/>

        <path class="ColorScheme-Text" style="fill:currentColor"
              d="M 0,-8 a 8,8 0 0 0 0,16 a 8,8 0 0 0 0,-16 m 0,1 a 7,7 0 0 1 0,14 a 7,7 0 0 1 0,-14"/>
      </g>
    </g>
    <circle id="hint-handle-size" style="fill:none" r="8"/>
  </g>
</svg>
