<?xml version="1.0" encoding="UTF-8" standalone="no"?>
<svg xmlns="http://www.w3.org/2000/svg" viewBox="0 0 48 32">
  <defs>
    <style type="text/css" id="current-color-scheme">
      .ColorScheme-Background { color: #F0F0F0 }
      .ColorScheme-ButtonFocus { color: #2670D0 }
      .ColorScheme-Text { color: #606060 }
      .ColorScheme-ViewText { color: #303030 }
    </style>
    <radialGradient id="slider-shadow" r="50%">
      <stop offset="0.85" style="stop-color:black;stop-opacity:0.125"/>
      <stop offset="1" style="stop-color:black;stop-opacity:0"/>
    </radialGradient>
  </defs>

  <!-- Groove -->

  <g transform="translate(0,0)">
    <g class="ColorScheme-ViewText" style="fill:currentColor;fill-opacity:0.125">
      <g id="groove-topleft">
        <rect style="fill:none" width="6" height="6"/>
        <path d="m 2,6 a 4,4 0 0 1 4,-4 v 4 z"/>
      </g>
      <g id="groove-top" transform="translate(6)">
        <rect style="fill:none" width="12" height="6"/>
        <rect y="2" width="12" height="4"/>
      </g>
      <g id="groove-topright" transform="translate(18)">
        <rect style="fill:none" width="6" height="6"/>
        <path d="m 0,2 a 4,4 0 0 1 4,4 h -4 z"/>
      </g>
      <g id="groove-left" transform="translate(0,6)">
        <rect style="fill:none" width="6" height="6"/>
        <rect x="2" width="4" height="6"/>
      </g>
      <g id="groove-center" transform="translate(6,6)">
        <rect width="12" height="6"/>
      </g>
      <g id="groove-right" transform="translate(18,6)">
        <rect style="fill:none" width="6" height="6"/>
        <rect width="4" height="6"/>
      </g>
      <g id="groove-bottomleft" transform="translate(0,12)">
        <rect style="fill:none" width="6" height="6"/>
        <path d="m 2,0 h 4 v 4 a 4,4 0 0 1 -4,-4 z"/>
      </g>
      <g id="groove-bottom" transform="translate(6,12)">
        <rect style="fill:none" width="12" height="6"/>
        <rect width="12" height="4"/>
      </g>
      <g id="groove-bottomright" transform="translate(18,12)">
        <rect style="fill:none" width="6" height="6"/>
        <path d="m 0,0 h 4 a 4,4 0 0 1 -4,4 v -4 z"/>
      </g>
    </g>
  </g>

  <g transform="translate(0,16)">
    <g class="ColorScheme-ButtonFocus" style="fill:currentColor">
      <g id="groove-highlight-topleft">
        <rect style="fill:none" width="6" height="6"/>
        <path d="m 2,6 a 4,4 0 0 1 4,-4 v 4 z"/>
      </g>
      <g id="groove-highlight-top" transform="translate(6)">
        <rect style="fill:none" width="12" height="6"/>
        <rect id="groove-highlight-top" y="2" width="12" height="4"/>
      </g>
      <g id="groove-highlight-topright" transform="translate(18)">
        <rect style="fill:none" width="6" height="6"/>
        <path d="m 0,2 a 4,4 0 0 1 4,4 h -4 z"/>
      </g>
      <g id="groove-highlight-left" transform="translate(0,6)">
        <rect style="fill:none" width="6" height="6"/>
        <rect x="2" width="4" height="6"/>
      </g>
      <g id="groove-highlight-center" transform="translate(6,6)">
        <rect width="12" height="6"/>
      </g>
      <g id="groove-highlight-right" transform="translate(18,6)">
        <rect style="fill:none" width="6" height="6"/>
        <rect width="4" height="6"/>
      </g>
      <g id="groove-highlight-bottomleft" transform="translate(0,12)">
        <rect style="fill:none" width="6" height="6"/>
        <path d="m 2,0 h 4 v 4 a 4,4 0 0 1 -4,-4 z"/>
      </g>
      <g id="groove-highlight-bottom" transform="translate(6,12)">
        <rect style="fill:none" width="12" height="6"/>
        <rect width="12" height="4"/>
      </g>
      <g id="groove-highlight-bottomright" transform="translate(18,12)">
        <rect style="fill:none" width="6" height="6"/>
        <path d="m 0,0 h 4 a 4,4 0 0 1 -4,4 v -4 z"/>
      </g>
    </g>
  </g>

  <!-- Slider -->

  <g transform="translate(36,16)">
    <g id="vertical-slider-handle">
      <g id="horizontal-slider-handle">
        <circle style="fill:url(#slider-shadow)" r="10"/>
        <circle class="ColorScheme-Background" style="fill:currentColor" r="7"/>

        <path class="ColorScheme-Text" style="fill:currentColor"
              d="M 0,-8 a 8,8 0 0 0 0,16 a 8,8 0 0 0 0,-16 m 0,1 a 7,7 0 0 1 0,14 a 7,7 0 0 1 0,-14"/>
      </g>
    </g>
    <rect id="hint-handle-size" style="fill:none" x="-10" y="-10" width="20" height="20"/>
  </g>
</svg>
