<?xml version="1.0" encoding="UTF-8"?>
<svg xmlns="http://www.w3.org/2000/svg" viewBox="0 0 24 24">
  <defs>
    <style type="text/css">
      .BarActive { fill: #2670D0 }
      .BarInactive { fill: #F0F0F0; fill-opacity: 0.125 }
    </style>
  </defs>
  <g transform="translate(2,0)">
    <g class="BarInactive">
      <path id="bar-inactive-topleft" d="m 0,4 a 4,4 0 0 1 4,-4 v 4 z"/>
      <path id="bar-inactive-topright" d="m 4,0 a 4,4 0 0 1 4,4 h -4 z"/>
      <rect id="bar-inactive-left" y="4" width="4" height="16"/>
      <rect id="bar-inactive-right" x="4" y="4" width="4" height="16"/>
      <path id="bar-inactive-bottomleft" d="m 0,20 h 4 v 4 a 4,4 0 0 1 -4,-4 z"/>
      <path id="bar-inactive-bottomright" d="m 4,20 h 4 a 4,4 0 0 1 -4,4 v -4 z"/>
    </g>
    <g style="fill:none">
      <rect id="bar-inactive-top" x="4" width="0.01" height="4"/>
      <rect id="bar-inactive-center" x="4" y="4" width="0.01" height="16"/>
      <rect id="bar-inactive-bottom" x="4" y="20" width="0.01" height="4"/>
    </g>
  </g>
  <g transform="translate(14,0)">
    <g class="BarActive">
      <path id="bar-active-topleft" d="m 0,4 a 4,4 0 0 1 4,-4 v 4 z"/>
      <path id="bar-active-topright" d="m 4,0 a 4,4 0 0 1 4,4 h -4 z"/>
      <rect id="bar-active-left" y="4" width="4" height="16"/>
      <rect id="bar-active-right" x="4" y="4" width="4" height="16"/>
      <path id="bar-active-bottomleft" d="m 0,20 h 4 v 4 a 4,4 0 0 1 -4,-4 z"/>
      <path id="bar-active-bottomright" d="m 4,20 h 4 a 4,4 0 0 1 -4,4 v -4 z"/>
    </g>
    <g style="fill:none">
      <rect id="bar-active-top" x="4" y="1" width="0.01" height="4"/>
      <rect id="bar-active-center" x="4" y="4" width="0.01" height="16"/>
      <rect id="bar-active-bottom" x="4" y="20" width="0.01" height="4"/>
    </g>
  </g>
</svg>
