<?xml version="1.0" encoding="UTF-8"?>
<svg xmlns="http://www.w3.org/2000/svg" viewBox="0 0 40 28">
  <g style="fill:#F0F0F0;fill-opacity: 0.125">
    <path id="base-topleft" d="m 0,4 a 4,4 0 0 1 4,-4 h 8 v 6 h -12 z"/>
    <rect id="base-top" x="12" width="16" height="6"/>
    <path id="base-topright" d="m 28,0 h 8 a 4,4 0 0 1 4,4 v 2 h -12 z"/>
    <rect id="base-left" y="6" width="12" height="16"/>
    <rect id="base-center" x="12" y="6" width="16" height="16"/>
    <rect id="base-right" x="28" y="6" width="12" height="16"/>
    <path id="base-bottomleft" d="m 0,22 h 12 v 6 h -8 a 4,4 0 0 1 -4,-4 z"/>
    <rect id="base-bottom" x="12" y="22" width="16" height="6"/>
    <path id="base-bottomright" d="m 28,22 h 12 v 2 a 4,4 0 0 1 -4,4 h -8 z"/>
  </g>
</svg>
