<?xml version="1.0" encoding="UTF-8"?>
<svg xmlns="http://www.w3.org/2000/svg" viewBox="0 0 24 56">
  <defs>
    <style type="text/css">
      .Background { fill: #303030; fill-opacity: 0.375 }
      .Border { fill: black; fill-opacity: 0.25 }
    </style>
  </defs>

  <!-- Surface -->

  <g>
    <g class="Background">
      <path id="header-topleft" d="m 4,0 a 4,4 0 0 0 -4,4 v 2 h 6 v -6"/>
      <rect id="header-top" x="6" width="12" height="6"/>
      <path id="header-topright" transform="translate(18)" d="m 0,0 v 6 h 6 v -2 a 4,4 0 0 0 -4,-4"/>
      <rect id="header-left" y="6" width="6" height="12"/>
      <rect id="header-center" x="6" y="6" width="12" height="12"/>
      <rect id="header-right" x="18" y="6" width="6" height="12"/>
    </g>
    <g id="header-bottomleft" transform="translate(0,18)">
      <rect class="Background" width="6" height="5"/>
      <rect class="Border" y="5" width="6" height="1"/>
    </g>
    <g id="header-bottom" transform="translate(6,18)">
      <rect class="Background" width="12" height="5"/>
      <rect class="Border" y="5" width="12" height="1"/>
    </g>
    <g id="header-bottomright" transform="translate(18,18)">
      <rect class="Background" width="6" height="5"/>
      <rect class="Border" y="5" width="6" height="1"/>
    </g>
  </g>

  <g transform="translate(0,32)">
    <g id="footer-topleft">
      <rect class="Border" width="6" height="1"/>
      <rect class="Background" y="1" width="6" height="5"/>
    </g>
    <g id="footer-top" transform="translate(6)">
      <rect class="Border" width="12" height="1"/>
      <rect class="Background" y="1" width="12" height="5"/>
    </g>
    <g id="footer-topright" transform="translate(18)">
      <rect class="Border" width="6" height="1"/>
      <rect class="Background" y="1" width="6" height="5"/>
    </g>
    <g class="Background">
      <rect id="footer-left" y="6" width="6" height="12"/>
      <rect id="footer-center" x="6" y="6" width="12" height="12"/>
      <rect id="footer-right" x="18" y="6" width="6" height="12"/>
      <path id="footer-bottomleft" transform="translate(0,18)" d="m 0,0 v 2 a 4,4 0 0 0 4,4 h 2 v -6"/>
      <rect id="footer-bottom" x="6" y="18" width="12" height="6"/>
      <path id="footer-bottomright" transform="translate(18,18)" d="m 0,0 v 6 h 2 a 4,4 0 0 0 4,-4 v -2"/>
    </g>
  </g>

  <!-- Hints -->

  <g style="fill:#B0BEC5">
    <rect id="hint-stretch-borders"/>
    <rect id="hint-top-margin" x="11" width="2" height="6"/>
    <rect id="hint-bottom-margin" x="11" y="18" width="2" height="6"/>
    <rect id="hint-left-margin" y="11" width="6" height="2"/>
    <rect id="hint-right-margin" x="18" y="11" width="6" height="2"/>
  </g>
</svg>
