<?xml version="1.0" encoding="UTF-8" standalone="no"?>
<svg xmlns="http://www.w3.org/2000/svg" viewBox="0 0 48 28">
  <defs>
    <style type="text/css">
      .Groove { fill: #F0F0F0; fill-opacity: 0.125 }
      .GrooveHighlight { fill: #2670D0 }
      .SliderHandleBackground { fill: #C0C0C0 }
      .SliderHandleBorderTop { fill: #F0F0F0; fill-opacity: 0.125 }
    </style>
    <radialGradient id="slider-shadow" r="50%">
      <stop offset="0.85" style="stop-color:black;stop-opacity:0.125"/>
      <stop offset="1" style="stop-color:black;stop-opacity:0"/>
    </radialGradient>
  </defs>

  <!-- Surface and shadow -->

  <g transform="translate(24,10)">
    <g class="Groove">
      <path id="groove-topleft" d="m 0,4 a 4,4 0 0 1 4,-4 v 4 z"/>
      <rect id="groove-top" x="4" width="16" height="4"/>
      <path id="groove-topright" d="m 20,0 a 4,4 0 0 1 4,4 h -4 z"/>
      <path id="groove-bottomleft" d="m 0,4 h 4 v 4 a 4,4 0 0 1 -4,-4 z"/>
      <rect id="groove-bottom" x="4" y="4" width="16" height="4"/>
      <path id="groove-bottomright" d="m 20,4 h 4 a 4,4 0 0 1 -4,4 v -4 z"/>
    </g>
    <g style="fill:none">
      <rect id="groove-left" y="4" width="4" height="0.01"/>
      <rect id="groove-center" x="4" y="4" width="16" height="0.01"/>
      <rect id="groove-right" x="20" y="4" width="4" height="0.01"/>
    </g>
  </g>
  <g transform="translate(0,10)">
    <g class="GrooveHighlight">
      <path id="groove-highlight-topleft" d="m 0,4 a 4,4 0 0 1 4,-4 v 4 z"/>
      <rect id="groove-highlight-top" x="4" y="0" width="16" height="4"/>
      <path id="groove-highlight-topright" d="m 20,0 a 4,4 0 0 1 4,4 h -4 z"/>
      <path id="groove-highlight-bottomleft" d="m 0,4 h 4 v 4 a 4,4 0 0 1 -4,-4 z"/>
      <rect id="groove-highlight-bottom" x="4" y="4" width="16" height="4"/>
      <path id="groove-highlight-bottomright" d="m 20,4 h 4 a 4,4 0 0 1 -4,4 v -4 z"/>
    </g>
    <g style="fill:none">
      <rect id="groove-highlight-left" y="4" width="4" height="0.01"/>
      <rect id="groove-highlight-center" x="4" y="4" width="16" height="0.01"/>
      <rect id="groove-highlight-right" x="20" y="4" width="4" height="0.01"/>
    </g>
  </g>

  <g id="horizontal-slider-shadow" transform="translate(24,14)">
    <g id="vertical-slider-shadow">
      <circle style="fill:url(#slider-shadow)" r="10"/>
    </g>
  </g>

  <g id="horizontal-slider-handle" transform="translate(24,14)">
    <g id="vertical-slider-handle">
      <circle class="SliderHandleBackground" r="8"/>
      <path class="SliderHandleBorderTop" d="m -8,0 a 8,8 0 0 1 16,0 a 8,7 0 0 0 -16,0 z"/>
    </g>
  </g>

  <!-- Hints -->

  <g id="hints" style="fill:#B0BEC5" transform="translate(-24,14)">
    <circle id="hint-handle-size" r="8"/>
  </g>
</svg>
