<?xml version="1.0" encoding="UTF-8"?>
<svg xmlns="http://www.w3.org/2000/svg" viewBox="0 0 90 90">
  <defs>
    <style type="text/css">
      .WindowBackground { fill: #31302F; fill-opacity: 0.75 }
      .BorderTop { fill: #F0F0F0; fill-opacity: 0.125 }
      .BorderBottom { fill: black; fill-opacity: 0.125 }
      .WhiteOverlayTransparancy { fill: white; fill-opacity: 0.12 } /* 12% white overlay transparancy -> elevation = 8dp */
    </style>
    <radialGradient id="ambient-light-shadow-topleft" cx="28" cy="28" r="32" gradientUnits="userSpaceOnUse">
      <stop offset="0.125" style="stop-color:black;stop-opacity:0.0625"/>
      <stop offset="0.875" style="stop-color:black;stop-opacity:0"/>
    </radialGradient>
    <linearGradient id="ambient-light-shadow-top" x1="0" y1="100%" x2="0" y2="0%">
      <stop offset="0" style="stop-color:black;stop-opacity:0.0625"/>
      <stop offset="1" style="stop-color:black;stop-opacity:0"/>
    </linearGradient>
    <radialGradient id="ambient-light-shadow-topright" cx="2" cy="28" r="32" gradientUnits="userSpaceOnUse">
      <stop offset="0.125" style="stop-color:black;stop-opacity:0.0625"/>
      <stop offset="0.875" style="stop-color:black;stop-opacity:0"/>
    </radialGradient>
    <linearGradient id="ambient-light-shadow-left" x1="100%" y1="0" x2="0%" y2="0">
      <stop offset="0" style="stop-color:black;stop-opacity:0.0625"/>
      <stop offset="1" style="stop-color:black;stop-opacity:0"/>
    </linearGradient>
    <linearGradient id="ambient-light-shadow-right" x1="0%" y1="0" x2="100%" y2="0">
      <stop offset="0" style="stop-color:black;stop-opacity:0.0625"/>
      <stop offset="1" style="stop-color:black;stop-opacity:0"/>
    </linearGradient>
    <radialGradient id="ambient-light-shadow-bottomleft" cx="28" cy="2" r="32" gradientUnits="userSpaceOnUse">
      <stop offset="0.125" style="stop-color:black;stop-opacity:0.0625"/>
      <stop offset="0.875" style="stop-color:black;stop-opacity:0"/>
    </radialGradient>
    <linearGradient id="ambient-light-shadow-bottom" x1="0" y1="0%" x2="0" y2="100%">
      <stop offset="0" style="stop-color:black;stop-opacity:0.0625"/>
      <stop offset="1" style="stop-color:black;stop-opacity:0"/>
    </linearGradient>
    <radialGradient id="ambient-light-shadow-bottomright" cx="2" cy="2" r="32" gradientUnits="userSpaceOnUse">
      <stop offset="0.125" style="stop-color:black;stop-opacity:0.0625"/>
      <stop offset="0.875" style="stop-color:black;stop-opacity:0"/>
    </radialGradient>
    <radialGradient id="key-light-shadow-topleft" cx="28" cy="36" r="16" gradientUnits="userSpaceOnUse">
      <stop offset="0.2" style="stop-color:black;stop-opacity:0.1875"/>
      <stop offset="1" style="stop-color:black;stop-opacity:0"/>
    </radialGradient>
    <linearGradient id="key-light-shadow-top" x1="0" y1="36" x2="0" y2="20" gradientUnits="userSpaceOnUse">
      <stop offset="0.25" style="stop-color:black;stop-opacity:0.1875"/>
      <stop offset="1" style="stop-color:black;stop-opacity:0"/>
    </linearGradient>
    <radialGradient id="key-light-shadow-topright" cx="2" cy="36" r="16" gradientUnits="userSpaceOnUse">
      <stop offset="0.25" style="stop-color:black;stop-opacity:0.1875"/>
      <stop offset="1" style="stop-color:black;stop-opacity:0"/>
    </radialGradient>
    <linearGradient id="key-light-shadow-left" x1="28" y1="0" x2="12" y2="0" gradientUnits="userSpaceOnUse">
      <stop offset="0.2" style="stop-color:black;stop-opacity:0.1875"/>
      <stop offset="1" style="stop-color:black;stop-opacity:0"/>
    </linearGradient>
    <linearGradient id="key-light-shadow-right" x1="2" y1="0" x2="18" y2="0" gradientUnits="userSpaceOnUse">
      <stop offset="0.25" style="stop-color:black;stop-opacity:0.1875"/>
      <stop offset="1" style="stop-color:black;stop-opacity:0"/>
    </linearGradient>
    <radialGradient id="key-light-shadow-bottomleft" cx="28" cy="2" r="16" gradientUnits="userSpaceOnUse">
      <stop offset="0.25" style="stop-color:black;stop-opacity:0.1875"/>
      <stop offset="1" style="stop-color:black;stop-opacity:0"/>
    </radialGradient>
    <linearGradient id="key-light-shadow-bottom" x1="0" y1="2" x2="0" y2="18" gradientUnits="userSpaceOnUse">
      <stop offset="0.2" style="stop-color:black;stop-opacity:0.1875"/>
      <stop offset="1" style="stop-color:black;stop-opacity:0"/>
    </linearGradient>
    <radialGradient id="key-light-shadow-bottomright" cx="2" cy="2" r="16" gradientUnits="userSpaceOnUse">
      <stop offset="0.25" style="stop-color:black;stop-opacity:0.1875"/>
      <stop offset="1" style="stop-color:black;stop-opacity:0"/>
    </radialGradient>
  </defs>

  <!-- Shadow -->

  <g id="shadow-topleft">
    <rect style="fill:none" width="30" height="36"/>
    <rect style="fill:url(#ambient-light-shadow-top)" x="28" width="2" height="24"/>
    <rect style="fill:url(#ambient-light-shadow-left)" y="28" width="24" height="8"/>
    <path style="fill:url(#ambient-light-shadow-topleft)" d="m 0,0 v 28 h 24 a 4,4 0 0 1 4,-4 v -24"/>
    <path style="fill:url(#key-light-shadow-topleft)" d="m 0,0 v 36 h 24 v -8 a 4,4 0 0 1 4,-4 h 2 v -24"/>
  </g>
  <g id="shadow-top" transform="translate(30)">
    <rect style="fill:none" width="30" height="30"/>
    <rect style="fill:url(#ambient-light-shadow-top)" width="30" height="24"/>
    <rect style="fill:url(#key-light-shadow-top)" width="30" height="24"/>
  </g>
  <g id="shadow-topright" transform="translate(60)">
    <rect style="fill:none" width="30" height="36"/>
    <rect style="fill:url(#ambient-light-shadow-top)" width="2" height="24"/>
    <rect style="fill:url(#ambient-light-shadow-right)" x="6" y="28" width="24" height="8"/>
    <path style="fill:url(#ambient-light-shadow-topright)" d="m 2,0 v 24 a 4,4 0 0 1 4,4 h 24 v -28"/>
    <path style="fill:url(#key-light-shadow-topright)" d="m 0,0 v 24 h 2 a 4,4 0 0 1 4,4 v 8 h 24 v -36"/>
  </g>
  <g id="shadow-left" transform="translate(0,36)">
    <rect style="fill:none" width="30" height="24"/>
    <rect style="fill:url(#ambient-light-shadow-left)" width="24" height="24"/>
    <rect style="fill:url(#key-light-shadow-left)" width="24" height="24"/>
  </g>
  <g id="shadow-right" transform="translate(60,36)">
    <rect style="fill:none" width="30" height="24"/>
    <rect style="fill:url(#ambient-light-shadow-right)" x="6" width="24" height="24"/>
    <rect style="fill:url(#key-light-shadow-right)" x="6" width="24" height="24"/>
  </g>
  <g id="shadow-bottomleft" transform="translate(0,60)">
    <rect style="fill:none" width="30" height="30"/>
    <rect style="fill:url(#ambient-light-shadow-left)" width="24" height="2"/>
    <rect style="fill:url(#ambient-light-shadow-bottom)" x="28" y="6" width="2" height="24"/>
    <path style="fill:url(#ambient-light-shadow-bottomleft)" d="m 0,2 v 28 h 28 v -24 a 4,4 0 0 1 -4,-4"/>
    <rect style="fill:url(#key-light-shadow-left)" width="24" height="2"/>
    <rect style="fill:url(#key-light-shadow-bottom)" x="28" y="6" width="2" height="24"/>
    <path style="fill:url(#key-light-shadow-bottomleft)" d="m 0,2 v 28 h 28 v -24 a 4,4 0 0 1 -4,-4"/>
  </g>
  <g id="shadow-bottom" transform="translate(30,60)">
    <rect style="fill:none" width="30" height="30"/>
    <rect style="fill:url(#ambient-light-shadow-bottom)" y="6" width="30" height="24"/>
    <rect style="fill:url(#key-light-shadow-bottom)" y="6" width="30" height="24"/>
  </g>
  <g id="shadow-bottomright" transform="translate(60,60)">
    <rect style="fill:none" width="30" height="30"/>
    <rect style="fill:url(#ambient-light-shadow-right)" x="6" width="24" height="2"/>
    <rect style="fill:url(#ambient-light-shadow-bottom)" y="6" width="2" height="24"/>
    <path style="fill:url(#ambient-light-shadow-bottomright)" d="m 6,2 a 4,4 0 0 1 -4,4 v 24 h 28 v -28"/>
    <rect style="fill:url(#key-light-shadow-right)" x="6" width="24" height="2"/>
    <rect style="fill:url(#key-light-shadow-bottom)" y="6" width="2" height="24"/>
    <path style="fill:url(#key-light-shadow-bottomright)" d="m 6,2 a 4,4 0 0 1 -4,4 v 24 h 28 v -28"/>
  </g>

  <!-- Surface -->

  <g id="topleft" transform="translate(24,24)">
    <path class="WindowBackground" d="m 4,0 a 4,4 0 0 0 -4,4 v 2 h 6 v -6"/>
    <path class="WhiteOverlayTransparancy" d="m 4,0 a 4,4 0 0 0 -4,4 v 2 h 6 v -6"/>
    <path class="BorderTop" d="m 4,0 a 4,4 0 0 0 -4,4 a 4,3 0 0 1 4,-3 h 2 v -1"/>
  </g>
  <g id="top" transform="translate(30,24)">
    <rect class="WindowBackground" width="30" height="6"/>
    <rect class="WhiteOverlayTransparancy" width="30" height="6"/>
    <rect class="BorderTop" width="30" height="1"/>
  </g>
  <g id="topright" transform="translate(60,24)">
    <path class="WindowBackground" d="m 0,0 v 6 h 6 v -2 a 4,4 0 0 0 -4,-4"/>
    <path class="WhiteOverlayTransparancy" d="m 0,0 v 6 h 6 v -2 a 4,4 0 0 0 -4,-4"/>
    <path class="BorderTop" d="m 0,0 v 1 h 2 a 4,3 0 0 1 4,3 a 4,4 0 0 0 -4,-4"/>
  </g>
  <g id="left" transform="translate(24,30)">
    <rect class="WindowBackground" width="6" height="30"/>
    <rect class="WhiteOverlayTransparancy" width="6" height="30"/>
  </g>
  <g id="center" transform="translate(30,30)">
    <rect class="WindowBackground" width="30" height="30"/>
    <rect class="WhiteOverlayTransparancy" width="30" height="30"/>
  </g>
  <g id="right" transform="translate(60,30)">
    <rect class="WindowBackground" width="6" height="30"/>
    <rect class="WhiteOverlayTransparancy" width="6" height="30"/>
  </g>
  <g id="bottomleft" transform="translate(24,60)">
    <path class="WindowBackground" d="m 0,0 v 2 a 4,4 0 0 0 4,4 h 2 v -6"/>
    <path class="WhiteOverlayTransparancy" d="m 0,0 v 2 a 4,4 0 0 0 4,4 h 2 v -6"/>
    <path class="BorderBottom" d="m 0,2 a 4,4 0 0 0 4,4 h 2 v -1 h -2 a 4,3 0 0 1 -4,-3"/>
  </g>
  <g id="bottom" transform="translate(30,60)">
    <rect class="WindowBackground" width="30" height="6"/>
    <rect class="WhiteOverlayTransparancy" width="30" height="6"/>
    <rect class="BorderBottom" y="5" width="30" height="1"/>
  </g>
  <g id="bottomright" transform="translate(60,60)">
    <path class="WindowBackground" d="m 0,0 v 6 h 2 a 4,4 0 0 0 4,-4 v -2"/>
    <path class="WhiteOverlayTransparancy" d="m 0,0 v 6 h 2 a 4,4 0 0 0 4,-4 v -2"/>
    <path class="BorderBottom" d="m 0,5 v 1 h 2 a 4,4 0 0 0 4,-4 a 4,3 0 0 1 -4,3"/>
  </g>

  <!-- Hints -->

  <g style="fill:#B0BEC5">
    <rect id="hint-stretch-borders"/>
    <rect id="hint-no-border-padding"/>

    <rect id="hint-top-margin" x="43" y="24" width="4" height="6"/>
    <rect id="hint-bottom-margin" x="43" y="60" width="4" height="6"/>
    <rect id="hint-left-margin" x="24" y="43" width="6" height="4"/>
    <rect id="hint-right-margin" x="60" y="43" width="6" height="4"/>

    <g style="fill-opacity:0.5">
      <rect id="shadow-hint-top-margin" x="43" width="4" height="24"/>
      <rect id="shadow-hint-bottom-margin" x="43" y="66" width="4" height="24"/>
      <rect id="shadow-hint-left-margin" y="43" width="24" height="4"/>
      <rect id="shadow-hint-right-margin" x="66" y="43" width="24" height="4"/>
    </g>
  </g>
</svg>
