<?xml version="1.0" encoding="UTF-8"?>
<svg xmlns="http://www.w3.org/2000/svg" viewBox="0 0 96 96">
  <defs>
    <style type="text/css">
      .WindowBackground { fill: #31302F; fill-opacity: 0.75 }
      .BorderTop { fill: #F0F0F0; fill-opacity: 0.125 }
      .BorderBottom { fill: black; fill-opacity: 0.25 }
    </style>
    <radialGradient id="ambient-light-shadow-topleft" cx="28" cy="28" r="32" gradientUnits="userSpaceOnUse">
      <stop offset="0.125" style="stop-color:black;stop-opacity:0.0625"/>
      <stop offset="0.875" style="stop-color:black;stop-opacity:0"/>
    </radialGradient>
    <linearGradient id="ambient-light-shadow-top" x1="0" y1="100%" x2="0" y2="0%">
      <stop offset="0" style="stop-color:black;stop-opacity:0.0625"/>
      <stop offset="1" style="stop-color:black;stop-opacity:0"/>
    </linearGradient>
    <radialGradient id="ambient-light-shadow-topright" cx="0" cy="28" r="32" gradientUnits="userSpaceOnUse">
      <stop offset="0.125" style="stop-color:black;stop-opacity:0.0625"/>
      <stop offset="0.875" style="stop-color:black;stop-opacity:0"/>
    </radialGradient>
    <linearGradient id="ambient-light-shadow-left" x1="100%" y1="0" x2="0%" y2="0">
      <stop offset="0" style="stop-color:black;stop-opacity:0.0625"/>
      <stop offset="1" style="stop-color:black;stop-opacity:0"/>
    </linearGradient>
    <linearGradient id="ambient-light-shadow-right" x1="0%" y1="0" x2="100%" y2="0">
      <stop offset="0" style="stop-color:black;stop-opacity:0.0625"/>
      <stop offset="1" style="stop-color:black;stop-opacity:0"/>
    </linearGradient>
    <radialGradient id="ambient-light-shadow-bottomleft" cx="28" cy="0" r="32" gradientUnits="userSpaceOnUse">
      <stop offset="0.125" style="stop-color:black;stop-opacity:0.0625"/>
      <stop offset="0.875" style="stop-color:black;stop-opacity:0"/>
    </radialGradient>
    <linearGradient id="ambient-light-shadow-bottom" x1="0" y1="0%" x2="0" y2="100%">
      <stop offset="0" style="stop-color:black;stop-opacity:0.0625"/>
      <stop offset="1" style="stop-color:black;stop-opacity:0"/>
    </linearGradient>
    <radialGradient id="ambient-light-shadow-bottomright" cx="0" cy="0" r="32" gradientUnits="userSpaceOnUse">
      <stop offset="0.125" style="stop-color:black;stop-opacity:0.0625"/>
      <stop offset="0.875" style="stop-color:black;stop-opacity:0"/>
    </radialGradient>
    <radialGradient id="key-light-shadow-topleft" cx="20" cy="16" r="20" gradientUnits="userSpaceOnUse">
      <stop offset="0.2" style="stop-color:black;stop-opacity:0.1875"/>
      <stop offset="1" style="stop-color:black;stop-opacity:0"/>
    </radialGradient>
    <radialGradient id="key-light-shadow-topright" cx="0" cy="16" r="20" gradientUnits="userSpaceOnUse">
      <stop offset="0.2" style="stop-color:black;stop-opacity:0.1875"/>
      <stop offset="1" style="stop-color:black;stop-opacity:0"/>
    </radialGradient>
    <linearGradient id="key-light-shadow-left" x1="20" y1="0" x2="0" y2="0" gradientUnits="userSpaceOnUse">
      <stop offset="0.2" style="stop-color:black;stop-opacity:0.1875"/>
      <stop offset="1" style="stop-color:black;stop-opacity:0"/>
    </linearGradient>
    <linearGradient id="key-light-shadow-right" x1="0" y1="0" x2="20" y2="0" gradientUnits="userSpaceOnUse">
      <stop offset="0.2" style="stop-color:black;stop-opacity:0.1875"/>
      <stop offset="1" style="stop-color:black;stop-opacity:0"/>
    </linearGradient>
    <radialGradient id="key-light-shadow-bottomleft" cx="20" cy="0" r="20" gradientUnits="userSpaceOnUse">
      <stop offset="0.2" style="stop-color:black;stop-opacity:0.1875"/>
      <stop offset="1" style="stop-color:black;stop-opacity:0"/>
    </radialGradient>
    <linearGradient id="key-light-shadow-bottom" x1="0" y1="0" x2="0" y2="20" gradientUnits="userSpaceOnUse">
      <stop offset="0.2" style="stop-color:black;stop-opacity:0.1875"/>
      <stop offset="1" style="stop-color:black;stop-opacity:0"/>
    </linearGradient>
    <radialGradient id="key-light-shadow-bottomright" cx="0" cy="0" r="20" gradientUnits="userSpaceOnUse">
      <stop offset="0.2" style="stop-color:black;stop-opacity:0.1875"/>
      <stop offset="1" style="stop-color:black;stop-opacity:0"/>
    </radialGradient>
  </defs>

  <!-- Shadow -->

  <g id="shadow-topleft">
    <rect style="fill:none" width="36" height="44"/>
    <rect style="fill:url(#ambient-light-shadow-top)" x="28" width="8" height="24"/>
    <rect style="fill:url(#ambient-light-shadow-left)" y="28" width="24" height="16"/>
    <path style="fill:url(#ambient-light-shadow-topleft)" d="m 0,0 h 28 v 24 a 4,4 0 0 0 -4,4 h -24 z"/>
    <rect style="fill:url(#key-light-shadow-topleft)" transform="translate(16,28)" width="8" height="16"/>
  </g>
  <g id="shadow-top" transform="translate(36)">
    <rect style="fill:none" width="24" height="44"/>
    <rect style="fill:url(#ambient-light-shadow-top)" width="24" height="24"/>
  </g>
  <g id="shadow-topright" transform="translate(60)">
    <rect style="fill:none" width="36" height="44"/>
    <rect style="fill:url(#ambient-light-shadow-top)" width="8" height="24"/>
    <rect style="fill:url(#ambient-light-shadow-right)" x="12" y="28" width="24" height="16"/>
    <path style="fill:url(#ambient-light-shadow-topright)" transform="translate(8,0)" d="m 0,0 h 28 v 28 h -24 a 4,4 0 0 0 -4,-4 z"/>
    <rect style="fill:url(#key-light-shadow-topright)" transform="translate(0,28)" x="12" width="8" height="16"/>
  </g>
  <g id="shadow-left" transform="translate(0,44)">
    <rect style="fill:none;" width="36" height="24"/>
    <rect style="fill:url(#ambient-light-shadow-left)" width="24" height="24"/>
    <rect style="fill:url(#key-light-shadow-left)" transform="translate(16,0)" width="8" height="24"/>
  </g>
  <g id="shadow-right" transform="translate(60,44)">
    <rect style="fill:none" width="36" height="24"/>
    <rect style="fill:url(#ambient-light-shadow-right)" x="12" width="24" height="24"/>
    <rect style="fill:url(#key-light-shadow-right)" x="12" width="8" height="24"/>
  </g>
  <g id="shadow-bottomleft" transform="translate(0,68)">
    <rect style="fill:none" width="36" height="28"/>
    <rect style="fill:url(#ambient-light-shadow-bottom)" x="28" y="4" width="8" height="24"/>
    <path style="fill:url(#ambient-light-shadow-bottomleft)" d="m 0,0 h 24 a 4,4 0 0 0 4,4 v 24 h -28 z"/>
    <path style="fill:url(#key-light-shadow-bottomleft)" transform="translate(16,0)" d="m 0,0 h 8 a 4,4 0 0 0 4,4 h 8 v 16 h -20 z"/>
  </g>
  <g id="shadow-bottom" transform="translate(36,68)">
    <rect style="fill:none" width="24" height="28"/>
    <rect style="fill:url(#ambient-light-shadow-bottom)" y="4" width="24" height="24"/>
    <rect style="fill:url(#key-light-shadow-bottom)" y="4" width="24" height="16"/>
  </g>
  <g id="shadow-bottomright" transform="translate(60,68)">
    <rect style="fill:none" width="36" height="28"/>
    <rect style="fill:url(#ambient-light-shadow-bottom)" y="4" width="8" height="24"/>
    <path style="fill:url(#ambient-light-shadow-bottomright)" transform="translate(8,0)" d="m 0,4 a 4,4 0 0 0 4,-4 h 24 v 28 h -28 z"/>
    <path style="fill:url(#key-light-shadow-bottomright)" d="m 0,4 h 8 a 4,4 0 0 0 4,-4 h 8 v 20 h -20 z"/>
  </g>

  <!-- Surface -->

  <!-- 12% white overlay transparancy (elevation: 8dp) -->
  <g id="topleft" transform="translate(24,24)">
    <path class="WindowBackground" d="m 0,4 a 4,4 0 0 1 4,-4 v 4 z"/>
    <path style="fill:white;fill-opacity:0.12" d="m 0,4 a 4,4 0 0 1 4,-4 v 4 z"/>
    <path class="BorderTop" d="m 4,0 a 4,4 0 0 0 -4,4 a 4,3 0 0 1 4,-3 z"/>
  </g>
  <g id="top" transform="translate(28,24)">
    <rect class="WindowBackground" width="40" height="4"/>
    <rect style="fill:white;fill-opacity:0.12" width="40" height="4"/>
    <rect class="BorderTop" width="40" height="1"/>
  </g>
  <g id="topright" transform="translate(68,24)">
    <path class="WindowBackground" d="m 0,0 a 4,4 0 0 1 4,4 h -4"/>
    <path style="fill:white;fill-opacity:0.12" d="m 0,0 a 4,4 0 0 1 4,4 h -4 z"/>
    <path class="BorderTop" d="m 0,0 a 4,4 0 0 1 4,4 a 4,3 0 0 0 -4,-3 z"/>
  </g>
  <g id="left" transform="translate(24,28)">
    <rect class="WindowBackground" width="4" height="40"/>
    <rect class="BorderTop" width="4" height="40"/>
  </g>
  <g id="center" transform="translate(28,28)">
    <rect class="WindowBackground" width="40" height="40"/>
    <rect class="BorderTop" width="40" height="40"/>
  </g>
  <g id="right" transform="translate(68,28)">
    <rect class="WindowBackground" width="4" height="40"/>
    <rect class="BorderTop" width="4" height="40"/>
  </g>
  <g id="bottomleft" transform="translate(24,68)">
    <path class="WindowBackground" d="m 0,0 h 4 v 4 a 4,4 0 0 1 -4,-4 z"/>
    <path style="fill:white;fill-opacity:0.12" d="m 0,0 h 4 v 4 a 4,4 0 0 1 -4,-4 z"/>
    <path class="BorderBottom" d="m 4,4 a 4,4 0 0 1 -4,-4 a 4,3 0 0 0 4,3 z"/>
  </g>
  <g id="bottom" transform="translate(28,68)">
    <rect class="WindowBackground" width="40" height="4"/>
    <rect style="fill:white;fill-opacity:0.12" width="40" height="4"/>
    <rect class="BorderBottom" y="3" width="40" height="1"/>
  </g>
  <g id="bottomright" transform="translate(68,68)">
    <path class="WindowBackground" d="m 0,0 h 4 a 4,4 0 0 1 -4,4 z"/>
    <path style="fill:white;fill-opacity:0.12" d="m 0,0 h 4 a 4,4 0 0 1 -4,4 z"/>
    <path class="BorderBottom" d="m 0,4 a 4,4 0 0 0 4,-4 a 4,3 0 0 1 -4,3 z"/>
  </g>

  <!-- Hints -->

  <g style="fill:#B0BEC5">
    <rect id="hint-no-border-padding" width="4" height="4"/>
    <rect id="hint-top-margin" x="46" y="24" width="4" height="8"/>
    <rect id="hint-bottom-margin" x="46" y="64" width="4" height="8"/>
    <rect id="hint-left-margin" x="24" y="46" width="8" height="4"/>
    <rect id="hint-right-margin" x="64" y="46" width="8" height="4"/>
  </g>
  <g style="fill:#B0BEC5;fill-opacity:0.5">
    <rect id="shadow-hint-top-margin" x="46" width="4" height="24"/>
    <rect id="shadow-hint-bottom-margin" x="46" y="72" width="4" height="24"/>
    <rect id="shadow-hint-left-margin" y="46" width="24" height="4"/>
    <rect id="shadow-hint-right-margin" x="72" y="46" width="24" height="4"/>
  </g>
</svg>
