<?xml version="1.0" encoding="UTF-8"?>
<svg xmlns="http://www.w3.org/2000/svg" viewBox="0 0 24 48">
  <defs>
    <style type="text/css" id="current-color-scheme">
      .ColorScheme-Text { color: #808080 }
    </style>
  </defs>
  <g id="22-22-application-menu" transform="translate(1)">
    <rect style="fill:none" width="22" height="22"/>
    <g class="ColorScheme-Text" style="fill:currentColor" transform="translate(-1,-1)">
      <path d="m 5,6 a 1,1 0 0 0 0,2 h 14 a 1,1 0 0 0 0,-2 z"/>
      <path d="m 5,11 a 1,1 0 0 0 0,2 h 14 a 1,1 0 0 0 0,-2 z"/>
      <path d="m 5,16 a 1,1 0 0 0 0,2 h 14 a 1,1 0 0 0 0,-2 z"/>
    </g>
  </g>
  <g id="application-menu" transform="translate(0,24)">
    <rect style="fill:none" width="24" height="24"/>
    <g class="ColorScheme-Text" style="fill:currentColor">
      <path d="m 5,6 a 1,1 0 0 0 0,2 h 14 a 1,1 0 0 0 0,-2 z"/>
      <path d="m 5,11 a 1,1 0 0 0 0,2 h 14 a 1,1 0 0 0 0,-2 z"/>
      <path d="m 5,16 a 1,1 0 0 0 0,2 h 14 a 1,1 0 0 0 0,-2 z"/>
    </g>
  </g>
</svg>
