<?xml version="1.0" encoding="UTF-8"?>
<svg xmlns="http://www.w3.org/2000/svg" viewBox="0 0 48 120">
  <defs>
    <style type="text/css" id="current-color-scheme">
      .ColorScheme-Text { color: #808080 }
    </style>
  </defs>
  <g id="22-22-applications-other" transform="translate(13)">
    <rect style="fill:none" width="22" height="22"/>
    <g class="ColorScheme-Text" fill="currentColor">
      <rect x="2" y="2" width="4" height="4"/>
      <rect x="9" y="2" width="4" height="4"/>
      <rect x="16" y="2" width="4" height="4"/>

      <rect x="2" y="9" width="4" height="4"/>
      <rect x="9" y="9" width="4" height="4"/>
      <rect x="16" y="9" width="4" height="4"/>

      <rect x="2" y="16" width="4" height="4"/>
      <rect x="9" y="16" width="4" height="4"/>
      <rect x="16" y="16" width="4" height="4"/>
    </g>
  </g>
  <g id="32-32-applications-other" transform="translate(8,32)">
    <rect style="fill:none" width="32" height="32"/>
    <g class="ColorScheme-Text" fill="currentColor">
      <rect x="3" y="3" width="6" height="6"/>
      <rect x="13" y="3" width="6" height="6"/>
      <rect x="23" y="3" width="6" height="6"/>

      <rect x="3" y="13" width="6" height="6"/>
      <rect x="13" y="13" width="6" height="6"/>
      <rect x="23" y="13" width="6" height="6"/>

      <rect x="3" y="23" width="6" height="6"/>
      <rect x="13" y="23" width="6" height="6"/>
      <rect x="23" y="23" width="6" height="6"/>
    </g>
  </g>
  <g id="applications-other" transform="translate(0,72)">
    <rect style="fill:none" width="48" height="48"/>
    <g class="ColorScheme-Text" fill="currentColor">
      <rect x="6" y="6" width="8" height="8"/>
      <rect x="20" y="6" width="8" height="8"/>
      <rect x="34" y="6" width="8" height="8"/>

      <rect x="6" y="20" width="8" height="8"/>
      <rect x="20" y="20" width="8" height="8"/>
      <rect x="34" y="20" width="8" height="8"/>

      <rect x="6" y="34" width="8" height="8"/>
      <rect x="20" y="34" width="8" height="8"/>
      <rect x="34" y="34" width="8" height="8"/>
    </g>
  </g>
</svg>
