<?xml version="1.0" encoding="UTF-8"?>
<svg xmlns="http://www.w3.org/2000/svg" viewBox="0 0 128 64">
  <defs>
    <style type="text/css" id="current-color-scheme">
      .ColorScheme-Text { color: #808080 }
    </style>
  </defs>
  <g>
    <g id="22-22-audio-volume-high" transform="translate(5)">
      <rect style="fill:none" width="22" height="22"/>
      <g class="ColorScheme-Text" style="fill:currentColor" transform="translate(-1,-1)">
        <!-- Speaker -->
        <path d="m 4,9 a 1,1 0 0 0 -1,1 v 4 a 1,1 0 0 0 1,1 h 3 l 3.5,3.5 a 1,1 0 0 0 1.5,-0.865 v -11.27 a 1,1 0 0 0 -1.5,-0.865 l -3.5,3.5 z"/>

        <!-- Sound waves -->
        <path d="m 14.35,6.65 a 0.5,0.5 0 0 0 -0.7,0.7 a 6.6,6.6 0 0 1 0,9.3 a 0.5,0.5 0 0 0 0.7,0.7 a 7.6,7.6 0 0 0 0,-10.7"/>
        <path d="m 16.35,4.65 a 0.5,0.5 0 0 0 -0.7,0.7 a 9.4,9.4 0 0 1 0,13.3 a 0.5,0.5 0 0 0 0.7,0.7 a 10.4,10.4 0 0 0 0,-14.7"/>
        <path d="m 18.35,2.65 a 0.5,0.5 0 0 0 -0.7,0.7 a 12.2,12.2 0 0 1 0,17.3 a 0.5,0.5 0 0 0 0.7,0.7 a 13.2,13.2 0 0 0 0,-18.7"/>
      </g>
    </g>
    <g id="audio-volume-high" transform="translate(0,32)">
      <rect style="fill:none" width="32" height="32"/>
      <g class="ColorScheme-Text" style="fill:currentColor">
        <!-- Speaker -->
        <path d="m 6,12 a 2,2 0 0 0 -2,2 v 4 a 2,2 0 0 0 2,2 h 3 v -8"/>
        <path d="m 16,16 v -7.635 a 1,1 0 0 0 -1.5,-0.865 l -4.5,4.5 v 8 l 4.5,4.5 a 1,1 0 0 0 1.5,-0.865"/>

        <!-- Sound waves -->
        <g transform="scale(1.3333)">
          <path d="m 14.35,6.65 a 0.5,0.5 0 0 0 -0.7,0.7 a 6.6,6.6 0 0 1 0,9.3 a 0.5,0.5 0 0 0 0.7,0.7 a 7.6,7.6 0 0 0 0,-10.7"/>
          <path d="m 16.35,4.65 a 0.5,0.5 0 0 0 -0.7,0.7 a 9.4,9.4 0 0 1 0,13.3 a 0.5,0.5 0 0 0 0.7,0.7 a 10.4,10.4 0 0 0 0,-14.7"/>
          <path d="m 18.35,2.65 a 0.5,0.5 0 0 0 -0.7,0.7 a 12.2,12.2 0 0 1 0,17.3 a 0.5,0.5 0 0 0 0.7,0.7 a 13.2,13.2 0 0 0 0,-18.7"/>
        </g>
      </g>
    </g>
  </g>
  <g transform="translate(32)">
    <g id="22-22-audio-volume-medium" transform="translate(5)">
      <rect style="fill:none" width="22" height="22"/>
      <g class="ColorScheme-Text" style="fill:currentColor" transform="translate(-1,-1)">
        <!-- Speaker -->
        <path d="m 4,9 a 1,1 0 0 0 -1,1 v 4 a 1,1 0 0 0 1,1 h 3 l 3.5,3.5 a 1,1 0 0 0 1.5,-0.865 v -11.27 a 1,1 0 0 0 -1.5,-0.865 l -3.5,3.5 z"/>

        <!-- Sound waves -->
        <path d="m 14.35,6.65 a 0.5,0.5 0 0 0 -0.7,0.7 a 6.6,6.6 0 0 1 0,9.3 a 0.5,0.5 0 0 0 0.7,0.7 a 7.6,7.6 0 0 0 0,-10.7"/>
        <path d="m 16.35,4.65 a 0.5,0.5 0 0 0 -0.7,0.7 a 9.4,9.4 0 0 1 0,13.3 a 0.5,0.5 0 0 0 0.7,0.7 a 10.4,10.4 0 0 0 0,-14.7"/>
        <path style="opacity:0.5" d="m 18.35,2.65 a 0.5,0.5 0 0 0 -0.7,0.7 a 12.2,12.2 0 0 1 0,17.3 a 0.5,0.5 0 0 0 0.7,0.7 a 13.2,13.2 0 0 0 0,-18.7"/>
      </g>
    </g>
    <g id="audio-volume-medium" transform="translate(0,32)">
      <rect style="fill:none" width="32" height="32"/>
      <g class="ColorScheme-Text" style="fill:currentColor">
        <!-- Speaker -->
        <path d="m 6,12 a 2,2 0 0 0 -2,2 v 4 a 2,2 0 0 0 2,2 h 3 v -8"/>
        <path d="m 16,16 v -7.635 a 1,1 0 0 0 -1.5,-0.865 l -4.5,4.5 v 8 l 4.5,4.5 a 1,1 0 0 0 1.5,-0.865"/>

        <!-- Sound waves -->
        <g transform="scale(1.3333)">
          <path d="m 14.35,6.65 a 0.5,0.5 0 0 0 -0.7,0.7 a 6.6,6.6 0 0 1 0,9.3 a 0.5,0.5 0 0 0 0.7,0.7 a 7.6,7.6 0 0 0 0,-10.7"/>
          <path d="m 16.35,4.65 a 0.5,0.5 0 0 0 -0.7,0.7 a 9.4,9.4 0 0 1 0,13.3 a 0.5,0.5 0 0 0 0.7,0.7 a 10.4,10.4 0 0 0 0,-14.7"/>
          <path style="opacity:0.5" d="m 18.35,2.65 a 0.5,0.5 0 0 0 -0.7,0.7 a 12.2,12.2 0 0 1 0,17.3 a 0.5,0.5 0 0 0 0.7,0.7 a 13.2,13.2 0 0 0 0,-18.7"/>
        </g>
      </g>
    </g>
  </g>
  <g transform="translate(64)">
    <g id="22-22-audio-volume-low" transform="translate(1)">
      <rect style="fill:none" width="22" height="22"/>
      <g class="ColorScheme-Text" style="fill:currentColor" transform="translate(-1,-1)">
        <!-- Speaker -->
        <path d="m 4,9 a 1,1 0 0 0 -1,1 v 4 a 1,1 0 0 0 1,1 h 3 l 3.5,3.5 a 1,1 0 0 0 1.5,-0.865 v -11.27 a 1,1 0 0 0 -1.5,-0.865 l -3.5,3.5 z"/>

        <!-- Sound waves -->
        <path d="m 14.35,6.65 a 0.5,0.5 0 0 0 -0.7,0.7 a 6.6,6.6 0 0 1 0,9.3 a 0.5,0.5 0 0 0 0.7,0.7 a 7.6,7.6 0 0 0 0,-10.7"/>
        <path style="opacity:0.5" d="m 16.35,4.65 a 0.5,0.5 0 0 0 -0.7,0.7 a 9.4,9.4 0 0 1 0,13.3 a 0.5,0.5 0 0 0 0.7,0.7 a 10.4,10.4 0 0 0 0,-14.7"/>
        <path style="opacity:0.5" d="m 18.35,2.65 a 0.5,0.5 0 0 0 -0.7,0.7 a 12.2,12.2 0 0 1 0,17.3 a 0.5,0.5 0 0 0 0.7,0.7 a 13.2,13.2 0 0 0 0,-18.7"/>
      </g>
    </g>
    <g id="audio-volume-low" transform="translate(0,32)">
      <rect style="fill:none" width="32" height="32"/>
      <g class="ColorScheme-Text" style="fill:currentColor">
        <!-- Speaker -->
        <path d="m 6,12 a 2,2 0 0 0 -2,2 v 4 a 2,2 0 0 0 2,2 h 3 v -8"/>
        <path d="m 16,16 v -7.635 a 1,1 0 0 0 -1.5,-0.865 l -4.5,4.5 v 8 l 4.5,4.5 a 1,1 0 0 0 1.5,-0.865"/>

        <!-- Sound waves -->
        <g transform="scale(1.3333)">
          <path d="m 14.35,6.65 a 0.5,0.5 0 0 0 -0.7,0.7 a 6.6,6.6 0 0 1 0,9.3 a 0.5,0.5 0 0 0 0.7,0.7 a 7.6,7.6 0 0 0 0,-10.7"/>
          <path style="opacity:0.5" d="m 16.35,4.65 a 0.5,0.5 0 0 0 -0.7,0.7 a 9.4,9.4 0 0 1 0,13.3 a 0.5,0.5 0 0 0 0.7,0.7 a 10.4,10.4 0 0 0 0,-14.7"/>
          <path style="opacity:0.5" d="m 18.35,2.65 a 0.5,0.5 0 0 0 -0.7,0.7 a 12.2,12.2 0 0 1 0,17.3 a 0.5,0.5 0 0 0 0.7,0.7 a 13.2,13.2 0 0 0 0,-18.7"/>
        </g>
      </g>
    </g>
  </g>
  <g transform="translate(96)">
    <g id="22-22-audio-volume-muted" transform="translate(1)">
      <rect style="fill:none" width="22" height="22"/>
      <g class="ColorScheme-Text" style="fill:currentColor" transform="translate(-1,-1)">
        <g style="opacity:0.5">
          <!-- Speaker -->
          <path d="M 11.11 5.414 C 10.83 5.38 10.53 5.463 10.29 5.699 L 10.11 5.881 L 12 7.771 L 12 6.41 C 12 5.854 11.58 5.47 11.11 5.414 z M 8.701 7.293 L 7 9 L 4 9 C 3.45 9 3 9.45 3 10 L 3 14 C 3 14.55 3.45 15 4 15 L 7 15 L 10.29 18.29 C 10.92 18.92 12 18.47 12 17.58 L 12 10.59 L 8.701 7.293 z"/>

          <!-- Sound waves -->
          <path d="M 14.02 6.551 A 0.5 0.5 0 0 0 13.65 7.35 A 6.6 6.6 0 0 1 15.52 11.29 L 16.54 12.31 A 7.6 7.6 0 0 0 14.35 6.65 A 0.5 0.5 0 0 0 14.02 6.551 z M 15.29 13.88 A 6.6 6.6 0 0 1 13.65 16.65 A 0.5 0.5 0 0 0 14.35 17.35 A 7.6 7.6 0 0 0 16.07 14.66 L 15.29 13.88 z"/>
          <path d="M 16.02 4.551 A 0.5 0.5 0 0 0 15.65 5.35 A 9.4 9.4 0 0 1 18.2 13.97 L 19.01 14.78 A 10.4 10.4 0 0 0 16.35 4.65 A 0.5 0.5 0 0 0 16.02 4.551 z M 17.47 16.06 A 9.4 9.4 0 0 1 15.65 18.65 A 0.5 0.5 0 0 0 16.35 19.35 A 10.4 10.4 0 0 0 18.21 16.8 L 17.47 16.06 z"/>
          <path d="M 18.02 2.551 A 0.5 0.5 0 0 0 17.65 3.35 A 12.2 12.2 0 0 1 20.47 16.24 L 21.24 17.01 A 13.2 13.2 0 0 0 18.35 2.65 A 0.5 0.5 0 0 0 18.02 2.551 z M 19.57 18.16 A 12.2 12.2 0 0 1 17.65 20.65 A 0.5 0.5 0 0 0 18.35 21.35 A 13.2 13.2 0 0 0 20.28 18.88 L 19.57 18.16 z"/>
        </g>

        <!-- Strike-through -->
        <path d="m 4.54,3.13 a 0.5,0.5 0 0 0 -1.41,1.41 l 16.33,16.33 a 0.5,0.5 0 0 0 1.41,-1.41 z"/>
      </g>
    </g>
    <g id="audio-volume-muted" transform="translate(0,32)">
      <rect style="fill:none" width="32" height="32"/>
      <g class="ColorScheme-Text" style="fill:currentColor">
        <g style="opacity:0.5">
          <!-- Speaker -->
          <path d="m 6,12 a 2,2 0 0 0 -2,2 v 4 a 2,2 0 0 0 2,2 h 3 v -8"/>
          <path d="m 16,16 l -5,-5 -1,1 v 8 l 4.5,4.5 a 1,1 0 0 0 1.5,-0.865"/>
          <path d="m 16,10.5 v -2.135 a 1,1 0 0 0 -1.5,-0.865 l -0.7,0.7"/>

          <!-- Sound waves -->
          <g transform="scale(1.3333)">
            <path d="M 14.02 6.551 A 0.5 0.5 0 0 0 13.65 7.35 A 6.6 6.6 0 0 1 15.52 11.29 L 16.54 12.31 A 7.6 7.6 0 0 0 14.35 6.65 A 0.5 0.5 0 0 0 14.02 6.551 z M 15.29 13.88 A 6.6 6.6 0 0 1 13.65 16.65 A 0.5 0.5 0 0 0 14.35 17.35 A 7.6 7.6 0 0 0 16.07 14.66 L 15.29 13.88 z"/>
            <path d="M 16.02 4.551 A 0.5 0.5 0 0 0 15.65 5.35 A 9.4 9.4 0 0 1 18.2 13.97 L 19.01 14.78 A 10.4 10.4 0 0 0 16.35 4.65 A 0.5 0.5 0 0 0 16.02 4.551 z M 17.47 16.06 A 9.4 9.4 0 0 1 15.65 18.65 A 0.5 0.5 0 0 0 16.35 19.35 A 10.4 10.4 0 0 0 18.21 16.8 L 17.47 16.06 z"/>
            <path d="M 18.02 2.551 A 0.5 0.5 0 0 0 17.65 3.35 A 12.2 12.2 0 0 1 20.47 16.24 L 21.24 17.01 A 13.2 13.2 0 0 0 18.35 2.65 A 0.5 0.5 0 0 0 18.02 2.551 z M 19.57 18.16 A 12.2 12.2 0 0 1 17.65 20.65 A 0.5 0.5 0 0 0 18.35 21.35 A 13.2 13.2 0 0 0 20.28 18.88 L 19.57 18.16 z"/>
          </g>
        </g>

        <!-- Strike-through -->
        <path transform="scale(1.3333)" d="m 4.54,3.13 a 0.5,0.5 0 0 0 -1.41,1.41 l 16.33,16.33 a 0.5,0.5 0 0 0 1.41,-1.41 z"/>
      </g>
    </g>
  </g>
</svg>
