<?xml version="1.0" encoding="UTF-8"?>
<svg xmlns="http://www.w3.org/2000/svg" viewBox="0 0 32 64">
  <defs>
    <style type="text/css" id="current-color-scheme">
      .ColorScheme-Text { color: #808080 }
    </style>
  </defs>
  <g id="22-22-bookmarks" transform="translate(5)">
    <rect style="fill:none" width="22" height="22"/>
    <path class="ColorScheme-Text" style="fill:currentColor" d="m 6,2 a 2,2 0 0 0 -2,2 v 16 l 7,-3.5 7,3.5 v -16 a 2,2 0 0 0 -2,-2 z m 0,2 h 10 v 12.76 l -5,-2.5 -5,2.5 v -12.75 z"/>
  </g>
  <g id="bookmarks" transform="translate(0,32)">
    <rect style="fill:none" x="0" y="0" width="32" height="32"/>
    <path class="ColorScheme-Text" style="fill:currentColor" d="m 10,4 a 2,2 0 0 0 -2,2 v 22 l 8,-4 8,4 v -22 a 2,2 0 0 0 -2,-2 z m 1,2 h 11 v 18.5 l -6,-3 -6,3 v -18.5 z"/>
  </g>
</svg>
