<?xml version="1.0" encoding="UTF-8"?>
<svg xmlns="http://www.w3.org/2000/svg" viewBox="0 0 96 120">
  <defs>
    <style type="text/css" id="current-color-scheme">
      .ColorScheme-Text { color: #808080 }
    </style>
    <linearGradient id="screen" x1="0%" y1="0%" x2="0%" y2="100%">
      <stop offset="0%" style="stop-color:white;stop-opacity:0.25"/>
      <stop offset="50%" style="stop-color:white;stop-opacity:0"/>
    </linearGradient>
  </defs>
  <g>
    <g id="22-22-computer" transform="translate(13)">
      <rect style="fill:none" width="22" height="22"/>
      <rect style="fill:url(#screen)" x="2" y="5" width="18" height="12"/>
      <path class="ColorScheme-Text" style="fill:currentColor" d="m 2,3 a 2,2 0 0 0 -2,2 v 12 a 2,2 0 0 0 2,2 h 5 v 1 a 1,1 0 0 0 1,1 h 6 a 1,1 0 0 0 1,-1 v -1 h 5 a 2,2 0 0 0 2,-2 v -12 a 2,2 0 0 0 -2,-2 z m 0,2 h 18 v 12 h -18 z"/>
    </g>
    <g id="32-32-computer" transform="translate(8,32)">
      <rect style="fill:none" width="32" height="32"/>
      <rect style="fill:url(#screen)" x="4" y="8" width="24" height="16"/>
      <g class="ColorScheme-Text" style="fill:currentColor">
        <path d="m 4,6 a 2,2 0 0 0 -2,2 v 16 a 2,2 0 0 0 2,2 h 24 a 2,2 0 0 0 2,-2 v -16 a 2,2 0 0 0 -2,-2 z m 0,2 h 24 v 16 h -24 z"/>
        <path d="m 10,27 a 2,2 0 0 0 2,2 h 8 a 2,2 0 0 0 2,-2"/>
      </g>
    </g>
    <g id="computer" transform="translate(0,72)">
      <rect style="fill:none" width="48" height="48"/>
      <rect style="fill:url(#screen)" x="4" y="10" width="40" height="28"/>
      <g class="ColorScheme-Text" style="fill:currentColor">
        <rect style="fill-opacity:0.125" x="4" y="10" width="40" height="28"/>
        <path d="m 4,8 a 2,2 0 0 0 -2,2 v 28 a 2,2 0 0 0 2,2 h 40  a 2,2 0 0 0 2,-2 v -28 a 2,2 0 0 0 -2,-2 z m 0,2 h 40 v 28 h -40 z"/>
        <path style="fill-opacity:0.75" d="m 16,41 v 2 a 2,2 0 0 0 2,2 h 12 a 2,2 0 0 0 2,-2 v -2 z"/>
      </g>
    </g>
  </g>
  <g transform="translate(48)">
    <g id="22-22-laptop" transform="translate(13)">
      <rect style="fill:none" width="22" height="22"/>
      <rect style="fill:url(#screen)" x="4" y="5" width="14" height="10"/>
      <g class="ColorScheme-Text" style="fill:currentColor">
        <path style="fill-opacity:0.625" d="m 3,3 a 1,1 0 0 0 -1,1 v 12 h 18 v -12 a 1,1 0 0 0 -1,-1 z m 1,2 h 14 v 10 h -14 z"/>
        <path d="m 0,17 h 22 v 1 a 1,1 0 0 1 -1,1 h -20 a 1,1 0 0 1 -1,-1 z"/>
      </g>
    </g>
    <g id="32-32-laptop" transform="translate(8,32)">
      <rect style="fill:none" width="32" height="32"/>
      <rect style="fill:url(#screen)" x="6" y="8" width="20" height="12"/>
      <g class="ColorScheme-Text" style="fill:currentColor">
        <path style="fill-opacity:0.625" d="m 6,6 a 2,2 0 0 0 -2,2 v 14 h 24 v -14 a 2,2 0 0 0 -2,-2 z m 0,2 h 20 v 12 h -20 z"/>
        <path d="m 1,23 h 30 v 1 a 2,2 0 0 1 -2,2 h -26 a 2,2 0 0 1 -2,-2 z"/>
      </g>
    </g>
    <g id="laptop" transform="translate(0,72)">
      <rect style="fill:none" width="48" height="48"/>
      <rect style="fill:url(#screen)" x="8" y="10" width="32" height="23"/>
      <g class="ColorScheme-Text" style="fill:currentColor">
        <rect style="fill-opacity:0.125" x="8" y="10" width="32" height="23"/>
        <path style="fill-opacity:0.625" d="m 8,8 a 2,2 0 0 0 -2,2 v 25 h 36 v -25 a 2,2 0 0 0 -2,-2 z m 0,2 h 32 v 23 h -32 z"/>
        <path d="m 2,36 h 44 v 2 a 2,2 0 0 1 -2,2 h -40 a 2,2 0 0 1 -2,-2 z"/>
      </g>
    </g>
  </g>
</svg>
