<?xml version="1.0" encoding="UTF-8"?>
<svg xmlns="http://www.w3.org/2000/svg" viewBox="0 0 32 64">
  <defs>
    <style type="text/css" id="current-color-scheme">
      .ColorScheme-Text { color: #808080 }
    </style>
  </defs>
  <g id="22-22-configure" transform="translate(5)">
    <rect style="fill:none" width="22" height="22"/>
    <g class="ColorScheme-Text" style="fill:currentColor" transform="translate(-1,-1)">
      <path d="m 8,2 a 4,4 0 0 0 0,8 h 8 a 4,4 0 0 0 0,-8 z m 0,1 h 8 a 3,3 0 0 1 0,6 h -8 a 3,3 0 0 1 0,-6 z"/>
      <circle cx="8" cy="6" r="2"/>
      <path d="m 8,14 a 4,4 0 0 0 0,8 h 8 a 4,4 0 0 0 0,-8 z m 8,1.5 a 2.5,2.5 0 0 1 0,5 a 2.5,2.5 0 0 1 0,-5 z"/>
    </g>
  </g>
  <g id="configure" transform="translate(0,32)">
    <rect style="fill:none" width="32" height="32"/>
    <g class="ColorScheme-Text" style="fill:currentColor">
      <path d="m 10,2 a 6,6 0 0 0 0,12 h 12 a 6,6 0 0 0 0,-12 z m 0,1.5 h 12 a 4.5,4.5 0 0 1 0,9 h -12 a 4.5,4.5 0 0 1 0,-9 z"/>
      <circle cx="10" cy="8" r="3.5"/>
      <path d="m 10,18 a 6,6 0 0 0 0,12 h 12 a 6,6 0 0 0 0,-12 z m 12,2 a 4,4 0 0 1 0,8 a 4,4 0 0 1 0,-8 z"/>
    </g>
  </g>
</svg>
