<?xml version="1.0" encoding="UTF-8"?>
<svg xmlns="http://www.w3.org/2000/svg" viewBox="0 0 48 120">
  <defs>
    <style type="text/css" id="current-color-scheme">
      .ColorScheme-Text { color: #808080 }
    </style>
  </defs>
  <g id="22-22-device-notifier" transform="translate(13)">
    <rect style="fill:none" width="22" height="22"/>
    <g class="ColorScheme-Text" style="fill:currentColor" transform="translate(-1,-1)">
      <path style="fill-opacity:0.75" d="m 2.175,15.45 a 1,1 0 0 1 0.825,-0.45 h 18 a 1,1 0 0 1 0.825,0.45 l -1.74,-10.45 c -0.08,-0.5 -0.45,-1 -1,-1 h -14.17 c -0.45,0 -0.92,0.5 -1,1"/>
      <path d="m 3,16 a 1,1 0 0 0 -1,1 v 2 a 1,1 0 0 0 1,1 h 18 a 1,1 0 0 0 1,-1 v -2 a 1,1 0 0 0 -1,-1 z m 2,1 a 1,1 0 0 1 0,2 a 1,1 0 0 1 0,-2"/>
    </g>
  </g>
  <g id="32-32-device-notifier" transform="translate(8,32)">
    <rect style="fill:none" width="32" height="32"/>
    <g class="ColorScheme-Text" style="fill:currentColor">
      <path style="fill-opacity:0.75" d="m 3.35,19.9 a 2,2 0 0 1 1.65,-0.9 h 22 a 2,2 0 0 1 1.65,0.9 l -1.98,-11.9 c -0.1667,-1 -0.9,-2 -2,-2 h -17.34 c -0.9,0 -1.833,1 -2,2"/>
      <path d="m 5,20 a 2,2 0 0 0 -2,2 v 2 a 2,2 0 0 0 2,2 h 22 a 2,2 0 0 0 2,-2 v -2 a 2,2 0 0 0 -2,-2 z m 2,2 a 1,1 0 0 1 0,2 a 1,1 0 0 1 0,-2"/>
    </g>
  </g>
  <g id="device-notifier" transform="translate(0,72)">
    <rect style="fill:none" width="48" height="48"/>
    <g class="ColorScheme-Text" style="fill:currentColor">
      <path style="fill-opacity:0.75" d="m 4.35,31.9 a 2,2 0 0 1 1.65,-0.9 h 36 a 2,2 0 0 1 1.65,0.9 l -3.65,-21.9 c -0.1667,-1 -0.9,-2 -2,-2 h -28 c -0.9,0 -1.833,1 -2,2"/>
      <path d="m 6,32 a 2,2 0 0 0 -2,2 v 4 a 2,2 0 0 0 2,2 h 36 a 2,2 0 0 0 2,-2 v -4 a 2,2 0 0 0 -2,-2 z m 3.5,2.5 a 1.5,1.5 0 0 1 0,3 a 1.5,1.5 0 0 1 0,-3"/>
    </g>
  </g>
</svg>
