<?xml version="1.0" encoding="UTF-8"?>
<svg xmlns="http://www.w3.org/2000/svg" viewBox="0 0 48 120">
  <defs>
    <style type="text/css" id="current-color-scheme">
      .ColorScheme-Text { color: #808080 }
    </style>
  </defs>
  <g id="22-22-disk-quota" transform="translate(13)">
    <rect style="fill:none" width="22" height="22"/>
    <g class="ColorScheme-Text" style="fill:currentColor" transform="translate(-1,-1)">
      <!-- Harddisk -->
      <path style="fill-opacity:0.75" d="M 4.914 4 C 4.464 4 3.994 4.5 3.914 5 L 2.176 15.45 A 1 1 0 0 1 3 15 L 12.13 15 A 8 8 0 0 1 8 8 A 8 8 0 0 1 9.08 4 L 4.914 4 z M 21.54 13.77 A 8 8 0 0 1 19.85 15 L 21 15 A 1 1 0 0 1 21.82 15.45 L 21.54 13.77 z "/>
      <path d="m 3,16 a 1,1 0 0 0 -1,1 v 2 a 1,1 0 0 0 1,1 h 18 a 1,1 0 0 0 1,-1 v -2 a 1,1 0 0 0 -1,-1 z m 2,1 a 1,1 0 0 1 0,2 a 1,1 0 0 1 0,-2"/>

      <!-- Pie chart -->
      <path d="m 16,2 a 6,6 0 0 0 0,12 a 6,6 0 0 0 0,-12 m 0,2 v 4 h 4 a 4,4 0 0 1 -4,4 a 4,4 0 0 1 0,-8"/>
    </g>
  </g>
  <g id="32-32-disk-quota" transform="translate(8,32)">
    <rect style="fill:none" width="32" height="32"/>
    <g class="ColorScheme-Text" style="fill:currentColor">
      <!-- Harddisk -->
      <path style="fill-opacity:0.75" d="M 7.33 9 C 6.43 9 5.497 10 5.33 11 L 3.35 22.9 A 2 2 0 0 1 5 22 L 27 22 A 2 2 0 0 1 28.65 22.9 L 27.88 18.25 A 10 10 0 0 1 21 21 A 10 10 0 0 1 11 11 A 10 10 0 0 1 11.2 9 L 7.33 9 z "/>
      <path d="m 5,23 a 2,2 0 0 0 -2,2 v 2 a 2,2 0 0 0 2,2 h 22 a 2,2 0 0 0 2,-2 v -2 a 2,2 0 0 0 -2,-2 z m 2,2 a 1,1 0 0 1 0,2 a 1,1 0 0 1 0,-2"/>

      <!-- Pie chart -->
      <path d="m 21,3 a 8,8 0 0 0 0,16 a 8,8 0 0 0 0,-16 m 0,2 v 6 h 6 a 6,6 0 0 1 -6,6 a 6,6 0 0 1 0,-12"/>
    </g>
  </g>
  <g id="disk-quota" transform="translate(0,72)">
    <rect style="fill:none" width="48" height="48"/>
    <g class="ColorScheme-Text" style="fill:currentColor">
      <!-- Harddisk -->
      <path style="fill-opacity:0.75" d="M 10 11 C 9.1 11 8.167 12 8 13 L 4.105 36.36 A 2 2 0 0 1 6 35 L 42 35 A 2 2 0 0 1 43.89 36.37 L 42.11 25.66 A 14 14 0 0 1 32 30 A 14 14 0 0 1 18 16 A 14 14 0 0 1 18.94 11 L 10 11 z M 43.89 36.37 L 44 37 A 2 2 0 0 0 43.89 36.37 z M 4.105 36.36 A 2 2 0 0 0 4 37 L 4.105 36.36 z"/>
      <path d="m 6,36 a 2,2 0 0 0 -2,2 v 4 a 2,2 0 0 0 2,2 h 36 a 2,2 0 0 0 2,-2 v -4 a 2,2 0 0 0 -2,-2 z m 3.5,2.5 a 1.5,1.5 0 0 1 0,3 a 1.5,1.5 0 0 1 0,-3"/>

      <!-- Pie chart -->
      <path d="m 32,4 a 12,12 0 0 0 0,24 a 12,12 0 0 0 0,-24 m 0,2 v 10 h 10 a 10,10 0 0 1 -10,10 a 10,10 0 0 1 0,-20"/>
    </g>
  </g>
</svg>
