<?xml version="1.0" encoding="UTF-8"?>
<svg xmlns="http://www.w3.org/2000/svg" viewBox="0 0 48 120">
  <defs>
    <style type="text/css" id="current-color-scheme">
      .ColorScheme-Text { color: #808080 }
    </style>
  </defs>
  <g id="22-22-input-keyboard-layout" transform="translate(13)">
    <rect style="fill:none" width="22" height="22"/>
    <g class="ColorScheme-Text" style="fill:currentColor" transform="translate(2,5)">
      <rect style="fill-opacity:0.375" width="18" height="12" rx="1" ry="1"/>
      <path d="M 2,2 l 2 0 0 2 -2 0 0 -2 m 3,0 l 2 0 0 2 -2 0 0 -2 m 3,0 l 2 0 0 2 -2 0 0 -2 m 3,0 l 2 0 0 2 -2 0 0 -2 m 3,0 l 2 0 0 2 -2 0 0 -2"/>
      <path d="M 2,5 l 2 0 0 2 -2 0 0 -2 m 3,0 l 2 0 0 2 -2 0 0 -2 m 3,0 l 2 0 0 2 -2 0 0 -2 m 3,0 l 2 0 0 2 -2 0 0 -2 m 3,0 l 2 0 0 2 -2 0 0 -2"/>
      <path d="M 5,8 l 8 0 0 2 -8 0"/>
    </g>
  </g>
  <g id="32-32-input-keyboard-layout" transform="translate(8,32)">
    <rect style="fill:none" width="32" height="32"/>
    <g class="ColorScheme-Text" style="fill:currentColor" transform="translate(3,7)">
      <rect style="fill-opacity:0.375" width="26" height="18" rx="1.5" ry="1.5"/>
      <path d="M 2.5,3 l 3 0 0 3 -3 0 0 -3 m 4.5,0 l 3 0 0 3 -3 0 0 -3 m 4.5,0 l 3 0 0 3 -3 0 0 -3 m 4.5,0 l 3 0 0 3 -3 0 0 -3 m 4.5,0 l 3 0 0 3 -3 0 0 -3"/>
      <path d="M 2.5,7.5 l 3 0 0 3 -3 0 0 -3 m 4.5,0 l 3 0 0 3 -3 0 0 -3 m 4.5,0 l 3 0 0 3 -3 0 0 -3 m 4.5,0 l 3 0 0 3 -3 0 0 -3 m 4.5,0 l 3 0 0 3 -3 0 0 -3"/>
      <path d="M 7,12 l 12 0 0 3 -12 0"/>
    </g>
  </g>
  <g id="input-keyboard-layout" transform="translate(0,72)">
    <rect style="fill:none" width="48" height="48"/>
    <g class="ColorScheme-Text" style="fill:currentColor" transform="translate(3,9)">
      <rect style="fill-opacity:0.375" width="42" height="30" rx="2" ry="2"/>
      <path d="M 4,4 l 4 0 0 4 -4 0 0 -4 m 6,0 l 4 0 0 4 -4 0 0 -4 m 6,0 l 4 0 0 4 -4 0 0 -4 m 6,0 l 4 0 0 4 -4 0 0 -4 m 6,0 l 4 0 0 4 -4 0 0 -4 m 6,0 l 4 0 0 4 -4 0 0 -4"/>
      <path d="M 4,10 l 4 0 0 4 -4 0 0 -4 m 6,0 l 4 0 0 4 -4 0 0 -4 m 6,0 l 4 0 0 4 -4 0 0 -4 m 6,0 l 4 0 0 4 -4 0 0 -4 m 6,0 l 4 0 0 4 -4 0 0 -4 m 6,0 l 4 0 0 4 -4 0 0 -4"/>
      <path d="M 4,16 l 4 0 0 4 -4 0 0 -4 m 6,0 l 4 0 0 4 -4 0 0 -4 m 6,0 l 4 0 0 4 -4 0 0 -4 m 6,0 l 4 0 0 4 -4 0 0 -4 m 6,0 l 4 0 0 4 -4 0 0 -4 m 6,0 l 4 0 0 4 -4 0 0 -4"/>
      <path d="m 10,22 l 22 0 0 4 -22 0"/>
    </g>
  </g>
</svg>
