<?xml version="1.0" encoding="UTF-8"?>
<svg xmlns="http://www.w3.org/2000/svg" viewBox="0 0 192 48">
  <defs>
    <style type="text/css" id="current-color-scheme">
      .ColorScheme-Text { color: #808080 }
      .ColorScheme-ButtonFocus { color: #2670D0 }
    </style>
  </defs>
  <g>
    <g id="22-22-notification-inactive" transform="translate(1)">
      <rect style="fill:none" width="22" height="22"/>
      <g class="ColorScheme-Text" style="fill:currentColor" transform="translate(-1,-1)">
        <path d="m 10.5,4 a 1.5,1.5 0 0 1 3,0 v 1.2 a 6,6 0 0 1 4.5,5.8 c 0,2.67 1,5 2,6 c 0.32,0.32 0.5,0.45 0.5,1 c 0,0.55 -0.45,1 -1,1
                 h -15 c -0.55,0 -1,-0.45 -1,-1 c 0,-0.55 0.18,-0.68 0.5,-1 c 1,-1 2,-3.33 2,-6 a 6,6 0 0 1 4.5,-5.8"/>
        <path d="m 10,20 a 2,2 0 0 0 4,0"/>
      </g>
    </g>
    <g id="notification-inactive" transform="translate(0,24)">
      <rect style="fill:none" width="24" height="24"/>
      <g class="ColorScheme-Text" style="fill:currentColor">
        <path d="m 10.5,4 a 1.5,1.5 0 0 1 3,0 v 1.2 a 6,6 0 0 1 4.5,5.8 c 0,2.67 1,5 2,6 c 0.32,0.32 0.5,0.45 0.5,1 c 0,0.55 -0.45,1 -1,1
                 h -15 c -0.55,0 -1,-0.45 -1,-1 c 0,-0.55 0.18,-0.68 0.5,-1 c 1,-1 2,-3.33 2,-6 a 6,6 0 0 1 4.5,-5.8"/>
        <path d="m 10,20 a 2,2 0 0 0 4,0"/>
      </g>
    </g>
  </g>
  <g transform="translate(24)">
    <g id="22-22-notification-active" transform="translate(1)">
      <rect style="fill:none" width="22" height="22"/>
      <g class="ColorScheme-Text" transform="translate(1)">
        <g style="fill:currentColor">
          <path d="m 10.5,4 a 1.5,1.5 0 0 1 3,0 v 1.2 a 6,6 0 0 1 4.5,5.8 c 0,2.67 1,5 2,6 c 0.32,0.32 0.5,0.45 0.5,1 c 0,0.55 -0.45,1 -1,1
                   h -15 c -0.55,0 -1,-0.45 -1,-1 c 0,-0.55 0.18,-0.68 0.5,-1 c 1,-1 2,-3.33 2,-6 a 6,6 0 0 1 4.5,-5.8"/>
          <path d="m 10,20 a 2,2 0 0 0 4,0"/>
        </g>
        <g style="fill:none;stroke:currentColor;stroke-opacity:0.5;stroke-width:2;stroke-linecap:round">
          <path d="m 3,10 a 9,9 0 0 1 2.64,-6.36"/>
          <path d="m 21,10 a 9,9 0 0 0 -2.64,-6.36"/>
        </g>
      </g>
    </g>
    <g id="notification-active" transform="translate(0,24)">
      <rect style="fill:none" width="24" height="24"/>
      <g class="ColorScheme-Text">
        <g style="fill:currentColor">
          <path d="m 10.5,4 a 1.5,1.5 0 0 1 3,0 v 1.2 a 6,6 0 0 1 4.5,5.8 c 0,2.67 1,5 2,6 c 0.32,0.32 0.5,0.45 0.5,1 c 0,0.55 -0.45,1 -1,1
                   h -15 c -0.55,0 -1,-0.45 -1,-1 c 0,-0.55 0.18,-0.68 0.5,-1 c 1,-1 2,-3.33 2,-6 a 6,6 0 0 1 4.5,-5.8"/>
          <path d="m 10,20 a 2,2 0 0 0 4,0"/>
        </g>
        <g style="fill:none;stroke:currentColor;stroke-opacity:0.5;stroke-width:2;stroke-linecap:round">
          <path d="m 3,10 a 9,9 0 0 1 2.64,-6.36"/>
          <path d="m 21,10 a 9,9 0 0 0 -2.64,-6.36"/>
        </g>
      </g>
    </g>
  </g>
  <g transform="translate(48)">
    <g id="22-22-notification-disabled" transform="translate(1)">
      <rect style="fill:none" width="22" height="22"/>
      <g class="ColorScheme-Text" style="fill:currentColor" transform="translate(-1,-1)">
        <g style="opacity:0.5">
          <path d="M 12.04 2.5 A 1.5 1.5 0 0 0 10.5 4 L 10.5 5.199 A 6 6 0 0 0 9.701 5.473 L 18.52 14.29 C 18.21 13.32 18 12.2 18 11 A 6 6 0 0 0 13.5 5.199 L 13.5 4 A 1.5 1.5 0 0 0 12.04 2.5 z M 7.977 6.568 A 6 6 0 0 0 6 11 C 6 13.67 5 16 4 17 C 3.68 17.32 3.5 17.45 3.5 18 C 3.5 18.55 3.95 19 4.5 19 L 19.5 19 C 19.75 19 19.98 18.9 20.15 18.74 L 7.977 6.568 z"/>
          <path d="m 10,20 a 2,2 0 0 0 4,0"/>
        </g>
        <path d="m 4.54,3.13 a 0.5,0.5 0 0 0 -1.41,1.41 l 16.33,16.33 a 0.5,0.5 0 0 0 1.41,-1.41 z"/>
      </g>
    </g>
    <g id="notification-disabled" transform="translate(0,24)">
      <rect style="fill:none" width="24" height="24"/>
      <g class="ColorScheme-Text" style="fill:currentColor">
        <g style="opacity:0.5">
          <path d="M 12.04 2.5 A 1.5 1.5 0 0 0 10.5 4 L 10.5 5.199 A 6 6 0 0 0 9.701 5.473 L 18.52 14.29 C 18.21 13.32 18 12.2 18 11 A 6 6 0 0 0 13.5 5.199 L 13.5 4 A 1.5 1.5 0 0 0 12.04 2.5 z M 7.977 6.568 A 6 6 0 0 0 6 11 C 6 13.67 5 16 4 17 C 3.68 17.32 3.5 17.45 3.5 18 C 3.5 18.55 3.95 19 4.5 19 L 19.5 19 C 19.75 19 19.98 18.9 20.15 18.74 L 7.977 6.568 z"/>
          <path d="m 10,20 a 2,2 0 0 0 4,0"/>
        </g>
        <path d="m 4.54,3.13 a 0.5,0.5 0 0 0 -1.41,1.41 l 16.33,16.33 a 0.5,0.5 0 0 0 1.41,-1.41 z"/>
      </g>
    </g>
  </g>
  <g transform="translate(72)">
    <g id="22-22-notification-empty" transform="translate(1)">
      <rect style="fill:none" width="22" height="22"/>
      <path class="ColorScheme-Text" style="fill:currentColor" d="m11 3a8 8 0 0 0-8 8 8 8 0 0 0 8 8 8 8 0 0 0 8-8 8 8 0 0 0-8-8zm0 1a7 7 0 0 1 7 7 7 7 0 0 1-7 7 7 7 0 0 1-7-7 7 7 0 0 1 7-7z"/>
    </g>
    <g id="notification-empty" transform="translate(0,24)">
      <rect style="fill:none" width="24" height="24"/>
      <path class="ColorScheme-Text" style="fill:currentColor" d="m12 4a8 8 0 0 0-8 8 8 8 0 0 0 8 8 8 8 0 0 0 8-8 8 8 0 0 0-8-8zm0 1a7 7 0 0 1 7 7 7 7 0 0 1-7 7 7 7 0 0 1-7-7 7 7 0 0 1 7-7z"/>
    </g>
  </g>
  <g transform="translate(96)">
    <g id="22-22-notification-progress-active" transform="translate(1)">
      <rect style="fill:none" width="22" height="22"/>
      <circle class="ColorScheme-ButtonFocus" style="fill:currentColor" cx="11" cy="11" r="8"/>
    </g>
    <g id="notification-progress-active" transform="translate(0,24)">
      <rect style="fill:none" width="24" height="24"/>
      <circle class="ColorScheme-ButtonFocus" style="fill:currentColor" cx="12" cy="12" r="8"/>
    </g>
  </g>
  <g transform="translate(120)">
    <g id="22-22-notification-progress-inactive" transform="translate(1)">
      <rect style="fill:none" width="22" height="22"/>
      <circle class="ColorScheme-Text" style="fill:currentColor;fill-opacity:0.5" cx="11" cy="11" r="8"/>
    </g>
    <g id="notification-progress-inactive" transform="translate(0,24)">
      <rect style="fill:none" width="24" height="24"/>
      <circle class="ColorScheme-Text" style="fill:currentColor;fill-opacity:0.5" cx="12" cy="12" r="8"/>
    </g>
  </g>
  <g transform="translate(160,8)">
    <g class="ColorScheme-Text" style="fill:currentColor" >
      <path id="expander-bottom" d="m 2,7 2,-2 2,2 z"/>
      <path id="expander-top" d="m 2,1 2,2 2,-2 z"/>
      <path id="expander-right" d="m 7,2 -2,2 2,2 z"/>
      <path id="expander-left" d="m 1,2 2,2 -2,2 z"/>
    </g>
  </g>
</svg>
