<?xml version="1.0" encoding="UTF-8"?>
<svg xmlns="http://www.w3.org/2000/svg" viewBox="0 0 48 120">
  <defs>
    <style type="text/css" id="current-color-scheme">
      .ColorScheme-Text { color: #808080 }
    </style>
  </defs>
  <g id="22-22-plasmavault" transform="translate(13)">
    <rect style="fill:none" width="22" height="22"/>
    <g class="ColorScheme-Text" style="fill:currentColor">
      <!-- Folder -->
      <path d="m 1,3 a 1,1 0 0 1 1,-1 h 5 c 1,0 1,0 2,1 l 2,2 h 9 a 1,1 0 0 1 1,1 v 1.27 a 2,2 0 0 0 -1,-0.27 h -18 a 2,2 0 0 0 -1,0.27 z"/>
      <path d="m 2,8 a 1,1 0 0 0 -1,1 v 10 a 1,1 0 0 0 1,1 h 9 v -5 a 1,1 0 0 1 1,-1  a 5,5 0 0 1 9,-3 v -2 a 1,1 0 0 0 -1,-1 z"/>
      <!-- Lock -->
      <path d="m 13,16 a 1,1 0 0 1 1,-1 v -1 a 3,3 0 0 1 6,0 v 1 a 1,1 0 0 1 1,1 v 4 a 1,1 0 0 1 -1,1 h -6 a 1,1 0 0 1 -1,-1 z m 2,-1 h 4 v -1 a 2,2 0 0 0 -4,0 z m 2,2 a 1,1 0 0 0 0,2 a 1,1 0 0 0 0,-2 z"/>
    </g>
  </g>
  <g id="32-32-plasmavault" transform="translate(8,32)">
    <rect style="fill:none" width="32" height="32"/>
    <g class="ColorScheme-Text" style="fill:currentColor">
      <!-- Folder -->
      <path d="m 3,6 a 2,2 0 0 1 2,-2 h 5 c 2,0 2,0 4,2 l 2,2 h 11 a 2,2 0 0 1 2,2 v 1.76 a 3,3 0 0 0 -2,-0.76 h -22  a 2,2 0 0 0 -2,0.76 z"/>
      <path d="m 5,12 a 2,2 0 0 0 -2,2 v 12 a 2,2 0 0 0 2,2 h 10 v -6 a 2,2 0 0 1 2,-2 h 0.084 a 6,6 0 0 1 11.832,0 h 0.084 v -6 a 2,2 0 0 0 -2,-2 z"/>
      <!-- Lock -->
      <path d="m 17,24 a 2,2 0 0 1 2,-2 v -1 a 4,4 0 0 1 8,0 v 1 a 2,2 0 0 1 2,2 v 4 a 2,2 0 0 1 -2,2 h -8 a 2,2 0 0 1 -2,-2 z m 4,-2 h 4 v -1 a 2,2 0 0 0 -4,0 z m 2,2.5 a 1.5,1.5 0 0 0 0,3 a 1.5,1.5 0 0 0 0,-3 z"/>
    </g>
  </g>
  <g id="plasmavault" transform="translate(0,72)">
    <rect style="fill:none" width="48" height="48"/>
    <g class="ColorScheme-Text" style="fill:currentColor">
      <!-- Folder -->
      <path d="m 4,8 a 2,2 0 0 1 2,-2 h 10 c 2,0 2,0 4,2 l 4,4 h 18 a 2,2 0 0 1 2,2 v 3.76 a 3,3 0 0 0 -2,-0.76 h -36 a 3,3 0 0 0 -2,0.76 z"/>
      <path d="m 6,18 a 2,2 0 0 0 -2,2 v 20 a 2,2 0 0 0 2,2 h 18 v -12 a 2,2 0 0 1 2,-2 h 1 a 8,8 0 0 1 16,0 h 1 v -8 a 2,2 0 0 0 -2,-2 z"/>
      <!-- Lock -->
      <path d="m 26,32 a 2,2 0 0 1 2,-2 h 1 v -2 a 6,6 0 0 1 12,0 v 2 h 1 a 2,2 0 0 1 2,2 v 10 a 2,2 0 0 1 -2,2 h -14 a 2,2 0 0 1 -2,-2 z m 5,-2 h 8 v -2 a 4,4 0 0 0 -8,0 z m 4,5 a 2,2 0 0 0 0,4 a 2,2 0 0 0 0,-4 z"/>
    </g>
  </g>
</svg>
