<?xml version="1.0" encoding="UTF-8"?>
<svg xmlns="http://www.w3.org/2000/svg" viewBox="0 0 128 120">
  <defs>
    <style type="text/css" id="current-color-scheme">
      .ColorScheme-Text { color: #808080 }
      .ColorScheme-ButtonFocus { color: #2670D0 }
    </style>
  </defs>
  <g>
    <g id="22-22-preferences-desktop-display-randr" transform="translate(13)">
      <rect style="fill:none" width="22" height="22"/>
      <path class="ColorScheme-Text" style="fill:currentColor" d="m 2,3 a 2,2 0 0 0 -2,2 v 12 a 2,2 0 0 0 2,2 h 5 v 1 a 1,1 0 0 0 1,1 h 6 a 1,1 0 0 0 1,-1 v -1 h 5 a 2,2 0 0 0 2,-2 v -12 a 2,2 0 0 0 -2,-2 z m 0,2 h 18 v 12 h -18 z"/>
    </g>
    <g id="32-32-preferences-desktop-display-randr" transform="translate(8,32)">
      <rect style="fill:none" width="32" height="32"/>
      <g class="ColorScheme-Text" style="fill:currentColor">
        <path d="m 4,6 a 2,2 0 0 0 -2,2 v 16 a 2,2 0 0 0 2,2 h 24 a 2,2 0 0 0 2,-2 v -16 a 2,2 0 0 0 -2,-2 z m 0,2 h 24 v 16 h -24 z"/>
        <path d="m 10,27 a 2,2 0 0 0 2,2 h 8 a 2,2 0 0 0 2,-2"/>
      </g>
    </g>
    <g id="preferences-desktop-display-randr" transform="translate(0,72)">
      <rect style="fill:none" width="48" height="48"/>
      <g class="ColorScheme-Text" style="fill:currentColor">
        <rect style="fill-opacity:0.125" x="4" y="10" width="40" height="28"/>
        <path d="m 4,8 a 2,2 0 0 0 -2,2 v 28 a 2,2 0 0 0 2,2 h 40  a 2,2 0 0 0 2,-2 v -28 a 2,2 0 0 0 -2,-2 z m 0,2 h 40 v 28 h -40 z"/>
        <path d="m 16,41 v 2 a 2,2 0 0 0 2,2 h 12 a 2,2 0 0 0 2,-2 v -2 z"/>
      </g>
    </g>
  </g>

  <g transform="translate(48)">
    <g id="22-22-preferences-system-bluetooth" transform="translate(1)">
      <rect style="fill:none" width="22" height="22"/>
      <path class="ColorScheme-Text" style="fill:currentColor" d="m 16.71,6.71 -5.71,-5.71 h -1 v 7.59 l -4.59,-4.59 -1.41,1.41 5.59,5.59 -5.59,5.59 1.41,1.41 4.59,-4.59 v 7.59 h 1 l 5.71,-5.71 -4.3,-4.29 z m -4.71,-1.88 1.88,1.88 -1.88,1.88 z m 1.88,10.46 -1.88,1.88 v -3.76 z"/>
    </g>
    <g id="preferences-system-bluetooth" transform="translate(0,24)">
      <rect style="fill:none" width="24" height="24"/>
      <path class="ColorScheme-Text" style="fill:currentColor" d="m 17.71,7.71 -5.71,-5.71 h -1 v 7.59 l -4.59,-4.59 -1.41,1.41 5.59,5.59 -5.59,5.59 1.41,1.41 4.59,-4.59 v 7.59 h 1 l 5.71,-5.71 -4.3,-4.29 z m -4.71,-1.88 1.88,1.88 -1.88,1.88 z m 1.88,10.46 -1.88,1.88 v -3.76 z"/>
    </g>
  </g>

  <g transform="translate(72)">
    <g id="22-22-preferences-system-bluetooth-activated" transform="translate(1)">
      <rect style="fill:none" width="22" height="22"/>
      <path class="ColorScheme-Text" style="fill:currentColor" d="m 16.71,6.71 -5.71,-5.71 h -1 v 7.59 l -4.59,-4.59 -1.41,1.41 5.59,5.59 -5.59,5.59 1.41,1.41 4.59,-4.59 v 7.59 h 1 l 5.71,-5.71 -4.3,-4.29 z m -4.71,-1.88 1.88,1.88 -1.88,1.88 z m 1.88,10.46 -1.88,1.88 v -3.76 z"/>
      <circle class="ColorScheme-ButtonFocus" style="fill:currentColor" cx="19" cy="19" r="2"/>
    </g>
    <g id="preferences-system-bluetooth-activated" transform="translate(0,24)">
      <rect style="fill:none" width="24" height="24"/>
      <path class="ColorScheme-Text" style="fill:currentColor" d="m 17.71,7.71 -5.71,-5.71 h -1 v 7.59 l -4.59,-4.59 -1.41,1.41 5.59,5.59 -5.59,5.59 1.41,1.41 4.59,-4.59 v 7.59 h 1 l 5.71,-5.71 -4.3,-4.29 z m -4.71,-1.88 1.88,1.88 -1.88,1.88 z m 1.88,10.46 -1.88,1.88 v -3.76 z"/>
      <circle class="ColorScheme-ButtonFocus" style="fill:currentColor" cx="20" cy="20" r="2"/>
    </g>
  </g>

  <g transform="translate(96)">
    <g id="22-22-preferences-system-bluetooth-inactive" transform="translate(1)">
      <rect style="fill:none" width="22" height="22"/>
      <g class="ColorScheme-Text" style="fill:currentColor">
        <path style="fill-opacity:0.5" d="m 10,1 v 4.77 l 2,2 v -2.94 l 1.88,1.88 -1.47,1.47 1.41,1.41 2.89,-2.88 -5.71,-5.71 z m -4.59,3 -1.41,1.41 5.59,5.59 -5.59,5.59 1.41,1.41 4.59,-4.59 v 7.59 h 1 l 5.7,-5.7 -4.29,-4.3 -2.41,-2.41 z m 6.59,9.41 1.88,1.88 -1.88,1.88 z"/>
        <path d="m 3.54,2.13 a 0.5,0.5 0 0 0 -1.41,1.41 l 16.33,16.33 a 0.5,0.5 0 0 0 1.41,-1.41 z"/>
      </g>
    </g>
    <g id="preferences-system-bluetooth-inactive" transform="translate(0,24)">
      <rect style="fill:none" width="22" height="22"/>
      <g class="ColorScheme-Text" style="fill:currentColor">
        <path style="fill-opacity:0.5" d="m 11,2 v 4.77 l 2,2 v -2.94 l 1.88,1.88 -1.47,1.47 1.41,1.41 2.89,-2.88 -5.71,-5.71 z m -4.59,3 -1.41,1.41 5.59,5.59 -5.59,5.59 1.41,1.41 4.59,-4.59 v 7.59 h 1 l 5.7,-5.7 -4.29,-4.3 -2.41,-2.41 z m 6.59,9.41 1.88,1.88 -1.88,1.88 z"/>
        <path d="m 4.54,3.13 a 0.5,0.5 0 0 0 -1.41,1.41 l 16.33,16.33 a 0.5,0.5 0 0 0 1.41,-1.41 z"/>
      </g>
    </g>
  </g>
</svg>
