<?xml version="1.0" encoding="UTF-8"?>
<svg xmlns="http://www.w3.org/2000/svg" viewBox="0 0 48 120">
  <defs>
    <style type="text/css" id="current-color-scheme">
      .ColorScheme-Text { color: #808080 }
    </style>
  </defs>
  <g id="22-22-printer" transform="translate(13)">
    <rect style="fill:none" width="22" height="22"/>
    <g class="ColorScheme-Text" style="fill:currentColor" transform="translate(-1,-1)">
      <path style="fill-opacity:0.5" d="m 7,3 a 1,1 0 0 0 -1,1 v 3 h 12 v -3 a 1,1 0 0 0 -1,-1 z"/>
      <path style="fill-opacity:0.75" d="m 3,8 a 1,1 0 0 0 -1,1 v 8 a 1,1 0 0 0 1,1 h 2 v -4 h 14 v 4 h 2 a 1,1 0 0 0 1,-1 v -8 a 1,1 0 0 0 -1,-1 z m 16,2 a 1,1 0 0 1 0,2 a 1,1 0 0 1 0,-2"/>
      <path d="m 6,15 v 5 a 1,1 0 0 0 1,1 h 10 a 1,1 0 0 0 1,-1 v -5 z"/>
    </g>
  </g>
  <g id="32-32-printer" transform="translate(8,32)">
    <rect style="fill:none" width="32" height="32"/>
    <g class="ColorScheme-Text" style="fill:currentColor">
      <path style="fill-opacity:0.5" d="m 9,4 a 1,1 0 0 0 -1,1 v 5 h 16 v -5 a 1,1 0 0 0 -1,-1 z"/>
      <path style="fill-opacity:0.75" d="m 5,11 a 2,2 0 0 0 -2,2 v 8 a 2,2 0 0 0 2,2 h 2 v -4 h 18 v 4 h 2 a 2,2 0 0 0 2,-2 v -8 a 2,2 0 0 0 -2,-2 z m 21,2 a 1,1 0 0 1 0,2 a 1,1 0 0 1 0,-2"/>
      <path d="m 8,20 v 7 a 1,1 0 0 0 1,1 h 14 a 1,1 0 0 0 1,-1 v -7 z"/>
    </g>
  </g>
  <g id="printer" transform="translate(0,72)">
    <rect style="fill:none" width="48" height="48"/>
    <g class="ColorScheme-Text" style="fill:currentColor">
      <path style="fill-opacity:0.5" d="m 14,6 a 2,2 0 0 0 -2,2 v 7 h 24 v -7 a 2,2 0 0 0 -2,-2 z"/>
      <path style="fill-opacity:0.75" d="m 6,16 a 2,2 0 0 0 -2,2 v 14 a 2,2 0 0 0 2,2 h 5 v -6 h 26 v 6 h 5 a 2,2 0 0 0 2,-2 v -14 a 2,2 0 0 0 -2,-2 z m 34,3 a 1.5,1.5 0 0 1 0,3 a 1.5,1.5 0 0 1 0,-3"/>
      <path d="m 12,29 v 11 a 2,2 0 0 0 2,2 h 20 a 2,2 0 0 0 2,-2 v -11 z"/>
    </g>
  </g>
</svg>
