<?xml version="1.0" encoding="UTF-8"?>
<svg xmlns="http://www.w3.org/2000/svg" viewBox="0 0 384 120">
  <defs>
    <style type="text/css" id="current-color-scheme">
      .ColorScheme-Text { color: #808080 }
    </style>
  </defs>
  <g>
    <g id="22-22-system-log-out" transform="translate(13)">
      <rect style="fill:none" width="22" height="22"/>
      <g class="ColorScheme-Text" transform="translate(11,11)">
        <path style="fill:currentColor" d="M -10,0 A 10,10 0 0 0 10,0 A 10,10 0 0 0 -10,0 M -8,0 A 8,8 0 0 1 8,0 A 8,8 0 0 1 -8,0"/>
        <path style="fill:none;stroke:currentColor;stroke-width:2;stroke-linecap:round;stroke-linejoin:round" d="m 1.5,-4 -4,4 4,4"/>
      </g>
    </g>
    <g id="32-32-system-log-out" transform="translate(8,32)">
      <rect style="fill:none" width="32" height="32"/>
      <g class="ColorScheme-Text" transform="translate(16,16)">
        <path style="fill:currentColor" d="M -13,0 A 13,13 0 0 0 13,0 A 13,13 0 0 0 -13,0 M -11,0 A 11,11 0 0 1 11,0 A 11,11 0 0 1 -11,0"/>
        <path style="fill:none;stroke:currentColor;stroke-width:2.67;stroke-linecap:round;stroke-linejoin:round" d="m 2,-5.33 -5.33,5.33 5.33,5.33"/>
      </g>
    </g>
    <g id="system-log-out" transform="translate(0,72)">
      <rect style="fill:none" width="48" height="48"/>
      <g class="ColorScheme-Text" style="fill:currentColor" transform="translate(24,24)">
        <path d="M -19,0 A 19,19 0 0 0 19,0 A 19,19 0 0 0 -19,0 M -17,0 A 17,17 0 0 1 17,0 A 17,17 0 0 1 -17,0"/>
        <path style="fill:none;stroke:currentColor;stroke-width:4;stroke-linecap:round;stroke-linejoin:round" d="m 3,-8 -8,8 8,8"/>
      </g>
    </g>
  </g>

  <g transform="translate(48)">
    <g id="22-22-system-suspend" transform="translate(13)">
      <rect style="fill:none" width="22" height="22"/>
      <g class="ColorScheme-Text" style="fill:currentColor" transform="translate(11,11)">
        <path d="M -10,0 A 10,10 0 0 0 10,0 A 10,10 0 0 0 -10,0 M -8,0 A 8,8 0 0 1 8,0 A 8,8 0 0 1 -8,0"/>
        <rect x="-4" y="-4" width="3" height="8"/>
        <rect x="1" y="-4" width="3" height="8"/>
      </g>
    </g>
    <g id="32-32-system-suspend" transform="translate(8,32)">
      <rect style="fill:none" width="32" height="32"/>
      <g class="ColorScheme-Text" style="fill:currentColor" transform="translate(16,16)">
        <path d="M -13,0 A 13,13 0 0 0 13,0 A 13,13 0 0 0 -13,0 M -11,0 A 11,11 0 0 1 11,0 A 11,11 0 0 1 -11,0"/>
        <rect x="-6" y="-6" width="4" height="12"/>
        <rect x="2" y="-6" width="4" height="12"/>
      </g>
    </g>
    <g id="system-suspend" transform="translate(0,72)">
      <rect style="fill:none" width="48" height="48"/>
      <g class="ColorScheme-Text" style="fill:currentColor" transform="translate(24,24)">
        <path d="M -19,0 A 19,19 0 0 0 19,0 A 19,19 0 0 0 -19,0 M -17,0 A 17,17 0 0 1 17,0 A 17,17 0 0 1 -17,0"/>
        <rect x="-8" y="-8" width="5" height="16"/>
        <rect x="3" y="-8" width="5" height="16"/>
      </g>
    </g>
  </g>

  <g transform="translate(96)">
    <g id="22-22-system-reboot" transform="translate(13)">
      <rect style="fill:none" width="22" height="22"/>
      <g class="ColorScheme-Text" style="fill:currentColor" transform="translate(11,11)">
        <path d="M -6,0 A 6,6 0 0 1 4.24,-4.24 L 2,-2 8,-2 8,-8 5.66,-5.66 A 8,8 0 0 0 -8,0"/>
        <path d="M 6,0 A 6,6 0 0 1 -4.24, 4.24 L -2,2 -8,2 -8,8 -5.66,5.66 A 8,8 0 0 0 8,0"/>
      </g>
    </g>
    <g id="32-32-system-reboot" transform="translate(8,32)">
      <rect style="fill:none" width="32" height="32"/>
      <g class="ColorScheme-Text" style="fill:currentColor" transform="translate(16,16)">
        <path d="M -11,0 A 11,11 0 0 1 7.78,-7.78 L 10.25,-10.25 a 0.5,0.5 0 0 1 0.75,0.4325 L 11,-4
                 a 1,1 0 0 1 -1,1 L 4.25,-3 a 0.5,0.5 0 0 1 -0.4325,-0.75 L 6.37,-6.37 A 9,9 0 0 0 -9,0"/>
        <path d="M 11,0 A 11,11 0 0 1 -7.78,7.78 L -10.25,10.25 a 0.5,0.5 0 0 1 -0.75,-0.4325 L -11,4
                 a 1,1 0 0 1 1,-1 L -4.25,3 a 0.5,0.5 0 0 1 0.4325,0.75 L -6.37,6.37 A 9,9 0 0 0 9,0"/>
      </g>
    </g>
    <g id="system-reboot" transform="translate(0,72)">
      <rect style="fill:none" width="48" height="48"/>
      <g class="ColorScheme-Text" style="fill:currentColor" transform="translate(24,24)">
        <path d="M -18,0 A 18,18 0 0 1 12.73,-12.73 L 16.5,-16.5 a 1,1 0 0 1 1.5,0.865 L 18,-6
                 a 2,2 0 0 1 -2,2 L 6.5,-4 a 1,1 0 0 1 -0.865,-1.5 L 9.9,-9.9 A 14,14 0 0 0 -14,0"/>
        <path d="M 18,0 A 18,18 0 0 1 -12.73,12.73 L -16.5,16.5 a 1,1 0 0 1 -1.5,-0.865 L -18,6
                 a 2,2 0 0 1 2,-2 L -6.5,4 a 1,1 0 0 1 0.865,1.5 L -9.9,9.9 A 14,14 0 0 0 14,0"/>
      </g>
    </g>
  </g>

  <g transform="translate(144)">
    <g id="22-22-system-shutdown" transform="translate(13)">
      <rect style="fill:none" width="22" height="22"/>
      <g class="ColorScheme-Text" style="fill:currentColor" transform="translate(11,11)">
        <path d="M -4,-8.06 A 9,9 0 1 0 4,-8.06 L 4,-5.745 A 7,7 0 1 1 -4,-5.745"/>
        <path d="m -1,0 a 1,1 0 0 0 2,0 v -8 a 1,1 0 0 0 -2,0"/>
      </g>
    </g>
    <g id="32-32-system-shutdown" transform="translate(8,32)">
      <rect style="fill:none" width="32" height="32"/>
      <g class="ColorScheme-Text" style="fill:currentColor" transform="translate(16,16)">
        <path d="M -5,-10.9 A 12,12 0 1 0 5,-10.9 L 5,-8.66 A 10,10 0 1 1 -5,-8.66"/>
        <path d="m -1,0 a 1,1 0 0 0 2,0 v -11 a 1,1 0 0 0 -2,0"/>
      </g>
    </g>
    <g id="system-shutdown" transform="translate(0,72)">
      <rect style="fill:none" width="48" height="48"/>
      <g class="ColorScheme-Text" style="fill:currentColor" transform="translate(24,24)">
        <path d="M -8,-16.12 A 18,18 0 1 0 8,-16.12 L 8,-11.49 A 14,14 0 1 1 -8,-11.49"/>
        <path d="m -2,0 a 2,2 0 0 0 4,0 v -16 a 2,2 0 0 0 -4,0"/>
      </g>
    </g>
  </g>

  <g transform="translate(192)">
    <g id="22-22-system-lock-screen" transform="translate(13)">
      <rect style="fill:none" width="22" height="22"/>
      <g class="ColorScheme-Text" style="fill:currentColor">
        <path d="m 2,3 a 2,2 0 0 0 -2,2 v 12 a 2,2 0 0 0 2,2 h 5 v 1 a 1,1 0 0 0 1,1 h 6 a 1,1 0 0 0 1,-1 v -1 h 5 a 2,2 0 0 0 2,-2 v -12 a 2,2 0 0 0 -2,-2 z m 0,2 h 18 v 12 h -18 z"/>
        <path d="m 8,11 a 1,1 0 0 1 1,-1 v -1 a 2,2 0 0 1 4,0 v 1 a 1,1 0 0 1 1,1 v 3 a 1,1 0 0 1 -1,1 h -4 a 1,1 0 0 1 -1,-1 z m 2,-1 h 2 v -1 a 1,1 0 0 0 -2,0 z m 1,1.5 a 1,1 0 0 0 0,2 a 1,1 0 0 0 0,-2 z"/>
      </g>
    </g>
    <g id="32-32-system-lock-screen" transform="translate(8,32)">
      <rect style="fill:none" width="32" height="32"/>
      <g class="ColorScheme-Text" style="fill:currentColor">
        <path d="m 4,6 a 2,2 0 0 0 -2,2 v 16 a 2,2 0 0 0 2,2 h 24 a 2,2 0 0 0 2,-2 v -16 a 2,2 0 0 0 -2,-2 z m 0,2 h 24 v 16 h -24 z"/>
        <path d="m 10,27 a 2,2 0 0 0 2,2 h 8 a 2,2 0 0 0 2,-2"/>
        <path d="m 10,16 a 2,2 0 0 1 2,-2 v -1 a 4,4 0 0 1 8,0 v 1 a 2,2 0 0 1 2,2 v 4 a 2,2 0 0 1 -2,2 h -8 a 2,2 0 0 1 -2,-2 z m 4,-2 h 4 v -1 a 2,2 0 0 0 -4,0 z m 2,2.5 a 1.5,1.5 0 0 0 0,3 a 1.5,1.5 0 0 0 0,-3 z"/>
      </g>
    </g>
    <g id="system-lock-screen" transform="translate(0,72)">
      <rect style="fill:none" width="48" height="48"/>
      <g class="ColorScheme-Text" style="fill:currentColor">
        <path d="m 4,7 a 2,2 0 0 0 -2,2 v 30 a 2,2 0 0 0 2,2 h 40  a 2,2 0 0 0 2,-2 v -30 a 2,2 0 0 0 -2,-2 z m 0,2 h 40 v 30 h -40 z"/>
        <path d="m 16,42 v 2 a 2,2 0 0 0 2,2 h 12 a 2,2 0 0 0 2,-2 v -2 z"/>
        <path d="M 18,21 a 2,2 0 0 0 -2,2 v 8 a 2,2 0 0 0 2,2 h 12 a 2,2 0 0 0 2,-2 v -8 a 2,2 0 0 0 -2,-2 v -2
                 a 6,6 0 0 0 -12,0 z m 2,0 v -2 a 4,4 0 0 1 8,0 v 2
                 M 22,27 a 2,2 0 0 1 4,0 a 2,2 0 0 1 -4,0"/>
      </g>
    </g>
  </g>

  <g transform="translate(240)">
    <g id="22-22-system-user-prompt" transform="translate(13)">
      <rect style="fill:none" width="22" height="22"/>
      <g class="ColorScheme-Text" style="fill:currentColor">
        <path d="m 3,5 a 1,1 0 0 0 -1,1 v 3 a 1,1 0 0 0 1,1 h 16 a 1,1 0 0 0 1,-1 v -3 a 1,1 0 0 0 -1,-1"/>
        <path d="m 3,12 a 1,1 0 0 0 -1,1 v 3 a 1,1 0 0 0 1,1 h 16 a 1,1 0 0 0 1,-1 v -3 a 1,1 0 0 0 -1,-1"/>
      </g>
    </g>
    <g id="32-32-system-user-prompt" transform="translate(8,32)">
      <rect style="fill:none" width="32" height="32"/>
      <g class="ColorScheme-Text" style="fill:currentColor">
        <path d="m 4,7 a 2,2 0 0 0 -2,2 v 3 a 2,2 0 0 0 2,2 h 24 a 2,2 0 0 0 2,-2 v -3 a 2,2 0 0 0 -2,-2 z
                 m 0,2 h 1 v 3 h -1"/>
        <path d="m 4,18 a 2,2 0 0 0 -2,2 v 3 a 2,2 0 0 0 2,2 h 24 a 2,2 0 0 0 2,-2 v -3 a 2,2 0 0 0 -2,-2"/>
      </g>
    </g>
    <g id="system-user-prompt" transform="translate(0,72)">
      <rect style="fill:none" width="48" height="48"/>
      <g class="ColorScheme-Text" style="fill:currentColor">
        <path d="m 6,12 a 2,2 0 0 0 -2,2 v 6 a 2,2 0 0 0 2,2 h 36 a 2,2 0 0 0 2,-2 v -6 a 2,2 0 0 0 -2,-2 z
                 m 0,2 h 2 v 6 h -2"/>
        <path d="m 6,26 a 2,2 0 0 0 -2,2 v 6 a 2,2 0 0 0 2,2 h 36 a 2,2 0 0 0 2,-2 v -6 a 2,2 0 0 0 -2,-2"/>
      </g>
    </g>
  </g>

  <g transform="translate(288)">
    <g id="22-22-system-user-list" transform="translate(13)">
      <rect style="fill:none" width="22" height="22"/>
      <g class="ColorScheme-Text" style="fill:currentColor" transform="translate(-1,-1)">
        <circle cx="9" cy="8" r="4"/>
        <!-- people_alt (rounded) -->
        <path d="M9,13c-2.67,0-8,1.34-8,4v2c0,0.55,0.45,1,1,1h14c0.55,0,1-0.45,1-1v-2 C17,14.34,11.67,13,9,13z"/>
        <g style="fill-opacity:0.75">
          <path d="M15,12c2.21,0,4-1.79,4-4c0-2.21-1.79-4-4-4c-0.47,0-0.91,0.1-1.33,0.24 C14.5,5.27,15,6.58,15,8s-0.5,2.73-1.33,3.76C14.09,11.9,14.53,12,15,12z"/>
          <path d="M16.67,13.13C18.04,14.06,19,15.32,19,17v3h3c0.55,0,1-0.45,1-1v-2 C23,14.82,19.43,13.53,16.67,13.13z"/>
        </g>
      </g>
    </g>

    <g id="system-user-list" transform="translate(0,72)">
      <rect style="fill:none" width="48" height="48"/>
      <g class="ColorScheme-Text" style="fill:currentColor" transform="scale(2)">
        <circle cx="9" cy="8" r="4"/>
        <!-- people_alt (rounded) -->
        <path d="M9,13c-2.67,0-8,1.34-8,4v2c0,0.55,0.45,1,1,1h14c0.55,0,1-0.45,1-1v-2 C17,14.34,11.67,13,9,13z"/>
        <g style="fill-opacity:0.75">
          <path d="M15,12c2.21,0,4-1.79,4-4c0-2.21-1.79-4-4-4c-0.47,0-0.91,0.1-1.33,0.24 C14.5,5.27,15,6.58,15,8s-0.5,2.73-1.33,3.76C14.09,11.9,14.53,12,15,12z"/>
          <path d="M16.67,13.13C18.04,14.06,19,15.32,19,17v3h3c0.55,0,1-0.45,1-1v-2 C23,14.82,19.43,13.53,16.67,13.13z"/>
        </g>
      </g>
    </g>
  </g>

  <g transform="translate(336)">
    <g id="22-22-system-switch-user" transform="translate(13)">
      <rect style="fill:none" width="22" height="22"/>
      <g class="ColorScheme-Text" style="fill:currentColor" transform="translate(-1,-1)">
        <circle cx="9" cy="8" r="4"/>
        <!-- people_alt (rounded) -->
        <path d="M9,13c-2.67,0-8,1.34-8,4v2c0,0.55,0.45,1,1,1h14c0.55,0,1-0.45,1-1v-2 C17,14.34,11.67,13,9,13z"/>
        <g style="fill-opacity:0.75">
          <path d="M15,12c2.21,0,4-1.79,4-4c0-2.21-1.79-4-4-4c-0.47,0-0.91,0.1-1.33,0.24 C14.5,5.27,15,6.58,15,8s-0.5,2.73-1.33,3.76C14.09,11.9,14.53,12,15,12z"/>
          <path d="M16.67,13.13C18.04,14.06,19,15.32,19,17v3h3c0.55,0,1-0.45,1-1v-2 C23,14.82,19.43,13.53,16.67,13.13z"/>
        </g>
      </g>
    </g>

    <g id="system-switch-user" transform="translate(0,72)">
      <rect style="fill:none" width="48" height="48"/>
      <g class="ColorScheme-Text" style="fill:currentColor" transform="scale(2)">
        <circle cx="9" cy="8" r="4"/>
        <!-- people_alt (rounded) -->
        <path d="M9,13c-2.67,0-8,1.34-8,4v2c0,0.55,0.45,1,1,1h14c0.55,0,1-0.45,1-1v-2 C17,14.34,11.67,13,9,13z"/>
        <g style="fill-opacity:0.75">
          <path d="M15,12c2.21,0,4-1.79,4-4c0-2.21-1.79-4-4-4c-0.47,0-0.91,0.1-1.33,0.24 C14.5,5.27,15,6.58,15,8s-0.5,2.73-1.33,3.76C14.09,11.9,14.53,12,15,12z"/>
          <path d="M16.67,13.13C18.04,14.06,19,15.32,19,17v3h3c0.55,0,1-0.45,1-1v-2 C23,14.82,19.43,13.53,16.67,13.13z"/>
        </g>
      </g>
    </g>
  </g>
</svg>
