<?xml version="1.0" encoding="UTF-8"?>
<svg xmlns="http://www.w3.org/2000/svg" viewBox="0 0 24 48">
  <defs>
    <style type="text/css" id="current-color-scheme">
      .ColorScheme-Text { color: #808080 }
    </style>
  </defs>
  <g id="22-22-user-identity" transform="translate(1)">
    <rect style="fill:none" width="22" height="22"/>
    <path class="ColorScheme-Text" style="fill:currentColor" transform="translate(-1,-1)"
          d="M12 12c2.21 0 4-1.79 4-4s-1.79-4-4-4-4 1.79-4 4 1.79 4 4 4zm0 2c-2.67 0-8 1.34-8 4v1c0 .55.45 1 1 1h14c.55 0 1-.45 1-1v-1c0-2.66-5.33-4-8-4z"/>
  </g>
  <g id="user-identity" transform="translate(0,24)">
    <rect style="fill:none" width="24" height="24"/>
    <path class="ColorScheme-Text" style="fill:currentColor"
          d="M12 12c2.21 0 4-1.79 4-4s-1.79-4-4-4-4 1.79-4 4 1.79 4 4 4zm0 2c-2.67 0-8 1.34-8 4v1c0 .55.45 1 1 1h14c.55 0 1-.45 1-1v-1c0-2.66-5.33-4-8-4z"/>
  </g>
</svg>
