<?xml version="1.0" encoding="UTF-8"?>
<svg xmlns="http://www.w3.org/2000/svg" viewBox="0 0 72 48">
  <defs>
    <style type="text/css" id="current-color-scheme">
      .ColorScheme-Text { color: #808080 }
    </style>
  </defs>
  <g>
    <g id="22-22-window-pin" transform="translate(1)">
      <rect style="fill:none" width="22" height="22"/>
      <g transform="translate(-1,-1)">
        <g class="ColorScheme-Text" style="fill:currentColor" transform="rotate(45,12,12)">
          <path d="m 6,4 a 2,2 0 0 0 2,2 v 7 a 3,3 0 0 0 -3,3 h 14 a 3,3 0 0 0 -3,-3 v -7 a 2,2 0 0 0 2,-2 z"/>
          <path d="m 11,17 v 6 a 1,1 0 0 0 2,0 v -6"/>
        </g>
      </g>
    </g>
    <g id="window-pin" transform="translate(0,24)">
      <rect style="fill:none" width="24" height="24"/>
      <g class="ColorScheme-Text" style="fill:currentColor" transform="rotate(45,12,12)">
        <path d="m 6,4 a 2,2 0 0 0 2,2 v 7 a 3,3 0 0 0 -3,3 h 14 a 3,3 0 0 0 -3,-3 v -7 a 2,2 0 0 0 2,-2 z"/>
        <path d="m 11,17 v 6 a 1,1 0 0 0 2,0 v -6"/>
      </g>
    </g>
  </g>
  <g transform="translate(24)">
    <g id="22-22-window-unpin" transform="translate(1)">
      <rect style="fill:none" width="22" height="22"/>
      <g class="ColorScheme-Text" style="fill:currentColor" transform="translate(-1,-1)">
        <g transform="rotate(45,12,12)">
          <path d="m 6,4 a 2,2 0 0 0 2,2 v 3 h 8 v -3 a 2,2 0 0 0 2,-2 z"/>
          <path d="m 8,11 v 2 a 3,3 0 0 0 -3,3 h 14 a 3,3 0 0 0 -3,-3 v -2  z"/>
          <path d="m 11,17 v 6 a 1,1 0 0 0 2,0 v -6"/>
        </g>
        <path d="m 4.54,3.13 a 0.5,0.5 0 0 0 -1.41,1.41 l 16.33,16.33 a 0.5,0.5 0 0 0 1.41,-1.41 z"/>
      </g>
    </g>
    <g id="window-unpin" transform="translate(0,24)">
      <rect style="fill:none" width="24" height="24"/>
      <g class="ColorScheme-Text" style="fill:currentColor">
        <g transform="rotate(45,12,12)">
          <path d="m 6,4 a 2,2 0 0 0 2,2 v 3 h 8 v -3 a 2,2 0 0 0 2,-2 z"/>
          <path d="m 8,11 v 2 a 3,3 0 0 0 -3,3 h 14 a 3,3 0 0 0 -3,-3 v -2  z"/>
          <path d="m 11,17 v 6 a 1,1 0 0 0 2,0 v -6"/>
        </g>
        <path d="m 4.54,3.13 a 0.5,0.5 0 0 0 -1.41,1.41 l 16.33,16.33 a 0.5,0.5 0 0 0 1.41,-1.41 z"/>
      </g>
    </g>
  </g>
  <g transform="translate(48)">
    <g id="22-22-window-list" transform="translate(1)">
      <rect style="fill:none" width="22" height="22"/>
      <g class="ColorScheme-Text" style="fill:currentColor">
        <rect x="2" y="2" width="8" height="8"/>
        <rect x="12" y="2" width="8" height="8"/>
        <rect x="2" y="12" width="8" height="8"/>
        <rect x="12" y="12" width="8" height="8"/>
      </g>
    </g>
    <g id="window-list" transform="translate(0,24)">
      <rect style="fill:none" width="24" height="24"/>
      <g class="ColorScheme-Text" style="fill:currentColor">
        <rect x="3" y="3" width="8" height="8"/>
        <rect x="13" y="3" width="8" height="8"/>
        <rect x="3" y="13" width="8" height="8"/>
        <rect x="13" y="13" width="8" height="8"/>
      </g>
    </g>
  </g>
</svg>
