<?xml version="1.0" encoding="UTF-8"?>
<svg xmlns="http://www.w3.org/2000/svg" viewBox="0 0 48 48">
  <defs>
    <style type="text/css" id="current-color-scheme">
      .ColorScheme-Text { color: #808080 }
    </style>
  </defs>
  <g>
    <g id="22-22-zoom-fit-width" transform="translate(1)">
      <rect style="fill:none" width="22" height="22"/>
      <g class="ColorScheme-Text" style="fill:currentColor" transform="translate(-1,-1)">
        <path d="m 4,5 a 1,1 0 0 0 -2,0 v 14 a 1,1 0 0 0 2,0"/>
        <path d="m 22,5 a 1,1 0 0 0 -2,0 v 14 a 1,1 0 0 0 2,0"/>
        <path transform="rotate(90,12,12)"
              d="m 13,8 h 1.79 c 0.45,0 0.67,-0.54 0.36,-0.85 l -2.79,-2.79 c -0.2,-0.2 -0.52,-0.2 -0.72,0 l -2.79,2.79 c -0.31,0.31 -0.09,0.85 0.36,0.85 l 1.79,0
                 v 8 h -1.79 c -0.45,0 -0.67,0.54 -0.36,0.85 l 2.79,2.79 c 0.2,0.2 0.52,0.2 0.72,0 l 2.79,-2.79 c 0.31,-0.31 0.1,-0.85 -0.36,-0.85 h -1.79 z"/>
      </g>
    </g>
    <g id="zoom-fit-width" transform="translate(0,24)">
      <rect style="fill:none" width="24" height="24"/>
      <g class="ColorScheme-Text" style="fill:currentColor">
        <path d="m 4,5 a 1,1 0 0 0 -2,0 v 14 a 1,1 0 0 0 2,0"/>
        <path d="m 22,5 a 1,1 0 0 0 -2,0 v 14 a 1,1 0 0 0 2,0"/>
        <path transform="rotate(90,12,12)"
              d="m 13,8 h 1.79 c 0.45,0 0.67,-0.54 0.36,-0.85 l -2.79,-2.79 c -0.2,-0.2 -0.52,-0.2 -0.72,0 l -2.79,2.79 c -0.31,0.31 -0.09,0.85 0.36,0.85 l 1.79,0
                 v 8 h -1.79 c -0.45,0 -0.67,0.54 -0.36,0.85 l 2.79,2.79 c 0.2,0.2 0.52,0.2 0.72,0 l 2.79,-2.79 c 0.31,-0.31 0.1,-0.85 -0.36,-0.85 h -1.79 z"/>
      </g>
    </g>
  </g>

  <g transform="translate(24)">
    <g id="22-22-zoom-fit-height" transform="translate(1)">
      <rect style="fill:none" width="22" height="22"/>
      <g class="ColorScheme-Text" style="fill:currentColor" transform="translate(-1,-1)">
        <path d="m 5,2 a 1,1 0 0 0 0,2 h 14 a 1,1 0 0 0 0,-2"/>
        <path d="m 5,20 a 1,1 0 0 0 0,2 h 14 a 1,1 0 0 0 0,-2"/>
        <path d="m 13,8 h 1.79 c 0.45,0 0.67,-0.54 0.36,-0.85 l -2.79,-2.79 c -0.2,-0.2 -0.52,-0.2 -0.72,0 l -2.79,2.79 c -0.31,0.31 -0.09,0.85 0.36,0.85 l 1.79,0
           v 8 h -1.79 c -0.45,0 -0.67,0.54 -0.36,0.85 l 2.79,2.79 c 0.2,0.2 0.52,0.2 0.72,0 l 2.79,-2.79 c 0.31,-0.31 0.1,-0.85 -0.36,-0.85 h -1.79 z"/>
      </g>
    </g>
    <g id="zoom-fit-height" transform="translate(0,24)">
      <rect style="fill:none" width="24" height="24"/>
      <g class="ColorScheme-Text" style="fill:currentColor">
        <path d="m 5,2 a 1,1 0 0 0 0,2 h 14 a 1,1 0 0 0 0,-2"/>
        <path d="m 5,20 a 1,1 0 0 0 0,2 h 14 a 1,1 0 0 0 0,-2"/>
        <path d="m 13,8 h 1.79 c 0.45,0 0.67,-0.54 0.36,-0.85 l -2.79,-2.79 c -0.2,-0.2 -0.52,-0.2 -0.72,0 l -2.79,2.79 c -0.31,0.31 -0.09,0.85 0.36,0.85 l 1.79,0
           v 8 h -1.79 c -0.45,0 -0.67,0.54 -0.36,0.85 l 2.79,2.79 c 0.2,0.2 0.52,0.2 0.72,0 l 2.79,-2.79 c 0.31,-0.31 0.1,-0.85 -0.36,-0.85 h -1.79 z"/>
      </g>
    </g>
  </g>
</svg>
