<?xml version="1.0" encoding="UTF-8"?>
<svg xmlns="http://www.w3.org/2000/svg" viewBox="0 0 160 80">
  <defs>
    <style type="text/css">
      .ButtonBackground { fill: black; fill-opacity: 0.2 }
      .ButtonPressed { fill: black; fill-opacity: 0.25 }
      .ButtonHoverDecoration { fill: none }
      .ButtonFocusDecoration { fill: #2670D0 }
      .ToolButtonHover { fill: black; fill-opacity: 0.1 }
      .ToolButtonPressed { fill: black; fill-opacity: 0.2 }
      .Hint { fill: #CA7921; fill-opacity: 0.5 }
    </style>
  </defs>

  <!-- Buttons -->

  <g transform="translate(4,4)">
    <g class="ButtonBackground">
      <path id="normal-topleft" d="m 4,0 a 4,4 0 0 0 -4,4 h 4"/>
      <rect id="normal-top" x="4" width="24" height="4"/>
      <path id="normal-topright" d="m 28,4 h 4 a 4,4 0 0 0 -4,-4"/>
      <rect id="normal-left" y="4" width="4" height="24"/>
      <rect id="normal-center" x="4" y="4" width="24" height="24"/>
      <rect id="normal-right" x="28" y="4" width="4" height="24"/>
      <path id="normal-bottomleft" d="m 0,28 a 4,4 0 0 0 4,4 v -4"/>
      <rect id="normal-bottom" x="4" y="28" width="24" height="4"/>
      <path id="normal-bottomright" d="m 28,32 a 4,4 0 0 0 4,-4 h -4"/>
    </g>
    <g class="Hint">
      <circle id="normal-hint-compose-over-border" cx="-3" cy="-3" r="1"/>
      <rect id="normal-hint-top-margin" x="15" width="2" height="6"/>
      <rect id="normal-hint-left-margin" y="15" width="12" height="2"/>
      <rect id="normal-hint-right-margin" x="20" y="15" height="2" width="12"/>
      <rect id="normal-hint-bottom-margin" x="15" y="26" width="2" height="6"/>
    </g>
  </g>

  <g transform="translate(44,4)">
    <g class="ButtonHoverDecoration">
      <path id="hover-topleft" d="m 4,0 a 4,4 0 0 0 -4,4 h 4"/>
      <rect id="hover-top" x="4" width="24" height="4"/>
      <path id="hover-topright" d="m 28,4 h 4 a 4,4 0 0 0 -4,-4"/>
      <rect id="hover-left" y="4" width="4" height="24"/>
      <rect id="hover-center" x="4" y="4" width="24" height="24"/>
      <rect id="hover-right" x="28" y="4" width="4" height="24"/>
      <path id="hover-bottomleft" d="m 0,28 a 4,4 0 0 0 4,4 v -4"/>
      <rect id="hover-bottom" x="4" y="28" width="24" height="4"/>
      <path id="hover-bottomright" d="m 28,32 a 4,4 0 0 0 4,-4 h -4"/>
    </g>
    <g class="Hint">
      <rect id="hover-hint-top-margin" x="15" y="0.999" width="2" height="0.001"/>
      <rect id="hover-hint-bottom-margin" x="15" y="31" width="2" height="0.001"/>
      <rect id="hover-hint-left-margin" x="0.999" y="15" width="0.001" height="2"/>
      <rect id="hover-hint-right-margin" x="31" y="15" width="0.001" height="2"/>
    </g>
  </g>

  <g transform="translate(84,4)">
    <g class="ButtonPressed">
      <path id="pressed-topleft" d="m 4,0 a 4,4 0 0 0 -4,4 h 4"/>
      <rect id="pressed-top" x="4" width="24" height="4"/>
      <path id="pressed-topright" d="m 28,4 h 4 a 4,4 0 0 0 -4,-4"/>
      <rect id="pressed-left" y="4" width="4" height="24"/>
      <rect id="pressed-center" x="4" y="4" width="24" height="24"/>
      <rect id="pressed-right" x="28" y="4" width="4" height="24"/>
      <path id="pressed-bottomleft" d="m 0,28 a 4,4 0 0 0 4,4 v -4"/>
      <rect id="pressed-bottom" x="4" y="28" width="24" height="4"/>
      <path id="pressed-bottomright" d="m 28,32 a 4,4 0 0 0 4,-4 h -4"/>
    </g>
    <g class="Hint">
      <circle id="pressed-hint-compose-over-border" cx="-3" cy="-3" r="1"/>
      <rect id="pressed-hint-top-margin" x="15" width="2" height="6"/>
      <rect id="pressed-hint-left-margin" y="15" width="12" height="2"/>
      <rect id="pressed-hint-right-margin" x="20" y="15" height="2" width="12"/>
      <rect id="pressed-hint-bottom-margin" x="15" y="26" width="2" height="6"/>
    </g>
  </g>

  <g transform="translate(124,4)">
    <g class="ButtonFocusDecoration">
      <g id="focus-topleft">
        <rect style="fill:none" width="4" height="4"/>
        <path d="m 4,0 a 4,4 0 0 0 -4,4 h 1 a 3,3 0 0 1 3,-3"/>
      </g>
      <g id="focus-top" transform="translate(4)">
        <rect style="fill:none" width="24" height="4"/>
        <rect width="24" height="1"/>
      </g>
      <g id="focus-topright" transform="translate(28)">
        <rect style="fill:none" width="4" height="4"/>
        <path d="m 0,0 v 1 a 3,3 0 0 1 3,3 h 1 a 4,4 0 0 0 -4,-4"/>
      </g>
      <g id="focus-left" transform="translate(0,4)">
        <rect style="fill:none" width="4" height="24"/>
        <rect width="1" height="24"/>
      </g>
      <g id="focus-center" transform="translate(4,4)">
        <rect style="fill:none" width="24" height="24"/>
      </g>
      <g id="focus-right" transform="translate(28,4)">
        <rect style="fill:none" width="4" height="24"/>
        <rect x="3" width="1" height="24"/>
      </g>
      <g id="focus-bottomleft" transform="translate(0,28)">
        <rect style="fill:none" width="4" height="4"/>
        <path d="m 0,0 a 4,4 0 0 0 4,4 v -1 a 3,3 0 0 1 -3,-3"/>
      </g>
      <g id="focus-bottom" transform="translate(4,28)">
        <rect style="fill:none" width="24" height="4"/>
        <rect class="ButtonFocusDecoration" y="3" width="24" height="1"/>
      </g>
      <g id="focus-bottomright" transform="translate(28,28)">
        <rect style="fill:none" width="4" height="4"/>
        <path d="m 0,4 a 4,4 0 0 0 4,-4 h -1 a 3,3 0 0 1 -3,3"/>
      </g>
    </g>
    <g class="Hint">
      <rect id="focus-hint-top-margin" x="15" width="2" height="0.001"/>
      <rect id="focus-hint-left-margin" y="15" width="0.001" height="2"/>
      <rect id="focus-hint-right-margin" x="31" y="15" width="0.001" height="2"/>
      <rect id="focus-hint-bottom-margin" x="15" y="31" width="2" height="0.001"/>
    </g>
  </g>

  <!-- Toolbuttons -->

  <g class="ToolButtonHover" transform="translate(44,44)">
    <path id="toolbutton-hover-topleft" d="m 4,0 a 4,4 0 0 0 -4,4 h 4"/>
    <rect id="toolbutton-hover-top" x="4" width="24" height="4"/>
    <path id="toolbutton-hover-topright" d="m 28,4 h 4 a 4,4 0 0 0 -4,-4"/>
    <rect id="toolbutton-hover-left" y="4" width="4" height="24"/>
    <rect id="toolbutton-hover-center" x="4" y="4" width="24" height="24"/>
    <rect id="toolbutton-hover-right" x="28" y="4" width="4" height="24"/>
    <path id="toolbutton-hover-bottomleft" d="m 0,28 a 4,4 0 0 0 4,4 v -4"/>
    <rect id="toolbutton-hover-bottom" x="4" y="28" width="24" height="4"/>
    <path id="toolbutton-hover-bottomright" d="m 28,32 a 4,4 0 0 0 4,-4 h -4"/>
  </g>
  <g class="ToolButtonPressed" transform="translate(84,44)">
    <path id="toolbutton-pressed-topleft" d="m 4,0 a 4,4 0 0 0 -4,4 h 4"/>
    <rect id="toolbutton-pressed-top" x="4" width="24" height="4"/>
    <path id="toolbutton-pressed-topright" d="m 28,4 h 4 a 4,4 0 0 0 -4,-4"/>
    <rect id="toolbutton-pressed-left" y="4" width="4" height="24"/>
    <rect id="toolbutton-pressed-center" x="4" y="4" width="24" height="24"/>
    <rect id="toolbutton-pressed-right" x="28" y="4" width="4" height="24"/>
    <path id="toolbutton-pressed-bottomleft" d="m 0,28 a 4,4 0 0 0 4,4 v -4"/>
    <rect id="toolbutton-pressed-bottom" x="4" y="28" width="24" height="4"/>
    <path id="toolbutton-pressed-bottomright" d="m 28,32 a 4,4 0 0 0 4,-4 h -4"/>
  </g>
  <g transform="translate(124,44)">
    <g class="ButtonFocusDecoration">
      <g id="toolbutton-focus-topleft">
        <rect style="fill:none" width="4" height="4"/>
        <path d="m 4,0 a 4,4 0 0 0 -4,4 h 1 a 3,3 0 0 1 3,-3"/>
      </g>
      <g id="toolbutton-focus-top" transform="translate(4)">
        <rect style="fill:none" width="24" height="4"/>
        <rect width="24" height="1"/>
      </g>
      <g id="toolbutton-focus-topright" transform="translate(28)">
        <rect style="fill:none" width="4" height="4"/>
        <path d="m 0,0 v 1 a 3,3 0 0 1 3,3 h 1 a 4,4 0 0 0 -4,-4"/>
      </g>
      <g id="toolbutton-focus-left" transform="translate(0,4)">
        <rect style="fill:none" width="4" height="24"/>
        <rect width="1" height="24"/>
      </g>
      <g id="toolbutton-focus-center" transform="translate(4,4)">
        <rect style="fill:none" width="24" height="24"/>
      </g>
      <g id="toolbutton-focus-right" transform="translate(28,4)">
        <rect style="fill:none" width="4" height="24"/>
        <rect x="3" width="1" height="24"/>
      </g>
      <g id="toolbutton-focus-bottomleft" transform="translate(0,28)">
        <rect style="fill:none" width="4" height="4"/>
        <path d="m 0,0 a 4,4 0 0 0 4,4 v -1 a 3,3 0 0 1 -3,-3"/>
      </g>
      <g id="toolbutton-focus-bottom" transform="translate(4,28)">
        <rect style="fill:none" width="24" height="4"/>
        <rect y="3" width="24" height="1"/>
      </g>
      <g id="toolbutton-focus-bottomright" transform="translate(28,28)">
        <rect style="fill:none" width="4" height="4"/>
        <path d="m 0,4 a 4,4 0 0 0 4,-4 h -1 a 3,3 0 0 1 -3,3"/>
      </g>
    </g>
    <g class="Hint">
      <rect id="toolbutton-focus-hint-top-margin" x="15" y="-0.001" width="2" height="0.001"/>
      <rect id="toolbutton-focus-hint-left-margin" x="-0.001" y="15" width="0.001" height="2"/>
      <rect id="toolbutton-focus-hint-right-margin" x="32" y="15" width="0.001" height="2"/>
      <rect id="toolbutton-focus-hint-bottom-margin" x="15" y="32" width="2" height="0.001"/>
    </g>
  </g>
</svg>
