<?xml version="1.0" encoding="UTF-8"?>
<svg xmlns="http://www.w3.org/2000/svg" viewBox="0 0 160 80">
  <defs>
    <style type="text/css">
      .BorderBackdrop { fill: #F0F0F0; fill-opacity: 0.75 }
      .ButtonBorder { fill: #303030; fill-opacity: 0.375 }
      .ButtonBackground { fill: #F0F0F0; fill-opacity: 0.5 }
      .ButtonHover { fill: #C0C0C0; fill-opacity: 0.5 }
      .ButtonPressed { fill: #C0C0C0 }
      .ButtonFocusInner { fill: #2670D0; fill-opacity: 0.875 }
      .ButtonFocusOuter { fill: #2670D0; fill-opacity: 0.625 }
      .ToolButtonHover { fill: #303030; fill-opacity: 0.125 /*fill: #C0C0C0*/ }
      .ToolButtonPressed { fill: #A8A8A8 }
      .ToolButtonFocus { fill: #9AB7DB }
    </style>
  </defs>

  <!-- Buttons -->

  <g transform="translate(2,2)">
    <g id="normal-topleft">
      <rect style="fill:none" width="12" height="6"/>
      <path class="BorderBackdrop" d="m 0,4 a 4,4, 0 0 1 4,-4 h 8 v 1 h -8 a 3,3 0 0 0 -3,3 v 2 h -1"/>
      <path class="ButtonBorder" d="m 0,4 a 4,4, 0 0 1 4,-4 h 8 v 1 h -8 a 3,3 0 0 0 -3,3 v 2 h -1"/>
      <path class="ButtonBackground" d="m 4,1 a 3,3 0 0 0 -3,3 v 2 h 11 v -5"/>
    </g>
    <g id="normal-top" transform="translate(12)">
      <rect style="fill:none" width="12" height="6"/>
      <rect class="BorderBackdrop" width="12" height="1"/>
      <rect class="ButtonBorder" width="12" height="1"/>
      <rect class="ButtonBackground" y="1" width="12" height="5"/>
    </g>
    <g id="normal-topright" transform="translate(24)">
      <rect style="fill:none" width="12" height="6"/>
      <path class="BorderBackdrop" d="m 0,0 h 8 a 4,4 0 0 1 4,4 v 2 h -1 v -2 a 3,3 0 0 0 -3,-3 h -8"/>
      <path class="ButtonBorder" d="m 0,0 h 8 a 4,4 0 0 1 4,4 v 2 h -1 v -2 a 3,3 0 0 0 -3,-3 h -8"/>
      <path class="ButtonBackground" d="m 0,1 v 5 h 11 v -2 a 3,3 0 0 0 -3,-3"/>
    </g>
    <g id="normal-left" transform="translate(0,6)">
      <rect style="fill:none" width="12" height="24"/>
      <rect class="BorderBackdrop" width="1" height="24"/>
      <rect class="ButtonBorder" width="1" height="24"/>
      <rect class="ButtonBackground" x="1" width="11" height="24"/>
    </g>
    <g id="normal-center" transform="translate(12,6)">
      <rect class="ButtonBackground" width="12" height="24"/>
    </g>
    <g id="normal-right" transform="translate(24,6)">
      <rect style="fill:none" width="12" height="24"/>
      <rect class="BorderBackdrop" x="11" width="1" height="24"/>
      <rect class="ButtonBorder" x="11" width="1" height="24"/>
      <rect class="ButtonBackground" width="11" height="24"/>
    </g>
    <g id="normal-bottomleft" transform="translate(0,30)">
      <rect style="fill:none" width="12" height="6"/>
      <path class="BorderBackdrop" d="m 0,0 h 1 v 2 a 3,3 0 0 0 3,3 h 8 v 1 h -8 a 4,4 0 0 1 -4,-4"/>
      <path class="ButtonBorder" d="m 0,0 h 1 v 2 a 3,3 0 0 0 3,3 h 8 v 1 h -8 a 4,4 0 0 1 -4,-4"/>
      <path class="ButtonBackground" d="m 1,0 v 2 a 3,3 0 0 0 3,3 h 8 v -5"/>
    </g>
    <g id="normal-bottom" transform="translate(12,30)">
      <rect style="fill:none" width="12" height="6"/>
      <rect class="BorderBackdrop" y="5" width="12" height="1"/>
      <rect class="ButtonBorder" y="5" width="12" height="1"/>
      <rect class="ButtonBackground" width="12" height="5"/>
    </g>
    <g id="normal-bottomright" transform="translate(24,30)">
      <rect style="fill:none" width="12" height="6"/>
      <path class="BorderBackdrop" d="m 0,5 h 8 a 3,3 0 0 0 3,-3 v -2 h 1 v 2 a 4,4 0 0 1 -4,4 h -8 z"/>
      <path class="ButtonBorder" d="m 0,5 h 8 a 3,3 0 0 0 3,-3 v -2 h 1 v 2 a 4,4 0 0 1 -4,4 h -8 z"/>
      <path class="ButtonBackground" d="m 0,0 v 5 h 8 a 3,3 0 0 0 3,-3 v -2"/>
    </g>
  </g>

  <g transform="translate(42,2)">
    <g class="ButtonHover">
      <g id="hover-topleft">
        <rect style="fill:none" width="12" height="6"/>
        <path d="m 4,1 a 3,3 0 0 0 -3,3 v 2 h 11 v -5"/>
      </g>
      <g id="hover-top" transform="translate(12)">
        <rect style="fill:none" width="12" height="6"/>
        <rect y="1" width="12" height="5"/>
      </g>
      <g id="hover-topright" transform="translate(24)">
        <rect style="fill:none" width="12" height="6"/>
        <path d="m 0,1 v 5 h 11 v -2 a 3,3 0 0 0 -3,-3"/>
      </g>
      <g id="hover-left" transform="translate(0,6)">
        <rect style="fill:none" width="12" height="24"/>
        <rect x="1" width="11" height="24"/>
      </g>
      <g id="hover-center" transform="translate(12,6)">
        <rect width="12" height="24"/>
      </g>
      <g id="hover-right" transform="translate(24,6)">
        <rect style="fill:none" width="12" height="24"/>
        <rect width="11" height="24"/>
      </g>
      <g id="hover-bottomleft" transform="translate(0,30)">
        <rect style="fill:none" width="12" height="6"/>
        <path d="m 1,0 v 2 a 3,3 0 0 0 3,3 h 8 v -5"/>
      </g>
      <g id="hover-bottom" transform="translate(12,30)">
        <rect style="fill:none" width="12" height="6"/>
        <rect width="12" height="5"/>
      </g>
      <g id="hover-bottomright" transform="translate(24,30)">
        <rect style="fill:none" width="12" height="6"/>
        <path d="m 0,0 v 5 h 8 a 3,3 0 0 0 3,-3 v -2"/>
      </g>
    </g>
    <g style="fill:#B0BEC5">
      <rect id="hover-hint-top-margin" x="16" width="4" height="0.001"/>
      <rect id="hover-hint-bottom-margin" x="16" y="35" width="4" height="0.001"/>
      <rect id="hover-hint-left-margin" y="16" width="0.001" height="4"/>
      <rect id="hover-hint-right-margin" x="35" y="16" width="0.001" height="4"/>
    </g>
  </g>

  <g transform="translate(82,2)">
    <g id="pressed-topleft">
      <rect style="fill:none" width="12" height="6"/>
      <path class="BorderBackdrop" d="m 0,4 a 4,4, 0 0 1 4,-4 h 8 v 1 h -8 a 3,3 0 0 0 -3,3 v 2 h -1"/>
      <path class="ButtonBorder" d="m 0,4 a 4,4, 0 0 1 4,-4 h 8 v 1 h -8 a 3,3 0 0 0 -3,3 v 2 h -1"/>
      <path class="ButtonPressed" d="m 4,1 a 3,3 0 0 0 -3,3 v 2 h 11 v -5"/>
    </g>
    <g id="pressed-top" transform="translate(12)">
      <rect style="fill:none" width="12" height="6"/>
      <rect class="BorderBackdrop" width="12" height="1"/>
      <rect class="ButtonBorder" width="12" height="1"/>
      <rect class="ButtonPressed" y="1" width="12" height="5"/>
    </g>
    <g id="pressed-topright" transform="translate(24)">
      <rect style="fill:none" width="12" height="6"/>
      <path class="BorderBackdrop" d="m 0,0 h 8 a 4,4 0 0 1 4,4 v 2 h -1 v -2 a 3,3 0 0 0 -3,-3 h -8"/>
      <path class="ButtonBorder" d="m 0,0 h 8 a 4,4 0 0 1 4,4 v 2 h -1 v -2 a 3,3 0 0 0 -3,-3 h -8"/>
      <path class="ButtonPressed" d="m 0,1 v 5 h 11 v -2 a 3,3 0 0 0 -3,-3"/>
    </g>
    <g id="pressed-left" transform="translate(0,6)">
      <rect style="fill:none" width="12" height="24"/>
      <rect class="BorderBackdrop" width="1" height="24"/>
      <rect class="ButtonBorder" width="1" height="24"/>
      <rect class="ButtonPressed" x="1" width="11" height="24"/>
    </g>
    <g id="pressed-center" transform="translate(12,6)">
      <rect class="ButtonPressed" width="12" height="24"/>
    </g>
    <g id="pressed-right" transform="translate(24,6)">
      <rect style="fill:none" width="12" height="24"/>
      <rect class="BorderBackdrop" x="11" width="1" height="24"/>
      <rect class="ButtonBorder" x="11" width="1" height="24"/>
      <rect class="ButtonPressed" width="11" height="24"/>
    </g>
    <g id="pressed-bottomleft" transform="translate(0,30)">
      <rect style="fill:none" width="12" height="6"/>
      <path class="BorderBackdrop" d="m 0,0 h 1 v 2 a 3,3 0 0 0 3,3 h 8 v 1 h -8 a 4,4 0 0 1 -4,-4"/>
      <path class="ButtonBorder" d="m 0,0 h 1 v 2 a 3,3 0 0 0 3,3 h 8 v 1 h -8 a 4,4 0 0 1 -4,-4"/>
      <path class="ButtonPressed" d="m 1,0 v 2 a 3,3 0 0 0 3,3 h 8 v -5"/>
    </g>
    <g id="pressed-bottom" transform="translate(12,30)">
      <rect style="fill:none" width="12" height="6"/>
      <rect class="BorderBackdrop" y="5" width="12" height="1"/>
      <rect class="ButtonBorder" y="5" width="12" height="1"/>
      <rect class="ButtonPressed" width="12" height="5"/>
    </g>
    <g id="pressed-bottomright" transform="translate(24,30)">
      <rect style="fill:none" width="12" height="6"/>
      <path class="BorderBackdrop" d="m 0,5 h 8 a 3,3 0 0 0 3,-3 v -2 h 1 v 2 a 4,4 0 0 1 -4,4 h -8 z"/>
      <path class="ButtonBorder" d="m 0,5 h 8 a 3,3 0 0 0 3,-3 v -2 h 1 v 2 a 4,4 0 0 1 -4,4 h -8 z"/>
      <path class="ButtonPressed" d="m 0,0 v 5 h 8 a 3,3 0 0 0 3,-3 v -2"/>
    </g>
  </g>

  <g transform="translate(120)">
    <g id="focus-topleft">
      <rect style="fill:none" width="6" height="6"/>
      <path class="ButtonFocusInner" d="m 6,1 a 5,5 0 0 0 -5,5 h 1 a 4,4 0 0 1 4,-4 v -1"/>
      <path class="ButtonFocusOuter" d="m 6,0 a 6,6 0 0 0 -6,6 h 1 a 5,5 0 0 1 5,-5 v -1"/>
    </g>
    <g id="focus-top" transform="translate(6)">
      <rect style="fill:none" width="28" height="6"/>
      <rect class="ButtonFocusInner" y="1" width="28" height="1"/>
      <rect class="ButtonFocusOuter" width="28" height="1"/>
    </g>
    <g id="focus-topright" transform="translate(34)">
      <rect style="fill:none" width="6" height="6"/>
      <path class="ButtonFocusInner" d="m 0,1 v 1 a 4,4 0 0 1 4,4 h 1 a 5,5 0 0 0 -5,-5"/>
      <path class="ButtonFocusOuter" d="m 0,0 v 1 a 5,5 0 0 1 5,5 h 1 a 6,6 0 0 0 -6,-6"/>
    </g>
    <g id="focus-left" transform="translate(0,6)">
      <rect style="fill:none" width="6" height="28"/>
      <rect class="ButtonFocusInner" x="1" width="1" height="28"/>
      <rect class="ButtonFocusOuter" width="1" height="28"/>
    </g>
    <rect id="focus-center" style="fill:none" x="6" y="6" width="28" height="28"/>

    <g id="focus-right" transform="translate(34,6)">
      <rect style="fill:none" width="6" height="28"/>
      <rect class="ButtonFocusInner" x="4" width="1" height="28"/>
      <rect class="ButtonFocusOuter" x="5" width="1" height="28"/>
    </g>
    <g id="focus-bottomleft" transform="translate(0,34)">
      <rect style="fill:none" width="6" height="6"/>
      <path class="ButtonFocusInner" d="m 1,0 a 5,5 0 0 0 5,5 v -1 a 4,4 0 0 1 -4,-4"/>
      <path class="ButtonFocusOuter" d="m 0,0 a 6,6 0 0 0 6,6 v -1 a 5,5 0 0 1 -5,-5"/>
    </g>
    <g id="focus-bottom" transform="translate(6,34)">
      <rect style="fill:none" width="28" height="6"/>
      <rect class="ButtonFocusInner" y="4" width="28" height="1"/>
      <rect class="ButtonFocusOuter" y="5" width="28" height="1"/>
    </g>
    <g id="focus-bottomright" transform="translate(34,34)">
      <rect style="fill:none" width="6" height="6"/>
      <path class="ButtonFocusInner" d="m 0,4 v 1 a 5,5 0 0 0 5,-5 h -1 a 4,4 0 0 1 -4,4"/>
      <path class="ButtonFocusOuter" d="m 0,5 v 1 a 6,6 0 0 0 6,-6 h -1 a 5,5 0 0 1 -5,5"/>
    </g>
    <g style="fill:#B0BEC5">
      <rect id="focus-hint-top-margin" x="18" width="4" height="2"/>
      <rect id="focus-hint-bottom-margin" x="18" y="38" width="4" height="2"/>
      <rect id="focus-hint-left-margin" y="18" width="2" height="4"/>
      <rect id="focus-hint-right-margin" x="38" y="18" width="2" height="4"/>
    </g>
  </g>

  <!-- Toolbuttons -->

  <g class="ToolButtonHover" transform="translate(42,42)">
    <path id="toolbutton-hover-topleft" d="m 4,0 a 4,4 0 0 0 -4,4 h 4"/>
    <rect id="toolbutton-hover-top" x="4" width="28" height="4"/>
    <path id="toolbutton-hover-topright" d="m 32,4 h 4 a 4,4 0 0 0 -4,-4"/>
    <rect id="toolbutton-hover-left" y="4" width="4" height="28"/>
    <rect id="toolbutton-hover-center" x="4" y="4" width="28" height="28"/>
    <rect id="toolbutton-hover-right" x="32" y="4" width="4" height="28"/>
    <path id="toolbutton-hover-bottomleft" d="m 0,32 a 4,4 0 0 0 4,4 v -4"/>
    <rect id="toolbutton-hover-bottom" x="4" y="32" width="28" height="4"/>
    <path id="toolbutton-hover-bottomright" d="m 32,36 a 4,4 0 0 0 4,-4 h -4"/>
  </g>
  <g class="ToolButtonPressed" transform="translate(82,42)">
    <path id="toolbutton-pressed-topleft" d="m 4,0 a 4,4 0 0 0 -4,4 h 4"/>
    <rect id="toolbutton-pressed-top" x="4" width="28" height="4"/>
    <path id="toolbutton-pressed-topright" d="m 32,4 h 4 a 4,4 0 0 0 -4,-4"/>
    <rect id="toolbutton-pressed-left" y="4" width="4" height="28"/>
    <rect id="toolbutton-pressed-center" x="4" y="4" width="28" height="28"/>
    <rect id="toolbutton-pressed-right" x="32" y="4" width="4" height="28"/>
    <path id="toolbutton-pressed-bottomleft" d="m 0,32 a 4,4 0 0 0 4,4 v -4"/>
    <rect id="toolbutton-pressed-bottom" x="4" y="32" width="28" height="4"/>
    <path id="toolbutton-pressed-bottomright" d="m 32,36 a 4,4 0 0 0 4,-4 h -4"/>
  </g>
  <g transform="translate(122,42)">
    <g class="ToolButtonFocus">
      <path id="toolbutton-focus-topleft" d="m 4,0 a 4,4 0 0 0 -4,4 h 4"/>
      <rect id="toolbutton-focus-top" x="4" width="28" height="4"/>
      <path id="toolbutton-focus-topright" d="m 32,4 h 4 a 4,4 0 0 0 -4,-4"/>
      <rect id="toolbutton-focus-left" y="4" width="4" height="28"/>
      <rect id="toolbutton-focus-center" x="4" y="4" width="28" height="28"/>
      <rect id="toolbutton-focus-right" x="32" y="4" width="4" height="28"/>
      <path id="toolbutton-focus-bottomleft" d="m 0,32 a 4,4 0 0 0 4,4 v -4"/>
      <rect id="toolbutton-focus-bottom" x="4" y="32" width="28" height="4"/>
      <path id="toolbutton-focus-bottomright" d="m 32,36 a 4,4 0 0 0 4,-4 h -4"/>
    </g>
    <g style="fill:#B0BEC5">
      <rect id="toolbutton-focus-hint-top-margin" x="16" width="4" height="0.001"/>
      <rect id="toolbutton-focus-hint-bottom-margin" x="16" y="35" width="4" height="0.001"/>
      <rect id="toolbutton-focus-hint-left-margin" y="16" width="0.001" height="4"/>
      <rect id="toolbutton-focus-hint-right-margin" x="35" y="16" width="0.001" height="4"/>
    </g>
  </g>
</svg>
