<?xml version="1.0" encoding="UTF-8"?>
<svg xmlns="http://www.w3.org/2000/svg" viewBox="0 0 160 80">
  <defs>
    <style type="text/css">
      .ButtonBackground { fill: #909090; fill-opacity: 0.5 }
      .ButtonHover { fill: black; fill-opacity: 0.065 }
      .ButtonPressed { fill: #909090; fill-opacity: 0.75 }
      .ButtonFocusInner { fill: #2670D0; fill-opacity: 0.875 }
      .ButtonFocusOuter { fill: #2670D0; fill-opacity: 0.625 }
      .ToolButtonHover { fill: #303030; fill-opacity: 0.125 /*fill: #C0C0C0*/ }
      .ToolButtonPressed { fill: #A8A8A8 }
      .ToolButtonFocus { fill: #9AB7DB }
    </style>
  </defs>

  <!-- Buttons -->

  <g class="ButtonBackground" transform="translate(2,2)">
    <path id="normal-topleft" d="m 4,0 a 4,4 0 0 0 -4,4 v 2 h 12 v -6"/>
    <rect id="normal-top" x="12"  width="12" height="6"/>
    <path id="normal-topright" d="m 24,0 v 6 h 12 v -2 a 4,4 0 0 0 -4,-4"/>
    <rect id="normal-left" y="6" width="12" height="24"/>
    <rect id="normal-center" x="12" y="6" width="12" height="24"/>
    <rect id="normal-right" x="24" y="6" width="12" height="24"/>
    <path id="normal-bottomleft" d="m 0,30 v 2 a 4,4 0 0 0 4,4 h 8 v -6"/>
    <rect id="normal-bottom" x="12" y="30" width="12" height="6"/>
    <path id="normal-bottomright" d="m 24,30 v 6 h 8 a 4,4 0 0 0 4,-4 v -2"/>
  </g>
  <g transform="translate(42,2)">
    <g class="ButtonHover">
      <path id="hover-topleft" d="m 4,0 a 4,4 0 0 0 -4,4 v 2 h 12 v -6"/>
      <rect id="hover-top" x="12"  width="12" height="6"/>
      <path id="hover-topright" d="m 24,0 v 6 h 12 v -2 a 4,4 0 0 0 -4,-4"/>
      <rect id="hover-left" y="6" width="12" height="24"/>
      <rect id="hover-center" x="12" y="6" width="12" height="24"/>
      <rect id="hover-right" x="24" y="6" width="12" height="24"/>
      <path id="hover-bottomleft" d="m 0,30 v 2 a 4,4 0 0 0 4,4 h 8 v -6"/>
      <rect id="hover-bottom" x="12" y="30" width="12" height="6"/>
      <path id="hover-bottomright" d="m 24,30 v 6 h 8 a 4,4 0 0 0 4,-4 v -2"/>
    </g>
    <g style="fill:#B0BEC5">
      <rect id="hover-hint-top-margin" x="16" width="4" height="0.001"/>
      <rect id="hover-hint-bottom-margin" x="16" y="35" width="4" height="0.001"/>
      <rect id="hover-hint-left-margin" y="16" width="0.001" height="4"/>
      <rect id="hover-hint-right-margin" x="35" y="16" width="0.001" height="4"/>
    </g>

    <!-- Note: The 'hover' elements are painted behind the 'normal' elements. -->
    <path class="ButtonBackground" d="m 4,0 a 4,4 0 0 0 -4,4 v 28 a 4,4 0 0 0 4,4 h 28 a 4,4 0 0 0 4,-4 v -28 a 4,4 0 0 0 -4,-4"/>
  </g>

  <g transform="translate(82,2)">
    <g class="ButtonPressed">
      <path id="pressed-topleft" d="m 4,0 a 4,4 0 0 0 -4,4 v 2 h 12 v -6"/>
      <rect id="pressed-top" x="12"  width="12" height="6"/>
      <path id="pressed-topright" d="m 24,0 v 6 h 12 v -2 a 4,4 0 0 0 -4,-4"/>
      <rect id="pressed-left" y="6" width="12" height="24"/>
      <rect id="pressed-center" x="12" y="6" width="12" height="24"/>
      <rect id="pressed-right" x="24" y="6" width="12" height="24"/>
      <path id="pressed-bottomleft" d="m 0,30 v 2 a 4,4 0 0 0 4,4 h 8 v -6"/>
      <rect id="pressed-bottom" x="12" y="30" width="12" height="6"/>
      <path id="pressed-bottomright" d="m 24,30 v 6 h 8 a 4,4 0 0 0 4,-4 v -2"/>
    </g>
  </g>

  <g transform="translate(120)">
    <g id="focus-topleft">
      <rect style="fill:none" width="6" height="6"/>
      <path class="ButtonFocusInner" d="m 6,1 a 5,5 0 0 0 -5,5 h 1 a 4,4 0 0 1 4,-4 v -1"/>
      <path class="ButtonFocusOuter" d="m 6,0 a 6,6 0 0 0 -6,6 h 1 a 5,5 0 0 1 5,-5 v -1"/>
    </g>
    <g id="focus-top" transform="translate(6)">
      <rect style="fill:none" width="28" height="6"/>
      <rect class="ButtonFocusInner" y="1" width="28" height="1"/>
      <rect class="ButtonFocusOuter" width="28" height="1"/>
    </g>
    <g id="focus-topright" transform="translate(34)">
      <rect style="fill:none" width="6" height="6"/>
      <path class="ButtonFocusInner" d="m 0,1 v 1 a 4,4 0 0 1 4,4 h 1 a 5,5 0 0 0 -5,-5"/>
      <path class="ButtonFocusOuter" d="m 0,0 v 1 a 5,5 0 0 1 5,5 h 1 a 6,6 0 0 0 -6,-6"/>
    </g>
    <g id="focus-left" transform="translate(0,6)">
      <rect style="fill:none" width="6" height="28"/>
      <rect class="ButtonFocusInner" x="1" width="1" height="28"/>
      <rect class="ButtonFocusOuter" width="1" height="28"/>
    </g>
    <rect id="focus-center" style="fill:none" x="6" y="6" width="28" height="28"/>

    <g id="focus-right" transform="translate(34,6)">
      <rect style="fill:none" width="6" height="28"/>
      <rect class="ButtonFocusInner" x="4" width="1" height="28"/>
      <rect class="ButtonFocusOuter" x="5" width="1" height="28"/>
    </g>
    <g id="focus-bottomleft" transform="translate(0,34)">
      <rect style="fill:none" width="6" height="6"/>
      <path class="ButtonFocusInner" d="m 1,0 a 5,5 0 0 0 5,5 v -1 a 4,4 0 0 1 -4,-4"/>
      <path class="ButtonFocusOuter" d="m 0,0 a 6,6 0 0 0 6,6 v -1 a 5,5 0 0 1 -5,-5"/>
    </g>
    <g id="focus-bottom" transform="translate(6,34)">
      <rect style="fill:none" width="28" height="6"/>
      <rect class="ButtonFocusInner" y="4" width="28" height="1"/>
      <rect class="ButtonFocusOuter" y="5" width="28" height="1"/>
    </g>
    <g id="focus-bottomright" transform="translate(34,34)">
      <rect style="fill:none" width="6" height="6"/>
      <path class="ButtonFocusInner" d="m 0,4 v 1 a 5,5 0 0 0 5,-5 h -1 a 4,4 0 0 1 -4,4"/>
      <path class="ButtonFocusOuter" d="m 0,5 v 1 a 6,6 0 0 0 6,-6 h -1 a 5,5 0 0 1 -5,5"/>
    </g>
    <g style="fill:#B0BEC5">
      <rect id="focus-hint-top-margin" x="18" width="4" height="2"/>
      <rect id="focus-hint-bottom-margin" x="18" y="38" width="4" height="2"/>
      <rect id="focus-hint-left-margin" y="18" width="2" height="4"/>
      <rect id="focus-hint-right-margin" x="38" y="18" width="2" height="4"/>
    </g>
  </g>

  <!-- Toolbuttons -->

  <g class="ToolButtonHover" transform="translate(42,42)">
    <path id="toolbutton-hover-topleft" d="m 4,0 a 4,4 0 0 0 -4,4 h 4"/>
    <rect id="toolbutton-hover-top" x="4" width="28" height="4"/>
    <path id="toolbutton-hover-topright" d="m 32,4 h 4 a 4,4 0 0 0 -4,-4"/>
    <rect id="toolbutton-hover-left" y="4" width="4" height="28"/>
    <rect id="toolbutton-hover-center" x="4" y="4" width="28" height="28"/>
    <rect id="toolbutton-hover-right" x="32" y="4" width="4" height="28"/>
    <path id="toolbutton-hover-bottomleft" d="m 0,32 a 4,4 0 0 0 4,4 v -4"/>
    <rect id="toolbutton-hover-bottom" x="4" y="32" width="28" height="4"/>
    <path id="toolbutton-hover-bottomright" d="m 32,36 a 4,4 0 0 0 4,-4 h -4"/>
  </g>
  <g class="ToolButtonPressed" transform="translate(82,42)">
    <path id="toolbutton-pressed-topleft" d="m 4,0 a 4,4 0 0 0 -4,4 h 4"/>
    <rect id="toolbutton-pressed-top" x="4" width="28" height="4"/>
    <path id="toolbutton-pressed-topright" d="m 32,4 h 4 a 4,4 0 0 0 -4,-4"/>
    <rect id="toolbutton-pressed-left" y="4" width="4" height="28"/>
    <rect id="toolbutton-pressed-center" x="4" y="4" width="28" height="28"/>
    <rect id="toolbutton-pressed-right" x="32" y="4" width="4" height="28"/>
    <path id="toolbutton-pressed-bottomleft" d="m 0,32 a 4,4 0 0 0 4,4 v -4"/>
    <rect id="toolbutton-pressed-bottom" x="4" y="32" width="28" height="4"/>
    <path id="toolbutton-pressed-bottomright" d="m 32,36 a 4,4 0 0 0 4,-4 h -4"/>
  </g>
  <g transform="translate(122,42)">
    <g class="ToolButtonFocus">
      <path id="toolbutton-focus-topleft" d="m 4,0 a 4,4 0 0 0 -4,4 h 4"/>
      <rect id="toolbutton-focus-top" x="4" width="28" height="4"/>
      <path id="toolbutton-focus-topright" d="m 32,4 h 4 a 4,4 0 0 0 -4,-4"/>
      <rect id="toolbutton-focus-left" y="4" width="4" height="28"/>
      <rect id="toolbutton-focus-center" x="4" y="4" width="28" height="28"/>
      <rect id="toolbutton-focus-right" x="32" y="4" width="4" height="28"/>
      <path id="toolbutton-focus-bottomleft" d="m 0,32 a 4,4 0 0 0 4,4 v -4"/>
      <rect id="toolbutton-focus-bottom" x="4" y="32" width="28" height="4"/>
      <path id="toolbutton-focus-bottomright" d="m 32,36 a 4,4 0 0 0 4,-4 h -4"/>
    </g>
    <g style="fill:#B0BEC5">
      <rect id="toolbutton-focus-hint-top-margin" x="16" width="4" height="0.001"/>
      <rect id="toolbutton-focus-hint-bottom-margin" x="16" y="35" width="4" height="0.001"/>
      <rect id="toolbutton-focus-hint-left-margin" y="16" width="0.001" height="4"/>
      <rect id="toolbutton-focus-hint-right-margin" x="35" y="16" width="0.001" height="4"/>
    </g>
  </g>
</svg>
