<?xml version="1.0" encoding="UTF-8"?>
<svg xmlns="http://www.w3.org/2000/svg" viewBox="0 0 40 28">
  <defs>
    <style type="text/css">
      .Background { fill: white; fill-opacity: 0.5 }
      .Border { fill: #303030; fill-opacity: 0.125 }
    </style>
  </defs>

  <g id="base-topleft">
    <path class="Background" d="m 4,1 a 3,3 0 0 0 -3,3 v 2 h 11 v -5"/>
    <path class="Border" d="m 0,4 a 4,4, 0 0 1 4,-4 h 8 v 1 h -8 a 3,3 0 0 0 -3,3 v 2 h -1"/>
  </g>
  <g id="base-top" transform="translate(12)">
    <rect class="Background" y="1" width="16" height="5"/>
    <rect class="Border" width="16" height="1"/>
  </g>
  <g id="base-topright" transform="translate(28)">
    <path class="Background" d="m 0,1 v 5 h 11 v -2 a 3,3 0 0 0 -3,-3"/>
    <path class="Border" d="m 0,0 h 8 a 4,4 0 0 1 4,4 v 2 h -1 v -2 a 3,3 0 0 0 -3,-3 h -8"/>
  </g>
  <g id="base-left" transform="translate(0,6)">
    <rect class="Background" x="1" width="11" height="16"/>
    <rect class="Border" width="1" height="16"/>
  </g>
  <rect class="Background" id="base-center" x="12" y="6" width="16" height="16"/>

  <g id="base-right" transform="translate(28,6)">
    <rect class="Background" width="11" height="16"/>
    <rect class="Border" x="11" width="1" height="16"/>
  </g>
  <g id="base-bottomleft" transform="translate(0,22)">
    <path class="Background" d="m 1,0 v 2 a 3,3 0 0 0 3,3 h 8 v -5"/>
    <path class="Border" d="m 0,0 h 1 v 2 a 3,3 0 0 0 3,3 h 8 v 1 h -8 a 4,4 0 0 1 -4,-4"/>
  </g>
  <g id="base-bottom" transform="translate(12,22)">
    <rect class="Background" width="16" height="5"/>
    <rect class="Border" y="5" width="16" height="1"/>
  </g>
  <g id="base-bottomright" transform="translate(28,22)">
    <path class="Background" d="m 0,0 v 5 h 8 a 3,3 0 0 0 3,-3 v -2"/>
    <path class="Border" d="m 0,5 h 8 a 3,3 0 0 0 3,-3 v -2 h 1 v 2 a 4,4 0 0 1 -4,4 h -8 z"/>
  </g>
</svg>
