<?xml version="1.0" encoding="UTF-8"?>
<svg xmlns="http://www.w3.org/2000/svg" viewBox="0 0 40 28">
  <defs>
    <style type="text/css">
      .Backdrop { fill: white; fill-opacity: 0.75 }
      .Background { fill: black; fill-opacity: 0.1875 }
    </style>
  </defs>

  <g id="base-topleft">
    <path class="Backdrop" d="m 0,4 a 4,4 0 0 1 4,-4 h 8 v 6 h -12 z"/>
    <path class="Background" d="m 0,4 a 4,4 0 0 1 4,-4 h 8 v 6 h -12 z"/>
  </g>
  <g id="base-top" transform="translate(12)">
    <rect class="Backdrop" width="16" height="6"/>
    <rect class="Background" width="16" height="6"/>

  </g>
  <g id="base-topright" transform="translate(28)">
    <path class="Backdrop" d="m 0,0 h 8 a 4,4 0 0 1 4,4 v 2 h -12 z"/>
    <path class="Background" d="m 0,0 h 8 a 4,4 0 0 1 4,4 v 2 h -12 z"/>
  </g>
  <g id="base-left" transform="translate(0,6)">
    <rect class="Backdrop" width="12" height="16"/>
    <rect class="Background" width="12" height="16"/>
  </g>
  <g id="base-center">
    <rect class="Backdrop" x="12" y="6" width="16" height="16"/>
    <rect class="Background" x="12" y="6" width="16" height="16"/>
  </g>
  <g id="base-right" transform="translate(28,6)">
    <rect class="Backdrop" width="12" height="16"/>
    <rect class="Background" width="12" height="16"/>
  </g>
  <g id="base-bottomleft" transform="translate(0,22)">
    <path class="Backdrop" d="m 0,0 h 12 v 6 h -8 a 4,4 0 0 1 -4,-4 z"/>
    <path class="Background" d="m 0,0 h 12 v 6 h -8 a 4,4 0 0 1 -4,-4 z"/>
  </g>
  <g id="base-bottom" transform="translate(12,22)">
    <rect class="Backdrop" width="16" height="6"/>
    <rect class="Background" width="16" height="6"/>
  </g>
  <g id="base-bottomright" transform="translate(28,22)">
    <path class="Backdrop" d="m 0,0 h 12 v 2 a 4,4 0 0 1 -4,4 h -8 z"/>
    <path class="Background" d="m 0,0 h 12 v 2 a 4,4 0 0 1 -4,4 h -8 z"/>
  </g>
</svg>
