<?xml version="1.0" encoding="UTF-8"?>
<svg xmlns="http://www.w3.org/2000/svg" viewBox="0 0 48 24">
  <defs>
    <style type="text/css">
      .Slider { fill: black; fill-opacity: 0.2 }
      .SliderHover { fill: black; fill-opacity: 0.2 }
      .Hint { fill: #CA7921; fill-opacity: 0.5 }
    </style>
  </defs>

  <!-- Surface -->

  <g transform="translate(6,0)">
    <g id="slider-topleft">
      <rect style="fill:none" width="6" height="6"/>
      <path class="Slider" d="m 2,6 a 4,4 0 0 1 4,-4 v 4 z"/>
    </g>
    <g id="slider-top" transform="translate(5,0)">
      <rect style="fill:none" width="2" height="4"/>
    </g>
    <g id="slider-topright" transform="translate(6,0)">
      <rect style="fill:none" width="6" height="6"/>
      <path class="Slider" d="m 0,2 a 4,4 0 0 1 4,4 h -4 z"/>
    </g>
    <g id="slider-left" transform="translate(0,6)">
      <rect style="fill:none" width="2" height="12"/>
      <rect class="Slider" x="2" width="4" height="12"/>
    </g>
    <g id="slider-center" transform="translate(5,6)">
      <rect style="fill:none" width="2" height="12"/>
    </g>
    <g id="slider-right" transform="translate(6,6)">
      <rect style="fill:none" x="4" width="2" height="12"/>
      <rect class="Slider" width="4" height="12"/>
    </g>
    <g id="slider-bottomleft" transform="translate(0,18)">
      <rect style="fill:none" width="6" height="6"/>
      <path class="Slider" d="m 2,0 h 4 v 4 a 4,4 0 0 1 -4,-4 z"/>
    </g>
    <g id="slider-bottom" transform="translate(5,18)">
      <rect style="fill:none" width="2" height="4"/>
    </g>
    <g id="slider-bottomright" transform="translate(6,18)">
      <rect style="fill:none" width="6" height="6"/>
      <path class="Slider" d="m 0,0 h 4 a 4,4 0 0 1 -4,4 z"/>
    </g>
  </g>

  <g transform="translate(30,0)">
    <g id="mouseover-slider-topleft">
      <rect style="fill:none" width="6" height="6"/>
      <path class="SliderHover" d="m 2,6 a 4,4 0 0 1 4,-4 v 4 z"/>
    </g>
    <g id="mouseover-slider-top" transform="translate(5,0)">
      <rect style="fill:none" width="2" height="4"/>
    </g>
    <g id="mouseover-slider-topright" transform="translate(6,0)">
      <rect style="fill:none" width="6" height="6"/>
      <path class="SliderHover" d="m 0,2 a 4,4 0 0 1 4,4 h -4 z"/>
    </g>
    <g id="mouseover-slider-left" transform="translate(0,6)">
      <rect style="fill:none" width="2" height="12"/>
      <rect class="SliderHover" x="2" width="4" height="12"/>
    </g>
    <g id="mouseover-slider-center" transform="translate(5,6)">
      <rect style="fill:none" width="2" height="12"/>
    </g>
    <g id="mouseover-slider-right" transform="translate(6,6)">
      <rect style="fill:none" x="4" width="2" height="12"/>
      <rect class="SliderHover" width="4" height="12"/>
    </g>
    <g id="mouseover-slider-bottomleft" transform="translate(0,18)">
      <rect style="fill:none" width="6" height="6"/>
      <path class="SliderHover" d="m 2,0 h 4 v 4 a 4,4 0 0 1 -4,-4 z"/>
    </g>
    <g id="mouseover-slider-bottom" transform="translate(5,18)">
      <rect style="fill:none" width="2" height="4"/>
    </g>
    <g id="mouseover-slider-bottomright" transform="translate(6,18)">
      <rect style="fill:none" width="6" height="6"/>
      <path class="SliderHover" d="m 0,0 h 4 a 4,4 0 0 1 -4,4 z"/>
    </g>
  </g>

  <!-- Hints -->

  <g class="Hint">
    <rect id="hint-scrollbar-size" x="-18" y="-6" width="12" height="12"/>
  </g>
</svg>
