<?xml version="1.0" encoding="UTF-8"?>
<svg xmlns="http://www.w3.org/2000/svg" viewBox="0 0 512 320">
  <defs>
    <style type="text/css">
      .Background { fill: white; fill-opacity: 0.375 }
      .Indicator { fill: black; fill-opacity: 0.1875 }
      .FocusIndicator { fill: #2670D0 }
      .ProgressOverlay { fill: #2670D0; fill-opacity: 0.25 }
      .ProgressIndicator { fill: #1D569C }
      .AttentationBackground { fill: #F57F17; fill-opacity: 0.25 }
      .AttentationIndicator { fill: #B96011 }
      .Icon { fill: black; fill-opacity: 0.6125 }
      .IconOutline { fill: white; fill-opacity: 0.5 }
      .Border { fill: black; fill-opacity: 0.1875 }
    </style>
  </defs>

  <rect style="fill:#F0F0F0" width="100%" height="100%"/>

  <!-- south -->

  <g transform="translate(96,252)">
    <rect style="fill:#303030;fill-opacity:0.25" width="320" height="1"/>

    <g>
      <g id="normal-topleft">
        <rect style="fill:none" width="4" height="4"/>
        <rect class="Background" x="1" width="3" height="4"/>
        <rect class="Border" x="1" y="0" width="1" height="4"/>
      </g>
      <g id="normal-top" transform="translate(4,0)">
        <rect class="Background" width="56" height="4"/>
      </g>
      <g id="normal-topright" transform="translate(60,0)">
        <rect style="fill:none" width="4" height="4"/>
        <rect class="Background" width="3" height="4"/>
        <rect class="Border" x="2" y="0" width="1" height="4"/>
      </g>
      <g id="normal-left" transform="translate(0,4)">
        <rect style="fill:none" width="4" height="56"/>
        <rect class="Background" x="1" width="3" height="56"/>
        <rect class="Border" x="1" width="1" height="56"/>
      </g>
      <g id="normal-center" transform="translate(4,4)">
        <rect class="Background" width="56" height="56"/>
      </g>
      <g id="normal-right" transform="translate(60,4)">
        <rect style="fill:none" width="4" height="56"/>
        <rect class="Background" width="3" height="56"/>
        <rect class="Border" x="2" width="1" height="56"/>
      </g>
      <g id="normal-bottomleft" transform="translate(0,60)">
        <rect style="fill:none" width="4" height="4"/>
        <rect class="Background" x="1" width="3" height="1"/>
        <rect class="Indicator" x="1" y="1" width="3" height="3"/>
        <rect class="Border" x="1" width="1" height="4"/>
      </g>
      <g id="normal-bottom" transform="translate(4,60)">
        <rect class="Background" width="56" height="1"/>
        <rect class="Indicator" y="1" width="56" height="3"/>
      </g>
      <g id="normal-bottomright" transform="translate(60,60)">
        <rect style="fill:none" width="4" height="4"/>
        <rect class="Background" width="3" height="1"/>
        <rect class="Indicator" y="1" width="3" height="3"/>
        <rect class="Border" x="2" width="1" height="4"/>
      </g>
    </g>
    <g transform="translate(64,0)">
      <g id="minimized-topleft">
        <rect style="fill:none" width="4" height="4"/>
        <rect class="Background" x="1" width="3" height="4"/>
        <rect class="Border" x="1" y="1" width="1" height="3"/>
      </g>
      <g id="minimized-top" transform="translate(4,0)">
        <rect class="Background" width="56" height="4"/>
      </g>
      <g id="minimized-topright" transform="translate(60,0)">
        <rect style="fill:none" width="4" height="4"/>
        <rect class="Background" width="3" height="4"/>
        <rect class="Border" x="2" y="1" width="1" height="3"/>
      </g>
      <g id="minimized-left" transform="translate(0,4)">
        <rect style="fill:none" width="4" height="56"/>
        <rect class="Background" x="1" width="3" height="56"/>
        <rect class="Border" x="1" width="1" height="56"/>
      </g>
      <g id="minimized-center" transform="translate(4,4)">
        <rect class="Background" width="56" height="56"/>
      </g>
      <g id="minimized-right" transform="translate(60,4)">
        <rect style="fill:none" width="4" height="56"/>
        <rect class="Background" width="3" height="56"/>
        <rect class="Border" x="2" width="1" height="56"/>
      </g>
      <g id="minimized-bottomleft" transform="translate(0,60)">
        <rect style="fill:none" width="4" height="4"/>
        <rect class="Background" x="1" width="3" height="1"/>
        <rect class="Indicator" x="1" y="1" width="3" height="3"/>
        <rect class="Border" x="1" width="1" height="4"/>
      </g>
      <g id="minimized-bottom" transform="translate(4,60)">
        <rect class="Background" width="56" height="1"/>
        <rect class="Indicator" y="1" width="56" height="3"/>
      </g>
      <g id="minimized-bottomright" transform="translate(60,60)">
        <rect style="fill:none" width="4" height="4"/>
        <rect class="Background" width="3" height="1"/>
        <rect class="Indicator" y="1" width="3" height="3"/>
        <rect class="Border" x="2" width="1" height="4"/>
      </g>
    </g>
    <g transform="translate(128,0)">
      <g id="focus-topleft">
        <rect style="fill:none" width="4" height="4"/>
        <rect class="Background" x="1" width="3" height="4"/>
        <rect class="Border" x="1" y="1" width="1" height="3"/>
      </g>
      <g id="focus-top" transform="translate(4,0)">
        <rect class="Background" width="56" height="4"/>
      </g>
      <g id="focus-topright" transform="translate(60,0)">
        <rect style="fill:none" width="4" height="4"/>
        <rect class="Background" width="3" height="4"/>
        <rect class="Border" x="2" y="1" width="1" height="3"/>
      </g>
      <g id="focus-left" transform="translate(0,4)">
        <rect style="fill:none" width="4" height="56"/>
        <rect class="Background" x="1" width="3" height="56"/>
        <rect class="Border" x="1" width="1" height="56"/>
      </g>
      <g id="focus-center" transform="translate(4,4)">
        <rect class="Background" width="56" height="56"/>
      </g>
      <g id="focus-right" transform="translate(60,4)">
        <rect style="fill:none" width="4" height="56"/>
        <rect class="Background" width="3" height="56"/>
        <rect class="Border" x="2" width="1" height="56"/>
      </g>
      <g id="focus-bottomleft" transform="translate(0,60)">
        <rect style="fill:none" width="4" height="4"/>
        <rect class="Background" x="1" width="3" height="1"/>
        <rect class="FocusIndicator" x="1" y="1" width="3" height="3"/>
        <rect class="Border" x="1" width="1" height="4"/>
      </g>
      <g id="focus-bottom" transform="translate(4,60)">
        <rect class="Background" width="56" height="1"/>
        <rect class="FocusIndicator" y="1" width="56" height="3"/>
      </g>
      <g id="focus-bottomright" transform="translate(60,60)">
        <rect style="fill:none" width="4" height="4"/>
        <rect class="Background" width="3" height="1"/>
        <rect class="FocusIndicator" y="1" width="3" height="3"/>
        <rect class="Border" x="2" width="1" height="4"/>
      </g>
    </g>
    <g transform="translate(192,0)">
      <g id="attention-topleft">
        <rect style="fill:none" width="4" height="4"/>
        <rect class="AttentationBackground" x="1" width="3" height="4"/>
        <rect class="Border" x="1" y="1" width="1" height="3"/>
      </g>
      <g id="attention-top" transform="translate(4,0)">
        <rect class="AttentationBackground" width="56" height="4"/>
      </g>
      <g id="attention-topright" transform="translate(60,0)">
        <rect style="fill:none" width="4" height="4"/>
        <rect class="AttentationBackground" width="3" height="4"/>
        <rect class="Border" x="2" y="1" width="1" height="3"/>
      </g>
      <g id="attention-left" transform="translate(0,4)">
        <rect style="fill:none" width="4" height="56"/>
        <rect class="AttentationBackground" x="1" width="3" height="56"/>
        <rect class="Border" x="1" width="1" height="56"/>
      </g>
      <g id="attention-center" transform="translate(4,4)">
        <rect class="AttentationBackground" width="56" height="56"/>
      </g>
      <g id="attention-right" transform="translate(60,4)">
        <rect style="fill:none" width="4" height="56"/>
        <rect class="AttentationBackground" width="3" height="56"/>
        <rect class="Border" x="2" width="1" height="56"/>
      </g>
      <g id="attention-bottomleft" transform="translate(0,60)">
        <rect style="fill:none" width="4" height="4"/>
        <rect class="AttentationBackground" x="1" width="3" height="1"/>
        <rect class="AttentationIndicator" x="1" y="1" width="3" height="3"/>
        <rect class="Border" x="1" width="1" height="4"/>
      </g>
      <g id="attention-bottom" transform="translate(4,60)">
        <rect class="AttentationBackground" width="56" height="1"/>
        <rect class="AttentationIndicator" y="1" width="56" height="3"/>
      </g>
      <g id="attention-bottomright" transform="translate(60,60)">
        <rect style="fill:none" width="4" height="4"/>
        <rect class="AttentationBackground" width="3" height="1"/>
        <rect class="AttentationIndicator" y="1" width="3" height="3"/>
        <rect class="Border" x="2" width="1" height="4"/>
      </g>
    </g>
    <g transform="translate(256,0)">
      <g id="progress-topleft">
        <rect style="fill:none" width="4" height="4"/>
        <rect class="ProgressOverlay" x="1" width="3" height="4"/>
      </g>
      <g id="progress-top" transform="translate(4,0)">
        <rect class="ProgressOverlay" width="56" height="4"/>
      </g>
      <g id="progress-topright" transform="translate(60,0)">
        <rect style="fill:none" width="4" height="4"/>
        <rect class="ProgressOverlay" width="3" height="4"/>
      </g>
      <g id="progress-left" transform="translate(0,4)">
        <rect style="fill:none" width="4" height="56"/>
        <rect class="ProgressOverlay" x="1" width="3" height="56"/>
      </g>
      <g id="progress-center" transform="translate(4,4)">
        <rect class="ProgressOverlay" width="56" height="56"/>
      </g>
      <g id="progress-right" transform="translate(60,4)">
        <rect style="fill:none" width="4" height="56"/>
        <rect class="ProgressOverlay" width="3" height="56"/>
      </g>
      <g id="progress-bottomleft" transform="translate(0,60)">
        <rect style="fill:none" width="4" height="4"/>
        <rect class="ProgressOverlay" x="1" width="3" height="1"/>
        <rect class="ProgressIndicator" x="1" y="1" width="3" height="3"/>
        <rect class="Border" x="1" y="1" width="1" height="3"/>
      </g>
      <g id="progress-bottom" transform="translate(4,60)">
        <rect class="ProgressOverlay" width="56" height="1"/>
        <rect class="ProgressIndicator" y="1" width="56" height="3"/>
      </g>
      <g id="progress-bottomright" transform="translate(60,60)">
        <rect style="fill:none" width="4" height="4"/>
        <rect class="ProgressOverlay" width="3" height="1"/>
        <rect class="ProgressIndicator" y="1" width="3" height="3"/>
        <rect class="Border" x="2" y="1" width="1" height="3"/>
      </g>
    </g>
    <g id="group-expander-bottom" transform="translate(4,36)">
      <rect style="fill:none" width="56" height="28"/>
      <g transform="translate(35,5)">
        <g class="IconOutline">
          <path d="M 2,0 a 2,2 0 0 0 -2,2 v 12 a 2,2 0 0 0 2,2 h 1 v 1 a 2,2 0 0 0 2,2 h 14 a 2,2 0 0 0 2,-2 v -12 a 2,2 0 0 0 -2,-2 h -1 v -1 a 2,2 0 0 0 -2,-2
                   M 1,2 a 1,1 0 0 1 1,-1 h 14 a 1,1 0 0 1 1,1 v 1 h -12 a 2,2 0 0 0 -2,2 v 10 h -1 a 1,1 0 0 1 -1,-1
                   M 4,5 a 1,1 0 0 1 1,-1 h 14 a 1,1 0 0 1 1,1 v 12 a 1,1 0 0 1 -1,1 h -14 a 1,1 0 0 1 -1,-1"/>
          <path d="M 6,8 v 8 h 12 v -8 z m 1,1 h 10 v 6 h -10"/>
        </g>
        <g class="Icon">
          <path d="m 5,4 a 1,1 0 0 0 -1,1 v 12 a 1,1 0 0 0 1,1 h 14 a 1,1 0 0 0 1,-1 v -12 a 1,1 0 0 0 -1,-1 z m 1,4 h 12 v 8 h -12 z"/>
          <path d="m 2,1 a 1,1 0 0 0 -1,1 v 12 a 1,1 0 0 0 1,1 h 1 v -10 a 2,2 0 0 1 2,-2 h 12 v -1 a 1,1 0 0 0 -1,-1"/>
        </g>
      </g>
    </g>
  </g>

  <!-- north -->

  <g transform="translate(96)">
    <rect style="fill:#303030;fill-opacity:0.25" y="63" width="320" height="1"/>

    <g>
      <g id="north-normal-topleft">
        <rect style="fill:none" width="4" height="4"/>
        <rect class="Indicator" x="1" width="3" height="3"/>
        <rect class="Background" x="1" y="3" width="3" height="1"/>
        <rect class="Border" x="1" width="1" height="4"/>
      </g>
      <g id="north-normal-top" transform="translate(4,0)">
        <rect class="Indicator" width="56" height="3"/>
        <rect class="Background" y="3" width="56" height="1"/>
      </g>
      <g id="north-normal-topright" transform="translate(60,0)">
        <rect style="fill:none" width="4" height="4"/>
        <rect class="Indicator" width="3" height="3"/>
        <rect class="Background" y="3" width="3" height="1"/>
        <rect class="Border" x="2" width="1" height="4"/>
      </g>
      <g id="north-normal-left" transform="translate(0,4)">
        <rect style="fill:none" width="4" height="56"/>
        <rect class="Background" x="1" width="3" height="56"/>
        <rect class="Border" x="1" width="1" height="56"/>
      </g>
      <g id="north-normal-center" transform="translate(4,4)">
        <rect class="Background" width="56" height="56"/>
      </g>
      <g id="north-normal-right" transform="translate(60,4)">
        <rect style="fill:none" width="4" height="56"/>
        <rect class="Background" width="3" height="56"/>
        <rect class="Border" x="2" width="1" height="56"/>
      </g>
      <g id="north-normal-bottomleft" transform="translate(0,60)">
        <rect style="fill:none" width="4" height="4"/>
        <rect class="Background" x="1" width="3" height="4"/>
        <rect class="Border" x="1" width="1" height="3"/>
      </g>
      <g id="north-normal-bottom" transform="translate(4,60)">
        <rect class="Background" width="56" height="4"/>
      </g>
      <g id="north-normal-bottomright" transform="translate(60,60)">
        <rect style="fill:none" width="4" height="4"/>
        <rect class="Background" width="3" height="4"/>
        <rect class="Border" x="2" width="1" height="3"/>
      </g>
    </g>
    <g transform="translate(64,0)">
      <g id="north-minimized-topleft">
        <rect style="fill:none" width="4" height="4"/>
        <rect class="Indicator" x="1" width="3" height="3"/>
        <rect class="Background" x="1" y="3" width="3" height="1"/>
        <rect class="Border" x="1" width="1" height="4"/>
      </g>
      <g id="north-minimized-top" transform="translate(4,0)">
        <rect class="Indicator" width="56" height="3"/>
        <rect class="Background" y="3" width="56" height="1"/>
      </g>
      <g id="north-minimized-topright" transform="translate(60,0)">
        <rect style="fill:none" width="4" height="4"/>
        <rect class="Indicator" width="3" height="3"/>
        <rect class="Background" y="3" width="3" height="1"/>
        <rect class="Border" x="2" width="1" height="4"/>
      </g>
      <g id="north-minimized-left" transform="translate(0,4)">
        <rect style="fill:none" width="4" height="56"/>
        <rect class="Background" x="1" width="3" height="56"/>
        <rect class="Border" x="1" width="1" height="56"/>
      </g>
      <g id="north-minimized-center" transform="translate(4,4)">
        <rect class="Background" width="56" height="56"/>
      </g>
      <g id="north-minimized-right" transform="translate(60,4)">
        <rect style="fill:none" width="4" height="56"/>
        <rect class="Background" width="3" height="56"/>
        <rect class="Border" x="2" width="1" height="56"/>
      </g>
      <g id="north-minimized-bottomleft" transform="translate(0,60)">
        <rect style="fill:none" width="4" height="4"/>
        <rect class="Background" x="1" width="3" height="4"/>
        <rect class="Border" x="1" width="1" height="3"/>
      </g>
      <g id="north-minimized-bottom" transform="translate(4,60)">
        <rect class="Background" width="56" height="4"/>
      </g>
      <g id="north-minimized-bottomright" transform="translate(60,60)">
        <rect style="fill:none" width="4" height="4"/>
        <rect class="Background" width="3" height="4"/>
        <rect class="Border" x="2" width="1" height="3"/>
      </g>
    </g>
    <g transform="translate(128,0)">
      <g id="north-focus-topleft">
        <rect style="fill:none" width="4" height="4"/>
        <rect class="FocusIndicator" x="1" width="3" height="3"/>
        <rect class="Background" x="1" y="3" width="3" height="1"/>
        <rect class="Border" x="1" width="1" height="4"/>
      </g>
      <g id="north-focus-top" transform="translate(4,0)">
        <rect class="FocusIndicator" width="56" height="3"/>
        <rect class="Background" y="3" width="56" height="1"/>
      </g>
      <g id="north-focus-topright" transform="translate(60,0)">
        <rect style="fill:none" width="4" height="4"/>
        <rect class="FocusIndicator" width="3" height="3"/>
        <rect class="Background" y="3" width="3" height="1"/>
        <rect class="Border" x="2" width="1" height="4"/>
      </g>
      <g id="north-focus-left" transform="translate(0,4)">
        <rect style="fill:none" width="4" height="56"/>
        <rect class="Background" x="1" width="3" height="56"/>
        <rect class="Border" x="1" width="1" height="56"/>
      </g>
      <g id="north-focus-center" transform="translate(4,4)">
        <rect class="Background" width="56" height="56"/>
      </g>
      <g id="north-focus-right" transform="translate(60,4)">
        <rect style="fill:none" width="4" height="56"/>
        <rect class="Background" width="3" height="56"/>
        <rect class="Border" x="2" width="1" height="56"/>
      </g>
      <g id="north-focus-bottomleft" transform="translate(0,60)">
        <rect style="fill:none" width="4" height="4"/>
        <rect class="Background" x="1" width="3" height="4"/>
        <rect class="Border" x="1" width="1" height="3"/>
      </g>
      <g id="north-focus-bottom" transform="translate(4,60)">
        <rect class="Background" width="56" height="4"/>
      </g>
      <g id="north-focus-bottomright" transform="translate(60,60)">
        <rect style="fill:none" width="4" height="4"/>
        <rect class="Background" width="3" height="4"/>
        <rect class="Border" x="2" width="1" height="3"/>
      </g>
    </g>
    <g transform="translate(192,0)">
      <g id="north-attention-topleft">
        <rect style="fill:none" width="4" height="4"/>
        <rect class="AttentationIndicator" x="1" width="3" height="3"/>
        <rect class="AttentationBackground" x="1" y="3" width="3" height="1"/>
        <rect class="Border" x="1" width="1" height="4"/>
      </g>
      <g id="north-attention-top" transform="translate(4,0)">
        <rect class="AttentationIndicator" width="56" height="3"/>
        <rect class="AttentationBackground" y="3" width="56" height="1"/>
      </g>
      <g id="north-attention-topright" transform="translate(60,0)">
        <rect style="fill:none" width="4" height="4"/>
        <rect class="AttentationIndicator" width="3" height="3"/>
        <rect class="AttentationBackground" y="3" width="3" height="1"/>
        <rect class="Border" x="2" width="1" height="4"/>
      </g>
      <g id="north-attention-left" transform="translate(0,4)">
        <rect style="fill:none" width="4" height="56"/>
        <rect class="AttentationBackground" x="1" width="3" height="56"/>
        <rect class="Border" x="1" width="1" height="56"/>
      </g>
      <g id="north-attention-center" transform="translate(4,4)">
        <rect class="AttentationBackground" width="56" height="56"/>
      </g>
      <g id="north-attention-right" transform="translate(60,4)">
        <rect style="fill:none" width="4" height="56"/>
        <rect class="AttentationBackground" width="3" height="56"/>
        <rect class="Border" x="2" width="1" height="56"/>
      </g>
      <g id="north-attention-bottomleft" transform="translate(0,60)">
        <rect style="fill:none" width="4" height="4"/>
        <rect class="AttentationBackground" x="1" width="3" height="4"/>
        <rect class="Border" x="1" width="1" height="3"/>
      </g>
      <g id="north-attention-bottom" transform="translate(4,60)">
        <rect class="AttentationBackground" width="56" height="4"/>
      </g>
      <g id="north-attention-bottomright" transform="translate(60,60)">
        <rect style="fill:none" width="4" height="4"/>
        <rect class="AttentationBackground" width="3" height="4"/>
        <rect class="Border" x="2" width="1" height="3"/>
      </g>
    </g>
    <g transform="translate(256,0)">
      <g id="north-progress-topleft">
        <rect style="fill:none" width="4" height="4"/>
        <rect class="ProgressIndicator" x="1" width="3" height="3"/>
        <rect class="ProgressOverlay" x="1" y="3" width="3" height="1"/>
        <rect class="Border" x="1" width="1" height="3"/>
      </g>
      <g id="north-progress-top" transform="translate(4,0)">
        <rect class="ProgressIndicator" width="56" height="3"/>
        <rect class="ProgressOverlay" y="3" width="56" height="1"/>
      </g>
      <g id="north-progress-topright" transform="translate(60,0)">
        <rect style="fill:none" width="4" height="4"/>
        <rect class="ProgressIndicator" width="3" height="3"/>
        <rect class="ProgressOverlay" y="3" width="3" height="1"/>
        <rect class="Border" x="2" width="1" height="3"/>
      </g>
      <g id="north-progress-left" transform="translate(0,4)">
        <rect style="fill:none" width="4" height="56"/>
        <rect class="ProgressOverlay" x="1" width="3" height="56"/>
      </g>
      <g id="north-progress-center" transform="translate(4,4)">
        <rect class="ProgressOverlay" width="56" height="56"/>
      </g>
      <g id="north-progress-right" transform="translate(60,4)">
        <rect style="fill:none" width="4" height="56"/>
        <rect class="ProgressOverlay" width="3" height="56"/>
      </g>
      <g id="north-progress-bottomleft" transform="translate(0,60)">
        <rect style="fill:none" width="4" height="4"/>
        <rect class="ProgressOverlay" x="1" width="3" height="4"/>
      </g>
      <g id="north-progress-bottom" transform="translate(4,60)">
        <rect class="ProgressOverlay" width="56" height="4"/>
      </g>
      <g id="north-progress-bottomright" transform="translate(60,60)">
        <rect style="fill:none" width="4" height="4"/>
        <rect class="ProgressOverlay" width="3" height="4"/>
      </g>
    </g>
    <g id="group-expander-top" transform="translate(4,0)">
      <rect style="fill:none" width="56" height="28"/>
      <g transform="translate(0,4)">
        <g class="IconOutline">
          <path d="M 5,0 a 2,2 0 0 0 -2,2 v 1 h -1 a 2,2 0 0 0 -2,2 v 12 a 2,2 0 0 0 2,2 h 14 a 2,2 0 0 0 2,-2 v -1 h 1 a 2,2 0 0 0 2,-2 v -12 a 2,2 0 0 0 -2,-2
                   M 4,2 a 1,1 0 0 1 1,-1 h 14 a 1,1 0 0 1 1,1 v 12 a 1,1 0 0 1 -1,1 h -1 v -10 a 2,2 0 0 0 -2,-2 h -12
                   M 1,5 a 1,1 0 0 1 1,-1 h 14 a 1,1 0 0 1 1,1 v 12 a 1,1 0 0 1 -1,1 h -14 a 1,1 0 0 1 -1,-1"/>
          <path d="M 3,8 v 8 h 12 v -8 z m 1,1 h 10 v 6 h -10"/>
        </g>
        <g class="Icon">
          <path d="m 2,4 a 1,1 0 0 0 -1,1 v 12 a 1,1 0 0 0 1,1 h 14 a 1,1 0 0 0 1,-1 v -12 a 1,1 0 0 0 -1,-1 z m 1,4 h 12 v 8 h -12 z"/>
          <path d="m 5,1 a 1,1 0 0 0 -1,1 v 1 h 12 a 2,2 0 0 1 2,2 v 10 h 1 a 1,1 0 0 0 1,-1 v -12 a 1,1 0 0 0 -1,-1"/>
        </g>
      </g>
    </g>
  </g>

  <!-- west -->

  <g>
    <rect style="fill:#303030;fill-opacity:0.25" x="63" width="1" height="320"/>

    <g>
      <g id="west-normal-topleft">
        <rect style="fill:none" width="4" height="4"/>
        <rect class="Indicator" y="1" width="3" height="3"/>
        <rect class="Background" x="3" y="1" width="1" height="3"/>
        <rect class="Border" y="1" width="4" height="1"/>
      </g>
      <g id="west-normal-top" transform="translate(4,0)">
        <rect style="fill:none" width="56" height="4"/>
        <rect class="Background" y="1" width="56" height="3"/>
        <rect class="Border" y="1" width="56" height="1"/>
      </g>
      <g id="west-normal-topright" transform="translate(60,0)">
        <rect style="fill:none" width="4" height="4"/>
        <rect class="Background" y="1" width="4" height="3"/>
        <rect class="Border" y="1" width="3" height="1"/>
      </g>
      <g id="west-normal-left" transform="translate(0,4)">
        <rect class="Indicator" width="3" height="56"/>
        <rect class="Background" x="3" width="1" height="56"/>
      </g>
      <g id="west-normal-center" transform="translate(4,4)">
        <rect class="Background" width="56" height="56"/>
      </g>
      <g id="west-normal-right" transform="translate(60,4)">
        <rect class="Background" width="4" height="56"/>
      </g>
      <g id="west-normal-bottomleft" transform="translate(0,60)">
        <rect style="fill:none" width="4" height="4"/>
        <rect class="Indicator" width="3" height="3"/>
        <rect class="Background" x="3" width="1" height="3"/>
        <rect class="Border" y="2" width="4" height="1"/>
      </g>
      <g id="west-normal-bottom" transform="translate(4,60)">
        <rect style="fill:none" width="56" height="4"/>
        <rect class="Background" width="56" height="3"/>
        <rect class="Border" y="2" width="56" height="1"/>
      </g>
      <g id="west-normal-bottomright" transform="translate(60,60)">
        <rect style="fill:none" width="4" height="4"/>
        <rect class="Background" width="4" height="3"/>
        <rect class="Border" y="2" width="3" height="1"/>
      </g>
    </g>
    <g transform="translate(0,64)">
      <g id="west-minimized-topleft">
        <rect style="fill:none" width="4" height="4"/>
        <rect class="Indicator" y="1" width="3" height="3"/>
        <rect class="Background" x="3" y="1" width="1" height="3"/>
        <rect class="Border" y="1" width="4" height="1"/>
      </g>
      <g id="west-minimized-top" transform="translate(4,0)">
        <rect style="fill:none" width="56" height="4"/>
        <rect class="Background" y="1" width="56" height="3"/>
        <rect class="Border" y="1" width="56" height="1"/>
      </g>
      <g id="west-minimized-topright" transform="translate(60,0)">
        <rect style="fill:none" width="4" height="4"/>
        <rect class="Background" y="1" width="4" height="3"/>
        <rect class="Border" y="1" width="3" height="1"/>
      </g>
      <g id="west-minimized-left" transform="translate(0,4)">
        <rect class="Indicator" width="3" height="56"/>
        <rect class="Background" x="3" width="1" height="56"/>
      </g>
      <g id="west-minimized-center" transform="translate(4,4)">
        <rect class="Background" width="56" height="56"/>
      </g>
      <g id="west-minimized-right" transform="translate(60,4)">
        <rect class="Background" width="4" height="56"/>
      </g>
      <g id="west-minimized-bottomleft" transform="translate(0,60)">
        <rect style="fill:none" width="4" height="4"/>
        <rect class="Indicator" width="3" height="3"/>
        <rect class="Background" x="3" width="1" height="3"/>
        <rect class="Border" y="2" width="4" height="1"/>
      </g>
      <g id="west-minimized-bottom" transform="translate(4,60)">
        <rect style="fill:none" width="56" height="4"/>
        <rect class="Background" width="56" height="3"/>
        <rect class="Border" y="2" width="56" height="1"/>
      </g>
      <g id="west-minimized-bottomright" transform="translate(60,60)">
        <rect style="fill:none" width="4" height="4"/>
        <rect class="Background" width="4" height="3"/>
        <rect class="Border" y="2" width="3" height="1"/>
      </g>
    </g>
    <g transform="translate(0,128)">
      <g id="west-focus-topleft">
        <rect style="fill:none" width="4" height="4"/>
        <rect class="FocusIndicator" y="1" width="3" height="3"/>
        <rect class="Background" x="3" y="1" width="1" height="3"/>
        <rect class="Border" y="1" width="4" height="1"/>
      </g>
      <g id="west-focus-top" transform="translate(4,0)">
        <rect style="fill:none" width="56" height="4"/>
        <rect class="Background" y="1" width="56" height="3"/>
        <rect class="Border" y="1" width="56" height="1"/>
      </g>
      <g id="west-focus-topright" transform="translate(60,0)">
        <rect style="fill:none" width="4" height="4"/>
        <rect class="Background" y="1" width="4" height="3"/>
        <rect class="Border" y="1" width="3" height="1"/>
      </g>
      <g id="west-focus-left" transform="translate(0,4)">
        <rect class="FocusIndicator" width="3" height="56"/>
        <rect class="Background" x="3" width="1" height="56"/>
      </g>
      <g id="west-focus-center" transform="translate(4,4)">
        <rect class="Background" width="56" height="56"/>
      </g>
      <g id="west-focus-right" transform="translate(60,4)">
        <rect class="Background" width="4" height="56"/>
      </g>
      <g id="west-focus-bottomleft" transform="translate(0,60)">
        <rect style="fill:none" width="4" height="4"/>
        <rect class="FocusIndicator" width="3" height="3"/>
        <rect class="Background" x="3" width="1" height="3"/>
        <rect class="Border" y="2" width="4" height="1"/>
      </g>
      <g id="west-focus-bottom" transform="translate(4,60)">
        <rect style="fill:none" width="56" height="4"/>
        <rect class="Background" width="56" height="3"/>
        <rect class="Border" y="2" width="56" height="1"/>
      </g>
      <g id="west-focus-bottomright" transform="translate(60,60)">
        <rect style="fill:none" width="4" height="4"/>
        <rect class="Background" width="4" height="3"/>
        <rect class="Border" y="2" width="3" height="1"/>
      </g>
    </g>
    <g transform="translate(0,192)">
      <g id="west-attention-topleft">
        <rect style="fill:none" width="4" height="4"/>
        <rect class="AttentationIndicator" y="1" width="3" height="3"/>
        <rect class="AttentationBackground" x="3" y="1" width="1" height="3"/>
        <rect class="Border" y="1" width="4" height="1"/>
      </g>
      <g id="west-attention-top" transform="translate(4,0)">
        <rect style="fill:none" width="56" height="4"/>
        <rect class="AttentationBackground" y="1" width="56" height="3"/>
        <rect class="Border" y="1" width="56" height="1"/>
      </g>
      <g id="west-attention-topright" transform="translate(60,0)">
        <rect style="fill:none" width="4" height="4"/>
        <rect class="AttentationBackground" y="1" width="4" height="3"/>
        <rect class="Border" y="1" width="3" height="1"/>
      </g>
      <g id="west-attention-left" transform="translate(0,4)">
        <rect class="AttentationIndicator" width="3" height="56"/>
        <rect class="AttentationBackground" x="3" width="1" height="56"/>
      </g>
      <g id="west-attention-center" transform="translate(4,4)">
        <rect class="AttentationBackground" width="56" height="56"/>
      </g>
      <g id="west-attention-right" transform="translate(60,4)">
        <rect class="AttentationBackground" width="4" height="56"/>
      </g>
      <g id="west-attention-bottomleft" transform="translate(0,60)">
        <rect style="fill:none" width="4" height="4"/>
        <rect class="AttentationIndicator" width="3" height="3"/>
        <rect class="AttentationBackground" x="3" width="1" height="3"/>
        <rect class="Border" y="2" width="4" height="1"/>
      </g>
      <g id="west-attention-bottom" transform="translate(4,60)">
        <rect style="fill:none" width="56" height="4"/>
        <rect class="AttentationBackground" width="56" height="3"/>
        <rect class="Border" y="2" width="56" height="1"/>
      </g>
      <g id="west-attention-bottomright" transform="translate(60,60)">
        <rect style="fill:none" width="4" height="4"/>
        <rect class="AttentationBackground" width="4" height="3"/>
        <rect class="Border" y="2" width="3" height="1"/>
      </g>
    </g>
    <g transform="translate(0,256)">
      <g id="west-progress-topleft">
        <rect style="fill:none" width="4" height="4"/>
        <rect class="ProgressIndicator" y="1" width="3" height="3"/>
        <rect class="ProgressOverlay" x="3" y="1" width="1" height="3"/>
        <rect class="Border" y="1" width="3" height="1"/>
      </g>
      <g id="west-progress-top" transform="translate(4,0)">
        <rect style="fill:none" width="56" height="4"/>
        <rect class="ProgressOverlay" y="1" width="56" height="3"/>
      </g>
      <g id="west-progress-topright" transform="translate(60,0)">
        <rect style="fill:none" width="4" height="4"/>
        <rect class="ProgressOverlay" y="1" width="4" height="3"/>
      </g>
      <g id="west-progress-left" transform="translate(0,4)">
        <rect class="ProgressIndicator" width="3" height="56"/>
        <rect class="ProgressOverlay" x="3" width="1" height="56"/>
      </g>
      <g id="west-progress-center" transform="translate(4,4)">
        <rect class="ProgressOverlay" width="56" height="56"/>
      </g>
      <g id="west-progress-right" transform="translate(60,4)">
        <rect class="ProgressOverlay" width="4" height="56"/>
      </g>
      <g id="west-progress-bottomleft" transform="translate(0,60)">
        <rect style="fill:none" width="4" height="4"/>
        <rect class="ProgressIndicator" width="3" height="3"/>
        <rect class="ProgressOverlay" x="3" width="1" height="3"/>
        <rect class="Border" y="2" width="3" height="1"/>
      </g>
      <g id="west-progress-bottom" transform="translate(4,60)">
        <rect style="fill:none" width="56" height="4"/>
        <rect class="ProgressOverlay" width="56" height="3"/>
      </g>
      <g id="west-progress-bottomright" transform="translate(60,60)">
        <rect style="fill:none" width="4" height="4"/>
        <rect class="ProgressOverlay" width="4" height="3"/>
      </g>
    </g>
    <g id="group-expander-left" transform="translate(4,4)">
      <rect style="fill:none" width="28" height="56"/>
      <g transform="translate(1,37)">
        <g class="IconOutline">
          <path d="M 5,0 a 2,2 0 0 0 -2,2 v 1 h -1 a 2,2 0 0 0 -2,2 v 12 a 2,2 0 0 0 2,2 h 14 a 2,2 0 0 0 2,-2 v -1 h 1 a 2,2 0 0 0 2,-2 v -12 a 2,2 0 0 0 -2,-2
                   M 4,2 a 1,1 0 0 1 1,-1 h 14 a 1,1 0 0 1 1,1 v 12 a 1,1 0 0 1 -1,1 h -1 v -10 a 2,2 0 0 0 -2,-2 h -12
                   M 1,5 a 1,1 0 0 1 1,-1 h 14 a 1,1 0 0 1 1,1 v 12 a 1,1 0 0 1 -1,1 h -14 a 1,1 0 0 1 -1,-1"/>
          <path d="M 3,8 v 8 h 12 v -8 z m 1,1 h 10 v 6 h -10"/>
        </g>
        <g class="Icon">
          <path d="m 2,4 a 1,1 0 0 0 -1,1 v 12 a 1,1 0 0 0 1,1 h 14 a 1,1 0 0 0 1,-1 v -12 a 1,1 0 0 0 -1,-1 z m 1,4 h 12 v 8 h -12 z"/>
          <path d="m 5,1 a 1,1 0 0 0 -1,1 v 1 h 12 a 2,2 0 0 1 2,2 v 10 h 1 a 1,1 0 0 0 1,-1 v -12 a 1,1 0 0 0 -1,-1"/>
        </g>
      </g>
    </g>
  </g>

  <!-- east -->

  <g transform="translate(448)">
    <rect style="fill:#303030;fill-opacity:0.25" width="1" height="320"/>

    <g>
      <g id="east-normal-topleft">
        <rect style="fill:none" width="4" height="4"/>
        <rect class="Background" y="1" width="4" height="3"/>
        <rect class="Border" x="1" y="1" width="3" height="1"/>
      </g>
      <g id="east-normal-top" transform="translate(4,0)">
        <rect style="fill:none" width="56" height="4"/>
        <rect class="Background" y="1" width="56" height="3"/>
        <rect class="Border" y="1" width="56" height="1"/>
      </g>
      <g id="east-normal-topright" transform="translate(60,0)">
        <rect style="fill:none" width="4" height="4"/>
        <rect class="Background" y="1" width="1" height="3"/>
        <rect class="Indicator" x="1" y="1" width="3" height="3"/>
        <rect class="Border" y="1" width="4" height="1"/>
      </g>
      <g id="east-normal-left" transform="translate(0,4)">
        <rect class="Background" width="4" height="56"/>
      </g>
      <g id="east-normal-center" transform="translate(4,4)">
        <rect class="Background" width="56" height="56"/>
      </g>
      <g id="east-normal-right" transform="translate(60,4)">
        <rect class="Background" width="1" height="56"/>
        <rect class="Indicator" x="1" width="3" height="56"/>
      </g>
      <g id="east-normal-bottomleft" transform="translate(0,60)">
        <rect style="fill:none" width="4" height="4"/>
        <rect class="Background" width="4" height="3"/>
        <rect class="Border" x="1" y="2" width="3" height="1"/>
      </g>
      <g id="east-normal-bottom" transform="translate(4,60)">
        <rect style="fill:none" width="56" height="4"/>
        <rect class="Background" width="56" height="3"/>
        <rect class="Border" y="2" width="56" height="1"/>
      </g>
      <g id="east-normal-bottomright" transform="translate(60,60)">
        <rect style="fill:none" width="4" height="4"/>
        <rect class="Background" width="1" height="3"/>
        <rect class="Indicator" x="1" width="3" height="3"/>
        <rect class="Border" y="2" width="4" height="1"/>
      </g>
    </g>
    <g transform="translate(0,64)">
      <g id="east-minimized-topleft">
        <rect style="fill:none" width="4" height="4"/>
        <rect class="Background" y="1" width="4" height="3"/>
        <rect class="Border" x="1" y="1" width="3" height="1"/>
      </g>
      <g id="east-minimized-top" transform="translate(4,0)">
        <rect style="fill:none" width="56" height="4"/>
        <rect class="Background" y="1" width="56" height="3"/>
        <rect class="Border" y="1" width="56" height="1"/>
      </g>
      <g id="east-minimized-topright" transform="translate(60,0)">
        <rect style="fill:none" width="4" height="4"/>
        <rect class="Background" y="1" width="1" height="3"/>
        <rect class="Indicator" x="1" y="1" width="3" height="3"/>
        <rect class="Border" y="1" width="4" height="1"/>
      </g>
      <g id="east-minimized-left" transform="translate(0,4)">
        <rect class="Background" width="4" height="56"/>
      </g>
      <g id="east-minimized-center" transform="translate(4,4)">
        <rect class="Background" width="56" height="56"/>
      </g>
      <g id="east-minimized-right" transform="translate(60,4)">
        <rect class="Background" width="1" height="56"/>
        <rect class="Indicator" x="1" width="3" height="56"/>
      </g>
      <g id="east-minimized-bottomleft" transform="translate(0,60)">
        <rect style="fill:none" width="4" height="4"/>
        <rect class="Background" width="4" height="3"/>
        <rect class="Border" x="1" y="2" width="3" height="1"/>
      </g>
      <g id="east-minimized-bottom" transform="translate(4,60)">
        <rect style="fill:none" width="56" height="4"/>
        <rect class="Background" width="56" height="3"/>
        <rect class="Border" y="2" width="56" height="1"/>
      </g>
      <g id="east-minimized-bottomright" transform="translate(60,60)">
        <rect style="fill:none" width="4" height="4"/>
        <rect class="Background" width="1" height="3"/>
        <rect class="Indicator" x="1" width="3" height="3"/>
        <rect class="Border" y="2" width="4" height="1"/>
      </g>
    </g>
    <g transform="translate(0,128)">
      <g id="east-focus-topleft">
        <rect style="fill:none" width="4" height="4"/>
        <rect class="Background" y="1" width="4" height="3"/>
        <rect class="Border" x="1" y="1" width="3" height="1"/>
      </g>
      <g id="east-focus-top" transform="translate(4,0)">
        <rect style="fill:none" width="56" height="4"/>
        <rect class="Background" y="1" width="56" height="3"/>
        <rect class="Border" y="1" width="56" height="1"/>
      </g>
      <g id="east-focus-topright" transform="translate(60,0)">
        <rect style="fill:none" width="4" height="4"/>
        <rect class="Background" y="1" width="1" height="3"/>
        <rect class="FocusIndicator" x="1" y="1" width="3" height="3"/>
        <rect class="Border" y="1" width="4" height="1"/>
      </g>
      <g id="east-focus-left" transform="translate(0,4)">
        <rect class="Background" width="4" height="56"/>
      </g>
      <g id="east-focus-center" transform="translate(4,4)">
        <rect class="Background" width="56" height="56"/>
      </g>
      <g id="east-focus-right" transform="translate(60,4)">
        <rect class="Background" width="1" height="56"/>
        <rect class="FocusIndicator" x="1" width="3" height="56"/>
      </g>
      <g id="east-focus-bottomleft" transform="translate(0,60)">
        <rect style="fill:none" width="4" height="4"/>
        <rect class="Background" width="4" height="3"/>
        <rect class="Border" x="1" y="2" width="3" height="1"/>
      </g>
      <g id="east-focus-bottom" transform="translate(4,60)">
        <rect style="fill:none" width="56" height="4"/>
        <rect class="Background" width="56" height="3"/>
        <rect class="Border" y="2" width="56" height="1"/>
      </g>
      <g id="east-focus-bottomright" transform="translate(60,60)">
        <rect style="fill:none" width="4" height="4"/>
        <rect class="FocusIndicator" x="1" width="3" height="3"/>
        <rect class="Border" y="2" width="4" height="1"/>
      </g>
    </g>
    <g transform="translate(0,192)">
      <g id="east-attention-topleft">
        <rect style="fill:none" width="4" height="4"/>
        <rect class="AttentationBackground" y="1" width="4" height="3"/>
        <rect class="Border" x="1" y="1" width="3" height="1"/>
      </g>
      <g id="east-attention-top" transform="translate(4,0)">
        <rect style="fill:none" width="56" height="4"/>
        <rect class="AttentationBackground" y="1" width="56" height="3"/>
        <rect class="Border" y="1" width="56" height="1"/>
      </g>
      <g id="east-attention-topright" transform="translate(60,0)">
        <rect style="fill:none" width="4" height="4"/>
        <rect class="AttentationBackground" y="1" width="1" height="3"/>
        <rect class="AttentationIndicator" x="1" y="1" width="3" height="3"/>
        <rect class="Border" y="1" width="4" height="1"/>
      </g>
      <g id="east-attention-left" transform="translate(0,4)">
        <rect class="AttentationBackground" width="4" height="56"/>
      </g>
      <g id="east-attention-center" transform="translate(4,4)">
        <rect class="AttentationBackground" width="56" height="56"/>
      </g>
      <g id="east-attention-right" transform="translate(60,4)">
        <rect class="AttentationBackground" width="1" height="56"/>
        <rect class="AttentationIndicator" x="1" width="3" height="56"/>
      </g>
      <g id="east-attention-bottomleft" transform="translate(0,60)">
        <rect style="fill:none" width="4" height="4"/>
        <rect class="AttentationBackground" width="4" height="3"/>
        <rect class="Border" x="1" y="2" width="3" height="1"/>
      </g>
      <g id="east-attention-bottom" transform="translate(4,60)">
        <rect style="fill:none" width="56" height="4"/>
        <rect class="AttentationBackground" width="56" height="3"/>
        <rect class="Border" y="2" width="56" height="1"/>
      </g>
      <g id="east-attention-bottomright" transform="translate(60,60)">
        <rect style="fill:none" width="4" height="4"/>
        <rect class="AttentationBackground" width="1" height="3"/>
        <rect class="AttentationIndicator" x="1" width="3" height="3"/>
        <rect class="Border" y="2" width="4" height="1"/>
      </g>
    </g>
    <g transform="translate(0,256)">
      <g id="east-progress-topleft">
        <rect style="fill:none" width="4" height="4"/>
        <rect class="ProgressOverlay" y="1" width="4" height="3"/>
      </g>
      <g id="east-progress-top" transform="translate(4,0)">
        <rect style="fill:none" width="56" height="4"/>
        <rect class="ProgressOverlay" y="1" width="56" height="3"/>
      </g>
      <g id="east-progress-topright" transform="translate(60,0)">
        <rect style="fill:none" width="4" height="4"/>
        <rect class="ProgressOverlay" y="1" width="1" height="3"/>
        <rect class="ProgressIndicator" x="1" y="1" width="3" height="3"/>
        <rect class="Border" x="1" y="1" width="3" height="1"/>
      </g>
      <g id="east-progress-left" transform="translate(0,4)">
        <rect class="ProgressOverlay" width="4" height="56"/>
      </g>
      <g id="east-progress-center" transform="translate(4,4)">
        <rect class="ProgressOverlay" width="56" height="56"/>
      </g>
      <g id="east-progress-right" transform="translate(60,4)">
        <rect class="ProgressOverlay" width="1" height="56"/>
        <rect class="ProgressIndicator" x="1" width="3" height="56"/>
      </g>
      <g id="east-progress-bottomleft" transform="translate(0,60)">
        <rect style="fill:none" width="4" height="4"/>
        <rect class="ProgressOverlay" width="4" height="3"/>
      </g>
      <g id="east-progress-bottom" transform="translate(4,60)">
        <rect style="fill:none" width="56" height="4"/>
        <rect class="ProgressOverlay" width="56" height="3"/>
      </g>
      <g id="east-progress-bottomright" transform="translate(60,60)">
        <rect style="fill:none" width="4" height="4"/>
        <rect class="ProgressOverlay" width="1" height="3"/>
        <rect class="ProgressIndicator" x="1" width="3" height="3"/>
        <rect class="Border" x="1" y="2" width="3" height="1"/>
      </g>
    </g>
    <g id="group-expander-right" transform="translate(36,4)">
      <rect style="fill:none" width="28" height="56"/>
      <g transform="translate(2,37)">
        <g class="IconOutline">
          <path d="M 2,0 a 2,2 0 0 0 -2,2 v 12 a 2,2 0 0 0 2,2 h 1 v 1 a 2,2 0 0 0 2,2 h 14 a 2,2 0 0 0 2,-2 v -12 a 2,2 0 0 0 -2,-2 h -1 v -1 a 2,2 0 0 0 -2,-2
                   M 1,2 a 1,1 0 0 1 1,-1 h 14 a 1,1 0 0 1 1,1 v 1 h -12 a 2,2 0 0 0 -2,2 v 10 h -1 a 1,1 0 0 1 -1,-1
                   M 4,5 a 1,1 0 0 1 1,-1 h 14 a 1,1 0 0 1 1,1 v 12 a 1,1 0 0 1 -1,1 h -14 a 1,1 0 0 1 -1,-1"/>
          <path d="M 6,8 v 8 h 12 v -8 z m 1,1 h 10 v 6 h -10"/>
        </g>
        <g class="Icon">
          <path d="m 5,4 a 1,1 0 0 0 -1,1 v 12 a 1,1 0 0 0 1,1 h 14 a 1,1 0 0 0 1,-1 v -12 a 1,1 0 0 0 -1,-1 z m 1,4 h 12 v 8 h -12 z"/>
          <path d="m 2,1 a 1,1 0 0 0 -1,1 v 12 a 1,1 0 0 0 1,1 h 1 v -10 a 2,2 0 0 1 2,-2 h 12 v -1 a 1,1 0 0 0 -1,-1"/>
        </g>
      </g>
    </g>
  </g>
</svg>
