<?xml version="1.0" encoding="UTF-8"?>
<svg xmlns="http://www.w3.org/2000/svg" viewBox="0 0 48 72">
  <defs>
    <linearGradient id="shadow" x1="100%" y1="0" x2="0" y2="100%">
      <stop offset="0" style="stop-color:black;stop-opacity:0.25"/>
      <stop offset="0.5" style="stop-color:black;stop-opacity:0"/>
    </linearGradient>
    <style type="text/css" id="current-color-scheme">
      .ColorScheme-Text { color: #808080 }
    </style>
  </defs>
  <g id="22-22-start-here-kde" transform="translate(13)">
    <rect style="fill:none" width="22" height="22"/>
    <g class="ColorScheme-Text" style="fill:currentColor">
      <circle cx="7" cy="4" r="1"/>
      <circle cx="4.5" cy="10.5" r="1.5"/>
      <circle cx="9" cy="17" r="2"/>
      <path d="m 12,5 l 2,-2 5,5 -5,5 -2,-2 3,-3 z"/>
    </g>
  </g>
  <g id="start-here-kde" transform="translate(0,24)">
    <rect style="fill:none" width="48" height="48"/>
    <circle style="fill:#D84315" cx="14" cy="7" r="2.5"/>
    <circle style="fill:#2E7D32" cx="8" cy="22.5" r="3.5"/>
    <circle style="fill:#0277BD" cx="19.5" cy="38.5" r="5"/>
    <path style="fill:#616161" d="m 26,8.5 l 4.5,-4.5 13,13 -13,13 -4.5,-4.5 8.5,-8.5 z"/>
    <path style="fill:url(#shadow)" d="m 34.5,17 4.5,4.5 -8.5,8.5 -4.5,-4.5"/>
  </g>
</svg>
